<svg width="120" height="130" viewBox="0 0 130 130" fill="none" xmlns="http://www.w3.org/2000/svg">
<path d="M87.491 1.69534C86.9518 1.24605 86.2722 1 85.5704 1H15.2761C11.4898 1 7.85866 2.50408 5.18137 5.18137C2.50408 7.85866 1 11.4898 1 15.2761V115.209C1 118.995 2.50408 122.626 5.18137 125.303C7.85866 127.981 11.4898 129.485 15.2761 129.485H115.209C118.995 129.485 122.626 127.981 125.303 125.303C127.981 122.626 129.485 118.995 129.485 115.209V38.0954C129.485 37.205 129.089 36.3607 128.405 35.7907L87.491 1.69534Z" fill="#8b87f0" fill-opacity="1" stroke="url(#paint0_linear_749_137)" stroke-width="0.8" stroke-linecap="round" stroke-linejoin="round"/>
<path d="M86.5 1.5L85 29.4444C85 33.349 86.5511 37.0937 89.312 39.8546C92.073 42.6156 95.8176 44.1666 99.7222 44.1666H129.167" stroke="url(#paint1_linear_749_137)" stroke-width="0.8" stroke-linecap="round" stroke-linejoin="round"/>
<path d="M59.375 73.8889V75.6667C59.375 77.0812 59.9676 78.4377 61.0225 79.4379C62.0774 80.4381 63.5082 81 65 81C66.4918 81 67.9226 80.4381 68.9775 79.4379C70.0324 78.4377 70.625 77.0812 70.625 75.6667V73.8889M61.25 52.5556C61.25 51.6126 61.6451 50.7082 62.3484 50.0414C63.0516 49.3746 64.0054 49 65 49C65.9946 49 66.9484 49.3746 67.6516 50.0414C68.3549 50.7082 68.75 51.6126 68.75 52.5556C70.9033 53.5209 72.7389 55.0237 74.0601 56.9028C75.3813 58.7818 76.1383 60.9664 76.25 63.2222V68.5556C76.3911 69.6608 76.8039 70.7192 77.4553 71.6456C78.1066 72.5719 78.9782 73.3403 80 73.8889H50C51.0218 73.3403 51.8934 72.5719 52.5447 71.6456C53.1961 70.7192 53.6089 69.6608 53.75 68.5556V63.2222C53.8617 60.9664 54.6187 58.7818 55.9399 56.9028C57.2611 55.0237 59.0967 53.5209 61.25 52.5556Z" stroke="white" stroke-width="2" stroke-linecap="round" stroke-linejoin="round"/>
<path d="M59.375 73.8889V75.6667C59.375 77.0812 59.9676 78.4377 61.0225 79.4379C62.0774 80.4381 63.5082 81 65 81C66.4918 81 67.9226 80.4381 68.9775 79.4379C70.0324 78.4377 70.625 77.0812 70.625 75.6667V73.8889M61.25 52.5556C61.25 51.6126 61.6451 50.7082 62.3484 50.0414C63.0516 49.3746 64.0054 49 65 49C65.9946 49 66.9484 49.3746 67.6516 50.0414C68.3549 50.7082 68.75 51.6126 68.75 52.5556C70.9033 53.5209 72.7389 55.0237 74.0601 56.9028C75.3813 58.7818 76.1383 60.9664 76.25 63.2222V68.5556C76.3911 69.6608 76.8039 70.7192 77.4553 71.6456C78.1066 72.5719 78.9782 73.3403 80 73.8889H50C51.0218 73.3403 51.8934 72.5719 52.5447 71.6456C53.1961 70.7192 53.6089 69.6608 53.75 68.5556V63.2222C53.8617 60.9664 54.6187 58.7818 55.9399 56.9028C57.2611 55.0237 59.0967 53.5209 61.25 52.5556Z" stroke="white" stroke-width="2" stroke-linecap="round" stroke-linejoin="round"/>
<path d="M65.2539 64.5625C65.1797 64.5625 65.1211 64.5605 65.0781 64.5566C65.0352 64.5488 64.9961 64.5391 64.9609 64.5273C64.9258 64.5156 64.8984 64.4922 64.8789 64.457C64.8633 64.418 64.8496 64.3809 64.8379 64.3457C64.8262 64.3105 64.8184 64.252 64.8145 64.1699C64.8105 64.0879 64.8066 64.0078 64.8027 63.9297C64.7988 63.8516 64.793 63.7422 64.7852 63.6016C64.7812 63.457 64.7734 63.3164 64.7617 63.1797C64.7305 62.7539 64.6816 62.166 64.6152 61.416C64.5527 60.6621 64.498 60.0176 64.4512 59.4824C64.4043 58.9434 64.3809 58.6406 64.3809 58.5742C64.3809 58.4102 64.4219 58.293 64.5039 58.2227C64.5898 58.1523 64.7246 58.1172 64.9082 58.1172H65.5879C65.7715 58.1172 65.9043 58.1523 65.9863 58.2227C66.0723 58.293 66.1152 58.4102 66.1152 58.5742C66.1152 58.6406 66.0898 58.9434 66.0391 59.4824C65.9922 60.0215 65.9336 60.666 65.8633 61.416C65.7969 62.1621 65.748 62.75 65.7168 63.1797C65.7051 63.3164 65.6953 63.457 65.6875 63.6016C65.6836 63.7422 65.6797 63.8516 65.6758 63.9297C65.6758 64.0078 65.6738 64.0879 65.6699 64.1699C65.666 64.248 65.6582 64.3066 65.6465 64.3457C65.6387 64.3809 65.627 64.418 65.6113 64.457C65.5957 64.4922 65.5703 64.5156 65.5352 64.5273C65.5039 64.5391 65.4668 64.5488 65.4238 64.5566C65.3809 64.5605 65.3242 64.5625 65.2539 64.5625ZM64.2637 66.1973C64.2637 65.9277 64.3535 65.7012 64.5332 65.5176C64.7129 65.334 64.9766 65.2422 65.3242 65.2422C65.6641 65.2422 65.9199 65.3359 66.0918 65.5234C66.2637 65.707 66.3496 65.9316 66.3496 66.1973C66.3496 66.459 66.2637 66.6836 66.0918 66.8711C65.9199 67.0586 65.6641 67.1523 65.3242 67.1523C64.9766 67.1523 64.7129 67.0605 64.5332 66.877C64.3535 66.6895 64.2637 66.4629 64.2637 66.1973Z" fill="white" stroke=""/>
<defs>
<linearGradient id="paint0_linear_749_137" x1="65.2424" y1="1" x2="65.2424" y2="129.485" gradientUnits="userSpaceOnUse">
<stop stop-color="white"/>
<stop offset="0.49" stop-color="#919191"/>
<stop offset="0.905" stop-color="#E8E8E8"/>
</linearGradient>
<linearGradient id="paint1_linear_749_137" x1="107.083" y1="-7.29924e-08" x2="107.083" y2="44.1667" gradientUnits="userSpaceOnUse">
<stop stop-color="white"/>
<stop offset="0.49" stop-color="#919191"/>
<stop offset="0.905" stop-color="#E8E8E8"/>
</linearGradient>
</defs>
</svg>
