<svg width="83" height="83" viewBox="0 0 83 83" fill="none" xmlns="http://www.w3.org/2000/svg">
<path d="M56.1778 1.69534C55.6387 1.24605 54.9591 1 54.2573 1H10.0572C7.65511 1 5.35137 1.95424 3.6528 3.6528C1.95424 5.35137 1 7.65511 1 10.0572V73.4579C1 75.86 1.95424 78.1638 3.6528 79.8624C5.35137 81.5609 7.65511 82.5152 10.0572 82.5152H73.4579C75.86 82.5152 78.1638 81.5609 79.8624 79.8624C81.5609 78.1638 82.5152 75.86 82.5152 73.4579V25.0482C82.5152 24.1579 82.1197 23.3135 81.4357 22.7436L56.1778 1.69534Z" fill="#8282EB" fill-opacity="0.77" stroke="url(#paint0_linear_780_104)" stroke-width="0.8" stroke-linecap="round" stroke-linejoin="round"/>
<path d="M54.4941 1V19.6806C54.4941 22.1578 55.4782 24.5335 57.2298 26.2851C58.9815 28.0368 61.3572 29.0208 63.8344 29.0208H82.515" fill="#7472D3" fill-opacity="0.05"/>
<path d="M54.4941 1V19.6806C54.4941 22.1578 55.4782 24.5335 57.2298 26.2851C58.9815 28.0368 61.3572 29.0208 63.8344 29.0208H82.515" stroke="url(#paint1_linear_780_104)" stroke-width="0.8" stroke-linecap="round" stroke-linejoin="round"/>
<path d="M42.25 39.25V49.25M47.25 44.25H37.25" stroke="white" stroke-width="1.2" stroke-linecap="square" stroke-linejoin="round"/>
<path d="M42.25 55.5C48.4632 55.5 53.5 50.4632 53.5 44.25C53.5 38.0368 48.4632 33 42.25 33C36.0368 33 31 38.0368 31 44.25C31 50.4632 36.0368 55.5 42.25 55.5Z" fill="white" fill-opacity="0.25"/>
<defs>
<linearGradient id="paint0_linear_780_104" x1="41.7576" y1="1" x2="41.7576" y2="82.5152" gradientUnits="userSpaceOnUse">
<stop stop-color="white"/>
<stop offset="0.49" stop-color="#919191"/>
<stop offset="0.905" stop-color="#E8E8E8"/>
</linearGradient>
<linearGradient id="paint1_linear_780_104" x1="68.5046" y1="1" x2="68.5046" y2="29.0208" gradientUnits="userSpaceOnUse">
<stop stop-color="white"/>
<stop offset="0.49" stop-color="#919191"/>
<stop offset="0.905" stop-color="#E8E8E8"/>
</linearGradient>
</defs>
</svg>
