<svg width="34" height="34" viewBox="0 0 30 27" fill="none" xmlns="http://www.w3.org/2000/svg">
<mask id="path-1-outside-1_363_258" maskUnits="userSpaceOnUse" x="0" y="0" width="30" height="27" fill="black">
<rect fill="white" width="30" height="27"/>
<path d="M3.28933 26.5C2.63672 26.5 2.09225 26.2818 1.65592 25.8455C1.21958 25.4092 1.00094 24.8642 1 24.2107V8.95601C1 8.3034 1.21864 7.75893 1.65592 7.32259C2.09319 6.88626 2.63767 6.66762 3.28933 6.66668H7.47842L9.41358 4.56293C9.62136 4.33815 9.87306 4.16059 10.1687 4.03026C10.4624 3.89898 10.7707 3.83334 11.0937 3.83334H16.7462C16.9474 3.83334 17.116 3.90134 17.252 4.03734C17.388 4.17334 17.456 4.34193 17.456 4.54309C17.456 4.74426 17.388 4.91237 17.252 5.04743C17.116 5.18248 16.9479 5.25001 16.7477 5.25001H10.7127L8.10033 8.08334H3.28933C3.03433 8.08334 2.82514 8.16504 2.66175 8.32843C2.49836 8.49182 2.41667 8.70101 2.41667 8.95601V24.2121C2.41667 24.4662 2.49836 24.6749 2.66175 24.8383C2.82514 25.0017 3.03433 25.0833 3.28933 25.0833H24.2121C24.4661 25.0833 24.6749 25.0017 24.8382 24.8383C25.0016 24.6749 25.0833 24.4657 25.0833 24.2107V13.5857C25.0833 13.3855 25.1513 13.2173 25.2873 13.0813C25.4233 12.9453 25.5919 12.8773 25.7931 12.8773C25.9942 12.8773 26.1624 12.9453 26.2974 13.0813C26.4325 13.2173 26.5 13.3855 26.5 13.5857V24.2107C26.5 24.8633 26.2814 25.4078 25.8441 25.8441C25.4068 26.2804 24.8628 26.4991 24.2121 26.5H3.28933ZM25.0833 5.25001H22.9583C22.7572 5.25001 22.5891 5.18201 22.454 5.04601C22.3189 4.91001 22.2509 4.74143 22.25 4.54026C22.2491 4.33909 22.3171 4.17098 22.454 4.03593C22.5909 3.90087 22.7591 3.83334 22.9583 3.83334H25.0833V1.70834C25.0833 1.50718 25.1513 1.33907 25.2873 1.20401C25.4233 1.06895 25.5919 1.00095 25.7931 1.00001C25.9942 0.999065 26.1624 1.06707 26.2974 1.20401C26.4325 1.34095 26.5 1.50907 26.5 1.70834V3.83334H28.625C28.8262 3.83334 28.9943 3.90134 29.1293 4.03734C29.2644 4.17334 29.3324 4.34193 29.3333 4.54309C29.3343 4.74426 29.2663 4.91237 29.1293 5.04743C28.9924 5.18248 28.8243 5.25001 28.625 5.25001H26.5V7.37501C26.5 7.57618 26.432 7.74429 26.296 7.87934C26.16 8.0144 25.9914 8.0824 25.7903 8.08334C25.5891 8.08429 25.421 8.01629 25.2859 7.87934C25.1509 7.7424 25.0833 7.57429 25.0833 7.37501V5.25001ZM13.75 21.8675C15.2299 21.8675 16.4809 21.357 17.5027 20.3361C18.5246 19.3151 19.0356 18.0642 19.0356 16.5833C19.0356 15.1025 18.5246 13.8515 17.5027 12.8306C16.4809 11.8096 15.2299 11.2987 13.75 11.2978C12.2701 11.2968 11.0191 11.8078 9.99725 12.8306C8.97536 13.8534 8.46442 15.1043 8.46442 16.5833C8.46442 18.0623 8.97536 19.3133 9.99725 20.3361C11.0191 21.3589 12.2701 21.8699 13.75 21.8689M13.75 20.4523C12.6497 20.4523 11.7298 20.0825 10.9903 19.343C10.2508 18.6035 9.88108 17.6836 9.88108 16.5833C9.88108 15.4831 10.2508 14.5632 10.9903 13.8237C11.7298 13.0842 12.6497 12.7144 13.75 12.7144C14.8503 12.7144 15.7702 13.0842 16.5097 13.8237C17.2492 14.5632 17.6189 15.4831 17.6189 16.5833C17.6189 17.6836 17.2492 18.6035 16.5097 19.343C15.7702 20.0825 14.8503 20.4523 13.75 20.4523Z"/>
</mask>
<path d="M3.28933 26.5C2.63672 26.5 2.09225 26.2818 1.65592 25.8455C1.21958 25.4092 1.00094 24.8642 1 24.2107V8.95601C1 8.3034 1.21864 7.75893 1.65592 7.32259C2.09319 6.88626 2.63767 6.66762 3.28933 6.66668H7.47842L9.41358 4.56293C9.62136 4.33815 9.87306 4.16059 10.1687 4.03026C10.4624 3.89898 10.7707 3.83334 11.0937 3.83334H16.7462C16.9474 3.83334 17.116 3.90134 17.252 4.03734C17.388 4.17334 17.456 4.34193 17.456 4.54309C17.456 4.74426 17.388 4.91237 17.252 5.04743C17.116 5.18248 16.9479 5.25001 16.7477 5.25001H10.7127L8.10033 8.08334H3.28933C3.03433 8.08334 2.82514 8.16504 2.66175 8.32843C2.49836 8.49182 2.41667 8.70101 2.41667 8.95601V24.2121C2.41667 24.4662 2.49836 24.6749 2.66175 24.8383C2.82514 25.0017 3.03433 25.0833 3.28933 25.0833H24.2121C24.4661 25.0833 24.6749 25.0017 24.8382 24.8383C25.0016 24.6749 25.0833 24.4657 25.0833 24.2107V13.5857C25.0833 13.3855 25.1513 13.2173 25.2873 13.0813C25.4233 12.9453 25.5919 12.8773 25.7931 12.8773C25.9942 12.8773 26.1624 12.9453 26.2974 13.0813C26.4325 13.2173 26.5 13.3855 26.5 13.5857V24.2107C26.5 24.8633 26.2814 25.4078 25.8441 25.8441C25.4068 26.2804 24.8628 26.4991 24.2121 26.5H3.28933ZM25.0833 5.25001H22.9583C22.7572 5.25001 22.5891 5.18201 22.454 5.04601C22.3189 4.91001 22.2509 4.74143 22.25 4.54026C22.2491 4.33909 22.3171 4.17098 22.454 4.03593C22.5909 3.90087 22.7591 3.83334 22.9583 3.83334H25.0833V1.70834C25.0833 1.50718 25.1513 1.33907 25.2873 1.20401C25.4233 1.06895 25.5919 1.00095 25.7931 1.00001C25.9942 0.999065 26.1624 1.06707 26.2974 1.20401C26.4325 1.34095 26.5 1.50907 26.5 1.70834V3.83334H28.625C28.8262 3.83334 28.9943 3.90134 29.1293 4.03734C29.2644 4.17334 29.3324 4.34193 29.3333 4.54309C29.3343 4.74426 29.2663 4.91237 29.1293 5.04743C28.9924 5.18248 28.8243 5.25001 28.625 5.25001H26.5V7.37501C26.5 7.57618 26.432 7.74429 26.296 7.87934C26.16 8.0144 25.9914 8.0824 25.7903 8.08334C25.5891 8.08429 25.421 8.01629 25.2859 7.87934C25.1509 7.7424 25.0833 7.57429 25.0833 7.37501V5.25001ZM13.75 21.8675C15.2299 21.8675 16.4809 21.357 17.5027 20.3361C18.5246 19.3151 19.0356 18.0642 19.0356 16.5833C19.0356 15.1025 18.5246 13.8515 17.5027 12.8306C16.4809 11.8096 15.2299 11.2987 13.75 11.2978C12.2701 11.2968 11.0191 11.8078 9.99725 12.8306C8.97536 13.8534 8.46442 15.1043 8.46442 16.5833C8.46442 18.0623 8.97536 19.3133 9.99725 20.3361C11.0191 21.3589 12.2701 21.8699 13.75 21.8689M13.75 20.4523C12.6497 20.4523 11.7298 20.0825 10.9903 19.343C10.2508 18.6035 9.88108 17.6836 9.88108 16.5833C9.88108 15.4831 10.2508 14.5632 10.9903 13.8237C11.7298 13.0842 12.6497 12.7144 13.75 12.7144C14.8503 12.7144 15.7702 13.0842 16.5097 13.8237C17.2492 14.5632 17.6189 15.4831 17.6189 16.5833C17.6189 17.6836 17.2492 18.6035 16.5097 19.343C15.7702 20.0825 14.8503 20.4523 13.75 20.4523Z" fill="white"/>
<path d="M1 24.2107L0.9 24.2107L0.9 24.2108L1 24.2107ZM3.28933 6.66668V6.56668L3.28919 6.56668L3.28933 6.66668ZM7.47842 6.66668V6.76668H7.5223L7.55201 6.73438L7.47842 6.66668ZM9.41358 4.56293L9.34015 4.49505L9.33999 4.49523L9.41358 4.56293ZM10.1687 4.03026L10.209 4.12176L10.2095 4.12156L10.1687 4.03026ZM10.7127 5.25001V5.15001H10.6688L10.6391 5.18222L10.7127 5.25001ZM8.10033 8.08334V8.18334H8.14415L8.17385 8.15113L8.10033 8.08334ZM3.28933 25.0833L3.28933 24.9833L3.28933 25.0833ZM25.0833 24.2107H24.9833H25.0833ZM24.2121 26.5L24.2121 26.6L24.2122 26.6L24.2121 26.5ZM25.0833 5.25001H25.1833V5.15001H25.0833V5.25001ZM25.0833 3.83334V3.93334H25.1833V3.83334H25.0833ZM26.5 3.83334H26.4V3.93334H26.5V3.83334ZM26.5 5.25001V5.15001H26.4V5.25001H26.5ZM13.75 20.4523V20.3523V20.4523ZM3.28933 26.4C2.66155 26.4 2.14304 26.1912 1.72663 25.7748L1.58521 25.9162C2.04146 26.3725 2.6119 26.6 3.28933 26.6V26.4ZM1.72663 25.7748C1.31021 25.3584 1.10091 24.8394 1.1 24.2105L0.9 24.2108C0.90098 24.8891 1.12896 25.46 1.58521 25.9162L1.72663 25.7748ZM1.1 24.2107V8.95601H0.9V24.2107H1.1ZM1.1 8.95601C1.1 8.32829 1.30922 7.80981 1.72655 7.39338L1.58528 7.25181C1.12806 7.70804 0.9 8.27851 0.9 8.95601H1.1ZM1.72655 7.39338C2.14401 6.97683 2.66263 6.76758 3.28948 6.76668L3.28919 6.56668C2.6127 6.56766 2.04238 6.79569 1.58528 7.25181L1.72655 7.39338ZM3.28933 6.76668H7.47842V6.56668H3.28933V6.76668ZM7.55201 6.73438L9.48718 4.63063L9.33999 4.49523L7.40482 6.59898L7.55201 6.73438ZM9.48702 4.63081C9.68499 4.41664 9.92522 4.24688 10.209 4.12176L10.1283 3.93876C9.82089 4.07431 9.55773 4.25966 9.34015 4.49505L9.48702 4.63081ZM10.2095 4.12156C10.4903 3.99604 10.7848 3.93334 11.0937 3.93334V3.73334C10.7567 3.73334 10.4345 3.80192 10.1279 3.93896L10.2095 4.12156ZM11.0937 3.93334H16.7462V3.73334H11.0937V3.93334ZM16.7462 3.93334C16.9223 3.93334 17.065 3.99175 17.1813 4.10805L17.3227 3.96663C17.167 3.81094 16.9726 3.73334 16.7462 3.73334V3.93334ZM17.1813 4.10805C17.2976 4.22436 17.356 4.36709 17.356 4.54309H17.556C17.556 4.31676 17.4784 4.12232 17.3227 3.96663L17.1813 4.10805ZM17.356 4.54309C17.356 4.71909 17.2976 4.8612 17.1815 4.97647L17.3225 5.11838C17.4784 4.96354 17.556 4.76943 17.556 4.54309H17.356ZM17.1815 4.97647C17.0652 5.09202 16.9228 5.15001 16.7477 5.15001V5.35001C16.973 5.35001 17.1668 5.27295 17.3225 5.11838L17.1815 4.97647ZM16.7477 5.15001H10.7127V5.35001H16.7477V5.15001ZM10.6391 5.18222L8.02681 8.01556L8.17385 8.15113L10.7862 5.3178L10.6391 5.18222ZM8.10033 7.98334H3.28933V8.18334H8.10033V7.98334ZM3.28933 7.98334C3.01083 7.98334 2.77521 8.07354 2.59104 8.25772L2.73246 8.39914C2.87507 8.25653 3.05784 8.18334 3.28933 8.18334V7.98334ZM2.59104 8.25772C2.40687 8.44189 2.31667 8.6775 2.31667 8.95601H2.51667C2.51667 8.72452 2.58986 8.54174 2.73246 8.39914L2.59104 8.25772ZM2.31667 8.95601V24.2121H2.51667V8.95601H2.31667ZM2.31667 24.2121C2.31667 24.4898 2.40694 24.7249 2.59104 24.909L2.73246 24.7676C2.58978 24.6249 2.51667 24.4425 2.51667 24.2121H2.31667ZM2.59104 24.909C2.77521 25.0931 3.01083 25.1833 3.28933 25.1833L3.28933 24.9833C3.05784 24.9833 2.87507 24.9102 2.73246 24.7676L2.59104 24.909ZM3.28933 25.1833H24.2121V24.9833H3.28933V25.1833ZM24.2121 25.1833C24.4898 25.1833 24.7249 25.0931 24.909 24.909L24.7675 24.7676C24.6249 24.9102 24.4425 24.9833 24.2121 24.9833V25.1833ZM24.909 24.909C25.0931 24.7248 25.1833 24.4892 25.1833 24.2107H24.9833C24.9833 24.4422 24.9101 24.6249 24.7675 24.7676L24.909 24.909ZM25.1833 24.2107V13.5857H24.9833V24.2107H25.1833ZM25.1833 13.5857C25.1833 13.4108 25.2416 13.2685 25.358 13.1521L25.2166 13.0106C25.061 13.1662 24.9833 13.3601 24.9833 13.5857H25.1833ZM25.358 13.1521C25.4744 13.0357 25.6171 12.9773 25.7931 12.9773V12.7773C25.5668 12.7773 25.3723 12.8549 25.2166 13.0106L25.358 13.1521ZM25.7931 12.9773C25.9691 12.9773 26.1112 13.0357 26.2265 13.1518L26.3684 13.0109C26.2135 12.855 26.0194 12.7773 25.7931 12.7773V12.9773ZM26.2265 13.1518C26.342 13.2682 26.4 13.4105 26.4 13.5857H26.6C26.6 13.3604 26.5229 13.1665 26.3684 13.0109L26.2265 13.1518ZM26.4 13.5857V24.2107H26.6V13.5857H26.4ZM26.4 24.2107C26.4 24.8384 26.1908 25.3569 25.7734 25.7733L25.9147 25.9149C26.3719 25.4586 26.6 24.8882 26.6 24.2107H26.4ZM25.7734 25.7733C25.356 26.1899 24.8378 26.3991 24.2119 26.4L24.2122 26.6C24.8878 26.599 25.4576 26.371 25.9147 25.9149L25.7734 25.7733ZM24.2121 26.4H3.28933V26.6H24.2121V26.4ZM25.0833 5.15001H22.9583V5.35001H25.0833V5.15001ZM22.9583 5.15001C22.7823 5.15001 22.6402 5.09162 22.525 4.97555L22.383 5.11647C22.5379 5.2724 22.732 5.35001 22.9583 5.35001V5.15001ZM22.525 4.97555C22.4094 4.85916 22.3508 4.71616 22.35 4.53979L22.15 4.54073C22.1511 4.76669 22.2285 4.96086 22.383 5.11647L22.525 4.97555ZM22.35 4.53979C22.3492 4.36417 22.4074 4.22233 22.5242 4.10713L22.3838 3.96473C22.2267 4.11964 22.1489 4.31402 22.15 4.54073L22.35 4.53979ZM22.5242 4.10713C22.6417 3.99125 22.7843 3.93334 22.9583 3.93334V3.73334C22.7338 3.73334 22.5402 3.81049 22.3838 3.96473L22.5242 4.10713ZM22.9583 3.93334H25.0833V3.73334H22.9583V3.93334ZM25.1833 3.83334V1.70834H24.9833V3.83334H25.1833ZM25.1833 1.70834C25.1833 1.53235 25.2417 1.39024 25.3578 1.27497L25.2169 1.13305C25.0609 1.28789 24.9833 1.48201 24.9833 1.70834H25.1833ZM25.3578 1.27497C25.4742 1.15939 25.6172 1.10084 25.7936 1.10001L25.7926 0.900011C25.5667 0.901072 25.3725 0.978516 25.2169 1.13305L25.3578 1.27497ZM25.7936 1.10001C25.9692 1.09918 26.111 1.15742 26.2262 1.27423L26.3686 1.13379C26.2137 0.976714 26.0193 0.898946 25.7926 0.900011L25.7936 1.10001ZM26.2262 1.27423C26.3421 1.39172 26.4 1.53429 26.4 1.70834H26.6C26.6 1.48384 26.5229 1.29019 26.3686 1.13379L26.2262 1.27423ZM26.4 1.70834V3.83334H26.6V1.70834H26.4ZM26.5 3.93334H28.625V3.73334H26.5V3.93334ZM28.625 3.93334C28.801 3.93334 28.9431 3.99173 29.0584 4.10781L29.2003 3.96688C29.0454 3.81096 28.8513 3.73334 28.625 3.73334V3.93334ZM29.0584 4.10781C29.174 4.22419 29.2325 4.36719 29.2333 4.54356L29.4333 4.54262C29.4323 4.31666 29.3548 4.1225 29.2003 3.96688L29.0584 4.10781ZM29.2333 4.54356C29.2342 4.71919 29.1759 4.86103 29.0591 4.97623L29.1996 5.11863C29.3566 4.96372 29.4344 4.76933 29.4333 4.54262L29.2333 4.54356ZM29.0591 4.97623C28.9416 5.0921 28.7991 5.15001 28.625 5.15001V5.35001C28.8495 5.35001 29.0432 5.27287 29.1996 5.11863L29.0591 4.97623ZM28.625 5.15001H26.5V5.35001H28.625V5.15001ZM26.4 5.25001V7.37501H26.6V5.25001H26.4ZM26.4 7.37501C26.4 7.55101 26.3416 7.69312 26.2255 7.80839L26.3665 7.9503C26.5224 7.79546 26.6 7.60135 26.6 7.37501H26.4ZM26.2255 7.80839C26.1092 7.92396 25.9662 7.98252 25.7898 7.98334L25.7907 8.18334C26.0167 8.18228 26.2108 8.10484 26.3665 7.9503L26.2255 7.80839ZM25.7898 7.98334C25.6142 7.98417 25.4723 7.92594 25.3571 7.80913L25.2147 7.94956C25.3696 8.10664 25.564 8.18441 25.7907 8.18334L25.7898 7.98334ZM25.3571 7.80913C25.2412 7.69163 25.1833 7.54906 25.1833 7.37501H24.9833C24.9833 7.59951 25.0605 7.79317 25.2147 7.94956L25.3571 7.80913ZM25.1833 7.37501V5.25001H24.9833V7.37501H25.1833ZM13.75 21.9675C15.2557 21.9675 16.5323 21.447 17.5734 20.4068L17.4321 20.2654C16.4294 21.2671 15.2042 21.7675 13.75 21.7675V21.9675ZM17.5734 20.4068C18.6146 19.3666 19.1356 18.09 19.1356 16.5833H18.9356C18.9356 18.0384 18.4347 19.2637 17.4321 20.2654L17.5734 20.4068ZM19.1356 16.5833C19.1356 15.0767 18.6146 13.8001 17.5734 12.7598L17.4321 12.9013C18.4347 13.903 18.9356 15.1282 18.9356 16.5833H19.1356ZM17.5734 12.7598C16.5323 11.7197 15.2558 11.1987 13.7501 11.1978L13.7499 11.3978C15.2041 11.3987 16.4294 11.8996 17.4321 12.9013L17.5734 12.7598ZM13.7501 11.1978C12.2443 11.1968 10.9677 11.7178 9.92651 12.7599L10.068 12.9013C11.0706 11.8977 12.2958 11.3968 13.7499 11.3978L13.7501 11.1978ZM9.92651 12.7599C8.88541 13.802 8.36442 15.0785 8.36442 16.5833H8.56442C8.56442 15.1302 9.06531 13.9049 10.068 12.9013L9.92651 12.7599ZM8.36442 16.5833C8.36442 18.0882 8.88541 19.3647 9.92651 20.4068L10.068 20.2654C9.06531 19.2618 8.56442 18.0365 8.56442 16.5833H8.36442ZM9.92651 20.4068C10.9677 21.4489 12.2443 21.9699 13.7501 21.9689L13.7499 21.7689C12.2958 21.7699 11.0706 21.269 10.068 20.2654L9.92651 20.4068ZM13.75 20.3523C12.6747 20.3523 11.7807 19.992 11.061 19.2723L10.9196 19.4137C11.6789 20.173 12.6247 20.5523 13.75 20.5523V20.3523ZM11.061 19.2723C10.3414 18.5526 9.98108 17.6586 9.98108 16.5833H9.78108C9.78108 17.7086 10.1603 18.6544 10.9196 19.4137L11.061 19.2723ZM9.98108 16.5833C9.98108 15.5081 10.3414 14.6141 11.061 13.8944L10.9196 13.753C10.1603 14.5123 9.78108 15.4581 9.78108 16.5833H9.98108ZM11.061 13.8944C11.7807 13.1747 12.6747 12.8144 13.75 12.8144V12.6144C12.6247 12.6144 11.6789 12.9937 10.9196 13.753L11.061 13.8944ZM13.75 12.8144C14.8253 12.8144 15.7193 13.1747 16.439 13.8944L16.5804 13.753C15.8211 12.9937 14.8753 12.6144 13.75 12.6144V12.8144ZM16.439 13.8944C17.1586 14.6141 17.5189 15.5081 17.5189 16.5833H17.7189C17.7189 15.4581 17.3397 14.5123 16.5804 13.753L16.439 13.8944ZM17.5189 16.5833C17.5189 17.6586 17.1586 18.5526 16.439 19.2723L16.5804 19.4137C17.3397 18.6544 17.7189 17.7086 17.7189 16.5833H17.5189ZM16.439 19.2723C15.7193 19.992 14.8253 20.3523 13.75 20.3523V20.5523C14.8753 20.5523 15.8211 20.173 16.5804 19.4137L16.439 19.2723Z" fill="white" mask="url(#path-1-outside-1_363_258)"/>
</svg>
