<svg width="33" height="51" viewBox="0 0 53 51" fill="none" xmlns="http://www.w3.org/2000/svg">
<path d="M27.7106 50.5H27.7105H26.2778C25.8652 50.5 25.4696 50.3361 25.1778 50.0444C24.8861 49.7527 24.7222 49.357 24.7222 48.9444V43.7778C24.7222 42.9494 24.0507 42.2778 23.2222 42.2778H18.0556C17.643 42.2778 17.2473 42.1139 16.9556 41.8222C16.6639 41.5304 16.5 41.1348 16.5 40.7222V16.0556C16.5 15.643 16.6639 15.2473 16.9556 14.9556C17.2473 14.6639 17.643 14.5 18.0556 14.5H50.9444C51.357 14.5 51.7527 14.6639 52.0444 14.9556C52.3361 15.2473 52.5 15.643 52.5 16.0556V40.7222C52.5 41.1348 52.3361 41.5304 52.0444 41.8222C51.7527 42.1139 51.357 42.2778 50.9444 42.2778H40.9694C40.6733 42.2778 40.3838 42.3654 40.1374 42.5297L28.574 50.2386L28.5739 50.2387C28.3183 50.4091 28.0179 50.5001 27.7106 50.5ZM35.5556 25.8333H21.1111C20.2827 25.8333 19.6111 26.5049 19.6111 27.3333V29.4444C19.6111 30.2729 20.2827 30.9444 21.1111 30.9444H35.5556C36.384 30.9444 37.0556 30.2729 37.0556 29.4444V27.3333C37.0556 26.5049 36.384 25.8333 35.5556 25.8333ZM21.1111 39.1667H39.6667C40.4951 39.1667 41.1667 38.4951 41.1667 37.6667V35.5556C41.1667 34.7271 40.4951 34.0556 39.6667 34.0556H21.1111C20.2827 34.0556 19.6111 34.7271 19.6111 35.5556V37.6667C19.6111 38.4951 20.2827 39.1667 21.1111 39.1667ZM21.1111 22.7222H47.8889C48.7173 22.7222 49.3889 22.0507 49.3889 21.2222V19.1111C49.3889 18.2827 48.7173 17.6111 47.8889 17.6111H21.1111C20.2827 17.6111 19.6111 18.2827 19.6111 19.1111V21.2222C19.6111 22.0506 20.2827 22.7222 21.1111 22.7222Z" fill="#AFABFF" stroke="#F9F9F9"/>
<circle cx="15" cy="15" r="14.5" fill="#6D6BC8" stroke="#F0F0F0"/>
<path d="M16.26 10.48C16.1267 13.0933 16.06 15.1733 16.06 16.72C16.06 17.52 16.08 18.28 16.12 19C16.2267 19.08 16.4333 19.12 16.74 19.12L17.2 19.1C17.3867 19.0733 17.56 19.06 17.72 19.06C18.0667 19.06 18.3333 19.12 18.52 19.24C18.72 19.36 18.82 19.5933 18.82 19.94C18.82 20.2733 18.72 20.5333 18.52 20.72C18.3333 20.9067 17.94 21 17.34 21C16.8333 21 16.22 20.96 15.5 20.88C15.3267 20.8667 15.16 20.8533 15 20.84C14.84 20.8267 14.6933 20.82 14.56 20.82C13.8267 20.8333 13.28 20.86 12.92 20.9C12.56 20.94 12.1533 20.96 11.7 20.96C11.2867 20.96 11.08 20.6467 11.08 20.02C11.08 19.42 11.4667 19.12 12.24 19.12C12.36 19.12 12.5533 19.1333 12.82 19.16C13.0467 19.2 13.2867 19.22 13.54 19.22C13.6867 19.22 13.8067 19.2133 13.9 19.2C13.9133 18.3067 13.96 17.0067 14.04 15.3C14.12 13.3 14.16 11.82 14.16 10.86C14.0933 10.8733 13.86 10.9667 13.46 11.14C12.8467 11.4467 12.3933 11.6 12.1 11.6C11.94 11.6 11.7933 11.52 11.66 11.36C11.5267 11.1867 11.46 10.9867 11.46 10.76C11.46 10.5333 11.6 10.3133 11.88 10.1C12.16 9.88667 12.6133 9.60667 13.24 9.26C13.5867 9.08667 13.92 8.89333 14.24 8.68C14.32 8.62667 14.4333 8.57333 14.58 8.52C14.74 8.46667 14.86 8.44 14.94 8.44C15.2867 8.44 15.6 8.51333 15.88 8.66C16.1733 8.79333 16.32 8.97333 16.32 9.2L16.26 10.48Z" fill="white"/>
</svg>
