<svg width="33" height="51" viewBox="0 0 53 51" fill="none" xmlns="http://www.w3.org/2000/svg">
<path d="M28.7127 50.4467L28.849 50.6512L28.7126 50.4467C28.4159 50.6445 28.0672 50.7501 27.7106 50.75H26.2778C25.7989 50.75 25.3397 50.5598 25.0011 50.2212C24.6624 49.8826 24.4722 49.4233 24.4722 48.9444V43.7778C24.4722 43.0874 23.9126 42.5278 23.2222 42.5278H18.0556C17.5767 42.5278 17.1174 42.3376 16.7788 41.9989C16.4402 41.6603 16.25 41.2011 16.25 40.7222V16.0556C16.25 15.5767 16.4402 15.1174 16.7788 14.7788C17.1174 14.4402 17.5767 14.25 18.0556 14.25H50.9444C51.4233 14.25 51.8826 14.4402 52.2212 14.7788C52.5598 15.1174 52.75 15.5767 52.75 16.0556V40.7222C52.75 41.2011 52.5598 41.6603 52.2212 41.9989C51.8826 42.3376 51.4233 42.5278 50.9444 42.5278H40.9694C40.7227 42.5278 40.4814 42.6008 40.2761 42.7377L28.7127 50.4467ZM35.5556 26.0833H21.1111C20.4208 26.0833 19.8611 26.643 19.8611 27.3333V29.4444C19.8611 30.1348 20.4208 30.6944 21.1111 30.6944H35.5556C36.2459 30.6944 36.8056 30.1348 36.8056 29.4444V27.3333C36.8056 26.643 36.2459 26.0833 35.5556 26.0833ZM21.1111 38.9167H39.6667C40.357 38.9167 40.9167 38.357 40.9167 37.6667V35.5556C40.9167 34.8652 40.357 34.3056 39.6667 34.3056H21.1111C20.4208 34.3056 19.8611 34.8652 19.8611 35.5556V37.6667C19.8611 38.357 20.4208 38.9167 21.1111 38.9167ZM21.1111 22.4722H47.8889C48.5792 22.4722 49.1389 21.9126 49.1389 21.2222V19.1111C49.1389 18.4208 48.5792 17.8611 47.8889 17.8611H21.1111C20.4208 17.8611 19.8611 18.4208 19.8611 19.1111V21.2222C19.8611 21.9126 20.4208 22.4722 21.1111 22.4722Z" fill="#9893FF" stroke="#F9F9F9" stroke-width="0.5"/>
<circle cx="15" cy="15" r="14.5" fill="#6D6BC8" stroke="#F0F0F0"/>
<path d="M16.26 10.48C16.1267 13.0933 16.06 15.1733 16.06 16.72C16.06 17.52 16.08 18.28 16.12 19C16.2267 19.08 16.4333 19.12 16.74 19.12L17.2 19.1C17.3867 19.0733 17.56 19.06 17.72 19.06C18.0667 19.06 18.3333 19.12 18.52 19.24C18.72 19.36 18.82 19.5933 18.82 19.94C18.82 20.2733 18.72 20.5333 18.52 20.72C18.3333 20.9067 17.94 21 17.34 21C16.8333 21 16.22 20.96 15.5 20.88C15.3267 20.8667 15.16 20.8533 15 20.84C14.84 20.8267 14.6933 20.82 14.56 20.82C13.8267 20.8333 13.28 20.86 12.92 20.9C12.56 20.94 12.1533 20.96 11.7 20.96C11.2867 20.96 11.08 20.6467 11.08 20.02C11.08 19.42 11.4667 19.12 12.24 19.12C12.36 19.12 12.5533 19.1333 12.82 19.16C13.0467 19.2 13.2867 19.22 13.54 19.22C13.6867 19.22 13.8067 19.2133 13.9 19.2C13.9133 18.3067 13.96 17.0067 14.04 15.3C14.12 13.3 14.16 11.82 14.16 10.86C14.0933 10.8733 13.86 10.9667 13.46 11.14C12.8467 11.4467 12.3933 11.6 12.1 11.6C11.94 11.6 11.7933 11.52 11.66 11.36C11.5267 11.1867 11.46 10.9867 11.46 10.76C11.46 10.5333 11.6 10.3133 11.88 10.1C12.16 9.88667 12.6133 9.60667 13.24 9.26C13.5867 9.08667 13.92 8.89333 14.24 8.68C14.32 8.62667 14.4333 8.57333 14.58 8.52C14.74 8.46667 14.86 8.44 14.94 8.44C15.2867 8.44 15.6 8.51333 15.88 8.66C16.1733 8.79333 16.32 8.97333 16.32 9.2L16.26 10.48Z" fill="white"/>
</svg>
