<svg width="45" height="54" viewBox="0 0 60 54" fill="2c2251b2" xmlns="http://www.w3.org/2000/svg">
<path d="M54.5455 45.4H54.0455V45.9V48.6C54.0455 51.3161 51.8468 53.5 49.0909 53.5H10.9091C9.59345 53.5 8.3327 52.9825 7.40392 52.0631C6.47531 51.1437 5.95455 49.8979 5.95455 48.6V45.9V45.4H5.45455H2.72727C1.49867 45.4 0.5 44.4041 0.5 43.2V35.1C0.5 33.8959 1.49867 32.9 2.72727 32.9H5.45455H5.95455V32.4C5.95455 22.2319 14.2623 14 24.5455 14H27.2727H27.7727V13.5V10.071V9.77819L27.5174 9.63493C26.0344 8.803 25.0455 7.21228 25.0455 5.4C25.0455 2.71087 27.2714 0.5 30 0.5C32.7286 0.5 34.9545 2.71087 34.9545 5.4C34.9545 7.21228 33.9656 8.803 32.4826 9.63493L32.2273 9.77819V10.071V13.5V14H32.7273H35.4545C45.7377 14 54.0455 22.2319 54.0455 32.4V32.9H54.5455H57.2727C58.5013 32.9 59.5 33.8959 59.5 35.1V43.2C59.5 44.4041 58.5013 45.4 57.2727 45.4H54.5455ZM55.0455 37.8V37.3H54.5455H49.5909V32.4C49.5909 24.6671 43.2532 18.4 35.4545 18.4H24.5455C16.7468 18.4 10.4091 24.6671 10.4091 32.4V37.3H5.45455H4.95455V37.8V40.5V41H5.45455H10.4091V48.6V49.1H10.9091H49.0909H49.5909V48.6V41H54.5455H55.0455V40.5V37.8ZM25.4091 36.45C25.4091 37.0673 25.2945 37.6378 25.0789 38.1728C24.0027 36.8323 22.338 35.95 20.4545 35.95C18.5758 35.95 16.9147 36.8279 15.8382 38.1628C15.6236 37.6253 15.5 37.0579 15.5 36.45C15.5 33.7609 17.7259 31.55 20.4545 31.55C23.1832 31.55 25.4091 33.7609 25.4091 36.45ZM34.5909 36.45C34.5909 33.7609 36.8168 31.55 39.5455 31.55C40.8611 31.55 42.1218 32.0675 43.0506 32.9869C43.9792 33.9063 44.5 35.1521 44.5 36.45C44.5 37.0673 44.3854 37.6378 44.1698 38.1728C43.0936 36.8323 41.4289 35.95 39.5455 35.95C37.6667 35.95 36.0056 36.8279 34.9291 38.1628C34.7145 37.6253 34.5909 37.0579 34.5909 36.45Z" fill="#B9B1EA" stroke="#F2F2F2"/>
</svg>
