<svg width="25" height="45" viewBox="0 0 67 119" fill="none" xmlns="http://www.w3.org/2000/svg">
<path d="M17.4135 60.5645L65.9328 108.73C66.1298 108.925 66.1298 109.244 65.9328 109.439L57.3638 117.946C57.1689 118.139 56.8543 118.139 56.6593 117.946L2.42054 64.103C2.42052 64.1029 2.4205 64.1029 2.42048 64.1029C1.19037 62.8814 0.5 61.2256 0.5 59.5C0.5 57.7744 1.19037 56.1186 2.42048 54.8971C2.4205 54.8971 2.42052 54.8971 2.42054 54.897L56.6593 1.05421C56.8543 0.860676 57.1689 0.860677 57.3638 1.05421L65.9328 9.56065C66.1298 9.7562 66.1298 10.0748 65.9328 10.2703L17.4135 58.4355C16.8225 59.0221 16.8225 59.9779 17.4135 60.5645Z" fill="white" fill-opacity="0.58" stroke="#F4F4F4"/>
</svg>
