<svg width="28" height="30" viewBox="0 0 28 30" fill="none" xmlns="http://www.w3.org/2000/svg">
<path d="M7.5014 17.123V27.6307C7.5014 28.2591 7.25302 28.8617 6.81089 29.306C6.36876 29.7503 5.7691 29.9999 5.14384 29.9999H2.37293C2.06204 30.002 1.75383 29.9422 1.46602 29.824C1.17822 29.7059 0.916514 29.5317 0.695969 29.3115C0.475425 29.0913 0.300398 28.8294 0.180962 28.541C0.0615274 28.2525 4.348e-05 27.9432 5.00345e-05 27.6307V17.123C-0.00198377 16.8093 0.0580039 16.4983 0.176532 16.2081C0.29506 15.9178 0.469768 15.6542 0.690516 15.4323C0.911264 15.2105 1.17366 15.0349 1.46247 14.9158C1.75127 14.7967 2.06075 14.7364 2.37293 14.7384H5.14384C5.45473 14.7384 5.76255 14.8002 6.04959 14.9202C6.33662 15.0403 6.5972 15.2162 6.81632 15.4378C7.03545 15.6594 7.20878 15.9224 7.32636 16.2117C7.44393 16.5009 7.50342 16.8106 7.5014 17.123ZM17.7584 2.38461V27.6307C17.7584 27.9432 17.6969 28.2525 17.5774 28.541C17.458 28.8294 17.283 29.0913 17.0624 29.3115C16.8419 29.5317 16.5802 29.7059 16.2924 29.824C16.0046 29.9422 15.6964 30.002 15.3855 29.9999H12.6146C11.9879 30 11.3866 29.7508 10.9421 29.307C10.4975 28.8631 10.2457 28.2605 10.2417 27.6307V2.38461C10.2457 1.75342 10.497 1.14922 10.9411 0.702893C11.3853 0.256563 11.9865 0.00403331 12.6146 0H15.3855C16.0148 0 16.6184 0.251235 17.0634 0.698437C17.5084 1.14564 17.7584 1.75217 17.7584 2.38461ZM28 10.3538V27.6307C28 28.2591 27.7516 28.8617 27.3095 29.306C26.8674 29.7503 26.2677 29.9999 25.6424 29.9999H22.8715C22.5606 30.002 22.2524 29.9422 21.9646 29.824C21.6768 29.7059 21.4151 29.5317 21.1946 29.3115C20.974 29.0913 20.799 28.8294 20.6796 28.541C20.5601 28.2525 20.4986 27.9432 20.4986 27.6307V10.3538C20.4986 10.0407 20.56 9.73059 20.6793 9.44128C20.7985 9.15196 20.9733 8.88909 21.1936 8.66765C21.414 8.44622 21.6756 8.27057 21.9635 8.15073C22.2514 8.0309 22.5599 7.96922 22.8715 7.96922H25.7037C26.3196 7.9892 26.9037 8.24922 27.3323 8.69428C27.7609 9.13933 28.0003 9.73449 28 10.3538Z" fill="#A3A3FF"/>
<path d="M7.0014 17.1198V17.123V27.6307C7.0014 28.1273 6.8051 28.603 6.45646 28.9533C6.10791 29.3036 5.63569 29.4999 5.14384 29.4999L2.37293 29.4999L2.36966 29.5C2.12506 29.5016 1.88249 29.4545 1.65592 29.3615C1.42933 29.2685 1.22313 29.1313 1.04925 28.9577C0.875364 28.784 0.737232 28.5774 0.642929 28.3497C0.548624 28.1219 0.500045 27.8776 0.50005 27.6307L0.500061 17.123L0.50004 17.1198C0.498433 16.8719 0.54583 16.6263 0.63942 16.3971C0.733008 16.168 0.87089 15.9599 1.04494 15.785C1.21898 15.6101 1.42573 15.4718 1.6531 15.378C1.88048 15.2842 2.12403 15.2368 2.36965 15.2384V15.2384H2.37293H5.14384C5.38846 15.2384 5.63072 15.287 5.85669 15.3815C6.08268 15.476 6.28799 15.6146 6.46076 15.7893C6.63353 15.9641 6.77033 16.1716 6.86317 16.4C6.956 16.6283 7.00301 16.873 7.0014 17.1198ZM15.3887 29.4999H15.3855H12.6146C12.1207 29.5 11.6464 29.3037 11.2954 28.9531C10.9446 28.6029 10.7453 28.127 10.7417 27.629V2.38624C10.7453 1.88632 10.9445 1.40837 11.2956 1.05557C11.6465 0.702856 12.121 0.503579 12.6163 0.5H15.3855C15.8814 0.5 16.3575 0.697954 16.7089 1.05112C17.0604 1.40436 17.2584 1.88399 17.2584 2.38461V27.6307C17.2584 27.8776 17.2098 28.1219 17.1155 28.3497C17.0212 28.5774 16.883 28.784 16.7092 28.9577C16.5353 29.1313 16.3291 29.2685 16.1025 29.3615C15.8759 29.4545 15.6333 29.5016 15.3887 29.4999ZM27.5 10.3536V10.3538V27.6307C27.5 28.1273 27.3037 28.603 26.9551 28.9533C26.6065 29.3036 26.1343 29.4999 25.6424 29.4999L22.8715 29.4999L22.8683 29.5C22.6237 29.5016 22.3811 29.4545 22.1545 29.3615C21.9279 29.2685 21.7217 29.1313 21.5478 28.9577C21.374 28.784 21.2358 28.5774 21.1415 28.3497C21.0472 28.1219 20.9986 27.8776 20.9986 27.6307V10.3538C20.9986 10.106 21.0472 9.86065 21.1415 9.63181C21.2359 9.40298 21.374 9.19522 21.5481 9.02033C21.7221 8.84545 21.9286 8.70685 22.1556 8.61234C22.3827 8.51783 22.6259 8.46922 22.8715 8.46922H25.6951C26.1777 8.48685 26.6354 8.69145 26.9721 9.0411C27.3107 9.39267 27.5003 9.86332 27.5 10.3536Z" stroke="white" stroke-opacity="0.35"/>
</svg>
