<svg width="18" height="33" viewBox="0 0 90 90" fill="none" xmlns="http://www.w3.org/2000/svg">
<path d="M60.5911 29.4097L60.5907 29.4093C59.6682 28.4867 58.1728 28.4867 57.2502 29.4093L45.3182 41.3413L45 41.6595L44.6818 41.3413L32.7498 29.4093C31.8273 28.4869 30.3318 28.4866 29.4077 29.4095C28.4853 30.3321 28.4854 31.8273 29.4079 32.7498L41.3399 44.6818L41.6581 45L41.3399 45.3182L29.4079 57.2502L29.4077 57.2504C28.4854 58.1715 28.4854 59.6695 29.4077 60.5906L29.4079 60.5908C30.3303 61.5132 31.8256 61.5135 32.7498 60.5908L60.5911 29.4097ZM60.5911 29.4097C61.5143 30.3305 61.5149 31.8256 60.5907 32.7498L48.6587 44.6818L48.3405 45L48.6587 45.3182L60.5907 57.2502L60.5909 57.2504C61.5132 58.1715 61.5132 59.6695 60.5909 60.5906L60.5907 60.5908C59.6682 61.5133 58.1728 61.5133 57.2502 60.5908L45.3182 48.6588L45 48.3406L44.6818 48.6588L32.75 60.5906L60.5911 29.4097ZM0.45 45C0.45 20.3959 20.3959 0.45 45 0.45C69.6055 0.45 89.55 20.3959 89.55 45C89.55 69.6055 69.6055 89.55 45 89.55C20.3959 89.55 0.45 69.6055 0.45 45ZM5.175 44.9998C5.175 66.9583 23.0391 84.9136 45 84.9136C66.9609 84.9136 84.825 66.958 84.825 44.9998C84.825 23.0403 66.9596 5.17482 45 5.17482C23.0404 5.17482 5.175 23.0402 5.175 44.9998Z" fill="#CCC4FF" stroke="#F3F3F3" stroke-width="0.9"/>
</svg>
