<svg width="79" height="66" viewBox="0 0 79 66" fill="none" xmlns="http://www.w3.org/2000/svg">
<path d="M72.1827 55.0447H53.494C52.8863 55.0447 52.3785 54.8415 51.9705 54.435C51.5626 54.0285 51.3571 53.5246 51.3543 52.9234C51.3514 52.3221 51.5568 51.8196 51.9705 51.416C52.3842 51.0123 52.8921 50.8105 53.494 50.8105H72.1827L64.792 43.3329C64.3926 42.9377 64.2071 42.4578 64.2356 41.8932C64.2642 41.323 64.4853 40.8276 64.899 40.407C65.2813 40.0203 65.7677 39.827 66.3583 39.827C66.9489 39.827 67.4453 40.0245 67.8476 40.4197L77.9858 50.531C78.3424 50.8867 78.5991 51.2678 78.7561 51.6743C78.9187 52.0779 79 52.4957 79 52.9276C79 53.3595 78.9201 53.7787 78.7603 54.1852C78.6006 54.5916 78.3424 54.9699 77.9858 55.3199L67.7663 65.4354C67.3668 65.8306 66.879 66.0183 66.3027 65.9986C65.7263 65.9788 65.2271 65.7586 64.8048 65.3381C64.414 64.9513 64.2185 64.4842 64.2185 63.9365C64.2185 63.3889 64.4182 62.9161 64.8177 62.5181L72.1827 55.0447ZM6.91571 55.0447C5.01275 55.0447 3.3851 54.3743 2.03277 53.0334C0.680444 51.6926 0.00285302 50.0836 0 48.2064V6.83824C0 4.95826 0.677591 3.34926 2.03277 2.01125C3.38796 0.673239 5.01417 0.0028228 6.91143 0H61.5609C63.4611 0 65.0873 0.670416 66.4396 2.01125C67.7919 3.35208 68.4695 4.96108 68.4724 6.83824V27.5943C68.4724 28.1278 68.2498 28.6148 67.8048 29.0551C67.3597 29.4955 66.8576 29.7143 66.2984 29.7114C65.6992 29.7114 65.2 29.5096 64.8005 29.1059C64.3954 28.6995 64.1928 28.1956 64.1928 27.5943V7.39716L33.8082 29.1525L4.27952 7.41833V48.2064C4.27952 48.9658 4.52631 49.5896 5.01988 50.078C5.51345 50.5663 6.1454 50.8105 6.91571 50.8105H40.7282C41.3359 50.8105 41.8452 51.0137 42.256 51.4202C42.6668 51.8267 42.8708 52.3306 42.868 52.9318C42.8651 53.5331 42.6611 54.0355 42.256 54.4392C41.8509 54.8429 41.3416 55.0447 40.7282 55.0447H6.91571ZM7.02698 4.23421L33.8082 23.991L61.394 4.23421H7.02698Z" fill="url(#paint0_radial_572_117)"/>
<defs>
<radialGradient id="paint0_radial_572_117" cx="0" cy="0" r="1" gradientUnits="userSpaceOnUse" gradientTransform="translate(39.5 33) rotate(21.4354) scale(42.4352 50.2827)">
<stop offset="0.375" stop-color="#A2A2FF"/>
<stop offset="1" stop-color="#8B80ED" stop-opacity="0.568627"/>
</radialGradient>
</defs>
</svg>
