<svg width="78" height="78" viewBox="0 0 78 78" fill="none" xmlns="http://www.w3.org/2000/svg">
<rect width="78" height="78" rx="20" fill="url(#paint0_linear_161_453)" fill-opacity="0.24"/>
<rect x="0.35" y="0.35" width="77.3" height="77.3" rx="19.65" stroke="white" stroke-opacity="0.72" stroke-width="0.7"/>
<path d="M16.7031 28.8359C16.7031 28.8359 19.1992 28.8359 24.1914 28.8359C24.3477 28.8359 24.4961 28.8594 24.6367 28.9062C25.0664 29.0469 25.2812 29.3398 25.2812 29.7852C25.2812 29.9102 25.2539 30.0273 25.1992 30.1367C25.043 30.4727 24.7305 30.6758 24.2617 30.7461H17.5352L16.7148 37.168H21.5898C21.7773 37.168 21.9492 37.2031 22.1055 37.2734C22.4805 37.4453 22.668 37.7344 22.668 38.1406C22.668 38.25 22.6445 38.3594 22.5977 38.4688C22.457 38.8047 22.1445 39.0117 21.6602 39.0898H16.4805L15.5547 46.0391C15.5547 46.0469 15.5508 46.0625 15.543 46.0859C15.457 46.6953 15.1445 47 14.6055 47C14.418 47 14.2461 46.9531 14.0898 46.8594C13.7852 46.6719 13.6328 46.3867 13.6328 46.0039C13.6328 45.3945 14.1719 41.2344 15.25 33.5234C15.5469 31.4062 15.7227 30.1406 15.7773 29.7266C15.7852 29.6797 15.793 29.6328 15.8008 29.5859C15.9102 29.0859 16.2109 28.8359 16.7031 28.8359ZM23.8492 45.9453C23.8492 45.7422 23.9 45.5547 24.0016 45.3828C24.2125 45.0391 24.5133 44.8672 24.9039 44.8672C25.107 44.8672 25.2945 44.9219 25.4664 45.0312C25.8102 45.2344 25.982 45.5391 25.982 45.9453C25.982 46.1406 25.9273 46.3242 25.818 46.4961C25.607 46.832 25.3023 47 24.9039 47C24.7086 47 24.5211 46.9453 24.3414 46.8359C24.0133 46.625 23.8492 46.3281 23.8492 45.9453ZM37.4148 29.3047C37.4539 29.3906 37.493 29.4961 37.532 29.6211C37.7195 30.2617 38.7547 35.6562 40.6375 45.8047C40.6609 45.8828 40.6727 45.9609 40.6727 46.0391C40.6727 46.2031 40.6297 46.3633 40.5438 46.5195C40.3563 46.8398 40.0945 47 39.7586 47C39.7117 47 39.6609 46.9961 39.6063 46.9883C39.2313 46.9258 38.9891 46.7109 38.8797 46.3438L37.825 40.9883H32.4344L29.9031 46.3672C29.8719 46.4219 29.8328 46.4766 29.7859 46.5312C29.5438 46.8438 29.2781 47 28.9891 47C28.8094 47 28.6414 46.9492 28.4852 46.8477C28.2039 46.6523 28.0633 46.3906 28.0633 46.0625C28.0633 45.9688 28.0828 45.875 28.1219 45.7812C28.2859 45.4062 28.5555 44.8164 28.9305 44.0117C32.6805 35.8086 34.9227 30.9688 35.657 29.4922C35.868 29.0625 36.1688 28.8438 36.5594 28.8359C36.9344 28.8438 37.2195 29 37.4148 29.3047ZM36.2313 32.9141L33.325 39.0312H37.4266L36.2313 32.9141ZM42.4164 45.9453C42.4164 45.7422 42.4672 45.5547 42.5688 45.3828C42.7797 45.0391 43.0805 44.8672 43.4711 44.8672C43.6742 44.8672 43.8617 44.9219 44.0336 45.0312C44.3773 45.2344 44.5492 45.5391 44.5492 45.9453C44.5492 46.1406 44.4945 46.3242 44.3852 46.4961C44.1742 46.832 43.8695 47 43.4711 47C43.2758 47 43.0883 46.9453 42.9086 46.8359C42.5805 46.625 42.4164 46.3281 42.4164 45.9453ZM59.9781 46.7656C60.1031 46.7656 60.2203 46.7852 60.3297 46.8242C60.7203 46.9648 60.9156 47.2695 60.9156 47.7383C60.9078 48.2852 60.5328 48.7461 59.7906 49.1211C59.1891 49.418 58.607 49.5664 58.0445 49.5664C57.3805 49.5664 56.7672 49.3672 56.2047 48.9688C55.4469 48.4297 54.9391 47.668 54.6813 46.6836C54.1813 46.8789 53.6578 46.9766 53.1109 46.9766C52.9469 46.9766 52.7867 46.9648 52.6305 46.9414C51.4039 46.7852 50.3922 46.0742 49.5953 44.8086C48.7203 43.418 48.2828 41.6641 48.2828 39.5469C48.2828 38.2812 48.4664 37 48.8336 35.7031C49.4039 33.6953 50.2789 32.0312 51.4586 30.7109C52.6773 29.3516 53.9625 28.6719 55.3141 28.6719C55.4703 28.6719 55.6305 28.6836 55.7945 28.707C57.0289 28.8633 58.0445 29.5742 58.8414 30.8398C59.7164 32.2227 60.1539 33.9648 60.1539 36.0664C60.1539 37.6445 59.9039 39.1914 59.4039 40.707C58.7477 42.707 57.7984 44.2852 56.5563 45.4414C56.5797 45.6914 56.6109 45.9141 56.65 46.1094C56.8297 47.0781 57.275 47.5625 57.9859 47.5625C58.2438 47.5547 58.5914 47.418 59.0289 47.1523C59.4195 46.8945 59.7359 46.7656 59.9781 46.7656ZM50.2398 39.043C50.2555 40.2773 50.3883 41.3359 50.6383 42.2188C50.7477 42.125 50.8727 42.0352 51.0133 41.9492C51.6539 41.5586 52.3375 41.3633 53.0641 41.3633C53.3297 41.3633 53.5953 41.3906 53.8609 41.4453C54.8297 41.6641 55.5523 42.2148 56.0289 43.0977C56.3961 42.5664 56.732 41.9648 57.0367 41.293C57.818 39.5664 58.2086 37.875 58.2086 36.2188C58.2086 34.6484 57.943 33.3398 57.4117 32.293C56.8414 31.1836 56.0836 30.6289 55.1383 30.6289C54.7008 30.6289 54.2398 30.8047 53.7555 31.1562C52.8805 31.7969 52.1031 32.8281 51.4234 34.25C50.6344 35.8984 50.2398 37.4961 50.2398 39.043ZM53.3102 45.0664C53.6695 45.0664 54.0523 44.9414 54.4586 44.6914C54.3102 43.8711 53.8609 43.4531 53.1109 43.4375C53.0563 43.4375 52.9938 43.4414 52.9234 43.4492C52.4469 43.5195 51.9781 43.7344 51.5172 44.0938C52.0094 44.7344 52.607 45.0586 53.3102 45.0664ZM61.9914 45.9453C61.9914 45.7422 62.0422 45.5547 62.1437 45.3828C62.3547 45.0391 62.6555 44.8672 63.0461 44.8672C63.2492 44.8672 63.4367 44.9219 63.6086 45.0312C63.9523 45.2344 64.1242 45.5391 64.1242 45.9453C64.1242 46.1406 64.0695 46.3242 63.9602 46.4961C63.7492 46.832 63.4445 47 63.0461 47C62.8508 47 62.6633 46.9453 62.4836 46.8359C62.1555 46.625 61.9914 46.3281 61.9914 45.9453Z" fill="white"/>
<defs>
<linearGradient id="paint0_linear_161_453" x1="15.9095" y1="33.9643" x2="59.3688" y2="55.6366" gradientUnits="userSpaceOnUse">
<stop stop-color="#675E99"/>
<stop offset="1" stop-color="#0B0BFF" stop-opacity="0.82"/>
</linearGradient>
</defs>
</svg>
