<svg width="14" height="14" viewBox="0 0 14 14" fill="none" xmlns="http://www.w3.org/2000/svg">
<path d="M7 14C3.12941 14 0 10.8706 0 7C0 3.12941 3.12941 0 7 0C10.8706 0 14 3.12941 14 7C14 10.8706 10.8706 14 7 14ZM7 0.823529C3.58235 0.823529 0.823529 3.58235 0.823529 7C0.823529 10.4176 3.58235 13.1765 7 13.1765C10.4176 13.1765 13.1765 10.4176 13.1765 7C13.1765 3.58235 10.4176 0.823529 7 0.823529Z" fill="#E3E3E3"/>
<path d="M7.2884 9.1999C7.13101 9.36368 6.86899 9.36368 6.71159 9.1999L4.21194 6.59891C4.09655 6.47884 4.10492 6.28669 4.23032 6.17711C4.34479 6.07707 4.5169 6.08172 4.62581 6.18779L6.72092 8.22821C6.87623 8.37946 7.12377 8.37946 7.27908 8.22821L9.37419 6.18779C9.4831 6.08172 9.65521 6.07707 9.76968 6.17711C9.89508 6.28669 9.90345 6.47884 9.78806 6.59891L7.2884 9.1999Z" fill="#DCDCDC"/>
</svg>
