<svg width="23" height="27" viewBox="0 0 23 27" fill="none" xmlns="http://www.w3.org/2000/svg">
<path d="M22.8337 13.1324L12.0122 1.02021C11.877 0.869816 11.6942 0.7854 11.5036 0.7854C11.313 0.7854 11.1302 0.869816 10.995 1.02021L0.173474 13.1324C0.055284 13.2869 -0.00647515 13.4856 0.000538033 13.6888C0.00755121 13.8921 0.0828202 14.0848 0.211304 14.2286C0.339787 14.3725 0.512022 14.4567 0.69359 14.4646C0.875158 14.4724 1.05269 14.4033 1.1907 14.271L11.5 2.73207L21.8093 14.2791C21.9473 14.4114 22.1248 14.4805 22.3064 14.4726C22.488 14.4648 22.6602 14.3805 22.7887 14.2367C22.9172 14.0929 22.9924 13.9001 22.9995 13.6969C23.0065 13.4937 22.9447 13.295 22.8265 13.1405L22.8337 13.1324Z" fill="white"/>
<path d="M18.7143 25.0105H15.1072V16.9357H7.89282V25.0105H4.28564V13.7057L2.84277 15.3207V25.0105C2.84277 25.4388 2.99479 25.8496 3.26538 26.1524C3.53597 26.4553 3.90297 26.6255 4.28564 26.6255H9.33569V18.5506H13.6643V26.6255H18.7143C19.097 26.6255 19.464 26.4553 19.7346 26.1524C20.0052 25.8496 20.1572 25.4388 20.1572 25.0105V15.1269L18.7143 13.5119V25.0105Z" fill="white"/>
</svg>
