<svg width="20" height="22" viewBox="0 0 20 22" fill="none" xmlns="http://www.w3.org/2000/svg">
<path fill-rule="evenodd" clip-rule="evenodd" d="M10.133 14.9333C10.3345 14.9333 10.5278 14.8666 10.6703 14.7478C10.8128 14.6291 10.8928 14.468 10.8928 14.3001V9.49632L12.6343 10.949C12.777 11.0679 12.9705 11.1347 13.1722 11.1347C13.374 11.1347 13.5675 11.0679 13.7102 10.949C13.8529 10.8301 13.933 10.6688 13.933 10.5006C13.933 10.3325 13.8529 10.1712 13.7102 10.0523L10.671 7.51935C10.6004 7.46038 10.5165 7.41359 10.4242 7.38167C10.3319 7.34974 10.2329 7.33331 10.133 7.33331C10.0331 7.33331 9.93411 7.34974 9.8418 7.38167C9.74949 7.41359 9.66564 7.46038 9.59506 7.51935L6.55583 10.0523C6.41316 10.1712 6.33301 10.3325 6.33301 10.5006C6.33301 10.6688 6.41316 10.8301 6.55583 10.949C6.6985 11.0679 6.89201 11.1347 7.09378 11.1347C7.29554 11.1347 7.48905 11.0679 7.63172 10.949L9.3732 9.49632V14.3001C9.3732 14.468 9.45325 14.6291 9.59574 14.7478C9.73823 14.8666 9.93149 14.9333 10.133 14.9333Z" fill="#6D6BC8"/>
<path d="M1.26562 17.3167H1.11562V17.4667V18.7333C1.11562 19.445 1.39833 20.1275 1.90156 20.6307C2.40478 21.134 3.08729 21.4167 3.79896 21.4167H16.4656C17.1773 21.4167 17.8598 21.134 18.363 20.6307C18.8662 20.1275 19.149 19.445 19.149 18.7333V3.53333C19.149 2.82167 18.8663 2.13915 18.363 1.63593C17.8598 1.13271 17.1773 0.85 16.4656 0.85H3.79896C3.08729 0.85 2.40478 1.13271 1.90156 1.63593C1.39833 2.13915 1.11562 2.82167 1.11562 3.53333V4.8V4.95H1.26562H2.53229H2.68229V4.8V3.53333C2.68229 3.23717 2.79994 2.95315 3.00936 2.74373C3.21877 2.53432 3.5028 2.41667 3.79896 2.41667H16.4656C16.7618 2.41667 17.0458 2.53432 17.2552 2.74373C17.4646 2.95315 17.5823 3.23717 17.5823 3.53333V18.7333C17.5823 19.0295 17.4646 19.3135 17.2552 19.5229C17.0458 19.7324 16.7618 19.85 16.4656 19.85H3.79896C3.5028 19.85 3.21877 19.7324 3.00936 19.5229C2.79994 19.3135 2.68229 19.0295 2.68229 18.7333V17.4667V17.3167H2.53229H1.26562Z" fill="#6D6BC8" stroke="#6D6BC8" stroke-width="0.3"/>
<path d="M1.26667 7.33332V6.69998C1.26667 6.53201 1.33339 6.37092 1.45217 6.25215C1.57094 6.13338 1.73203 6.06665 1.9 6.06665C2.06797 6.06665 2.22906 6.13338 2.34783 6.25215C2.46661 6.37092 2.53333 6.53201 2.53333 6.69998V7.33332H3.16667C3.33464 7.33332 3.49573 7.40004 3.6145 7.51882C3.73327 7.63759 3.8 7.79868 3.8 7.96665C3.8 8.13462 3.73327 8.29571 3.6145 8.41448C3.49573 8.53326 3.33464 8.59998 3.16667 8.59998H0.633333C0.465363 8.59998 0.304272 8.53326 0.185499 8.41448C0.066726 8.29571 0 8.13462 0 7.96665C0 7.79868 0.066726 7.63759 0.185499 7.51882C0.304272 7.40004 0.465363 7.33332 0.633333 7.33332H1.26667ZM1.26667 11.1333V10.5C1.26667 10.332 1.33339 10.1709 1.45217 10.0521C1.57094 9.93338 1.73203 9.86665 1.9 9.86665C2.06797 9.86665 2.22906 9.93338 2.34783 10.0521C2.46661 10.1709 2.53333 10.332 2.53333 10.5V11.1333H3.16667C3.33464 11.1333 3.49573 11.2 3.6145 11.3188C3.73327 11.4376 3.8 11.5987 3.8 11.7667C3.8 11.9346 3.73327 12.0957 3.6145 12.2145C3.49573 12.3333 3.33464 12.4 3.16667 12.4H0.633333C0.465363 12.4 0.304272 12.3333 0.185499 12.2145C0.066726 12.0957 0 11.9346 0 11.7667C0 11.5987 0.066726 11.4376 0.185499 11.3188C0.304272 11.2 0.465363 11.1333 0.633333 11.1333H1.26667ZM1.26667 14.9333V14.3C1.26667 14.132 1.33339 13.9709 1.45217 13.8521C1.57094 13.7334 1.73203 13.6667 1.9 13.6667C2.06797 13.6667 2.22906 13.7334 2.34783 13.8521C2.46661 13.9709 2.53333 14.132 2.53333 14.3V14.9333H3.16667C3.33464 14.9333 3.49573 15 3.6145 15.1188C3.73327 15.2376 3.8 15.3987 3.8 15.5667C3.8 15.7346 3.73327 15.8957 3.6145 16.0145C3.49573 16.1333 3.33464 16.2 3.16667 16.2H0.633333C0.465363 16.2 0.304272 16.1333 0.185499 16.0145C0.066726 15.8957 0 15.7346 0 15.5667C0 15.3987 0.066726 15.2376 0.185499 15.1188C0.304272 15 0.465363 14.9333 0.633333 14.9333H1.26667Z" fill="#6D6BC8"/>
</svg>
