<svg width="153" height="158" viewBox="0 0 153 158" fill="none" xmlns="http://www.w3.org/2000/svg">
<g filter="url(#filter0_d_251_171)">
<path d="M105.032 2.10675L25.2468 7.73852C11.6676 8.69703 1.44031 20.4295 2.40343 33.9437L8.27956 116.396C9.24268 129.91 21.0315 140.088 34.6107 139.13L114.396 133.498C127.975 132.54 138.202 120.807 137.239 107.293L131.363 24.8408C130.4 11.3266 118.611 1.14824 105.032 2.10675Z" fill="#CCC4FF"/>
<path d="M105.057 2.45632L25.2716 8.08808C11.8865 9.0329 1.80525 20.5977 2.75461 33.9189L8.63074 116.371C9.5801 129.692 21.2005 139.725 34.5857 138.78L114.371 133.148C127.756 132.204 137.837 120.639 136.888 107.318L131.012 24.8656C130.062 11.5445 118.442 1.5115 105.057 2.45632Z" stroke="white" stroke-opacity="0.52"/>
<path d="M5.15521 138.825L2.53088 143.113L3.02509 123.412L8.20098 125.1L7.70793 144.744L5.3436 138.841L5.26528 138.645L5.15521 138.825ZM5.46966 128.766L5.5703 128.799L5.5734 128.79C5.64051 128.8 5.70784 128.798 5.77341 128.783C5.87292 128.761 5.96264 128.712 6.0375 128.639C6.11208 128.567 6.16962 128.475 6.2092 128.369C6.24871 128.264 6.26991 128.147 6.27301 128.025C6.2761 127.902 6.26103 127.777 6.22899 127.653C6.19695 127.53 6.14835 127.411 6.0856 127.304C6.02292 127.197 5.94686 127.102 5.86073 127.026C5.77467 126.949 5.67925 126.892 5.57896 126.859C5.37247 126.792 5.16514 126.836 5.01105 126.985C4.86104 127.13 4.7816 127.355 4.77533 127.6C4.76906 127.846 4.83653 128.105 4.96273 128.32C5.08844 128.536 5.26796 128.7 5.46966 128.766Z" fill="#CCC4FF" stroke="white" stroke-width="0.3"/>
<path d="M118.351 8.78186H25.3889C11.7756 8.78186 0.739868 19.7648 0.739868 33.3129V118.12C0.739868 131.669 11.7756 142.651 25.3889 142.651H118.351C131.964 142.651 143 131.669 143 118.12V33.3129C143 19.7648 131.964 8.78186 118.351 8.78186Z" fill="url(#paint0_linear_251_171)"/>
<path d="M17.6421 42.4245C14.9194 42.4245 12.7123 40.2279 12.7123 37.5183C12.7123 34.8086 14.9194 32.6121 17.6421 32.6121C20.3648 32.6121 22.5719 34.8086 22.5719 37.5183C22.5719 40.2279 20.3648 42.4245 17.6421 42.4245Z" fill="#CCC4FF"/>
<path d="M17.6421 67.6564C14.9194 67.6564 12.7123 65.4598 12.7123 62.7502C12.7123 60.0406 14.9194 57.844 17.6421 57.844C20.3648 57.844 22.5719 60.0406 22.5719 62.7502C22.5719 65.4598 20.3648 67.6564 17.6421 67.6564Z" fill="#CCC4FF"/>
<path d="M17.6421 67.306C15.1139 67.306 13.0644 65.2663 13.0644 62.7502C13.0644 60.2341 15.1139 58.1945 17.6421 58.1945C20.1702 58.1945 22.2197 60.2341 22.2197 62.7502C22.2197 65.2663 20.1702 67.306 17.6421 67.306Z" stroke="white" stroke-opacity="0.55"/>
<path d="M17.6421 118.12C14.9194 118.12 12.7123 115.924 12.7123 113.214C12.7123 110.505 14.9194 108.308 17.6421 108.308C20.3648 108.308 22.5719 110.505 22.5719 113.214C22.5719 115.924 20.3648 118.12 17.6421 118.12Z" fill="#CCC4FF"/>
<path d="M17.6421 117.77C15.1139 117.77 13.0644 115.73 13.0644 113.214C13.0644 110.698 15.1139 108.658 17.6421 108.658C20.1702 108.658 22.2197 110.698 22.2197 113.214C22.2197 115.73 20.1702 117.77 17.6421 117.77Z" stroke="white" stroke-opacity="0.55"/>
<path d="M17.6421 92.8884C14.9194 92.8884 12.7123 90.6918 12.7123 87.9822C12.7123 85.2726 14.9194 83.076 17.6421 83.076C20.3648 83.076 22.5719 85.2726 22.5719 87.9822C22.5719 90.6918 20.3648 92.8884 17.6421 92.8884Z" fill="#CCC4FF"/>
<path d="M17.6421 92.5379C15.1139 92.5379 13.0644 90.4982 13.0644 87.9822C13.0644 85.4661 15.1139 83.4264 17.6421 83.4264C20.1702 83.4264 22.2197 85.4661 22.2197 87.9822C22.2197 90.4982 20.1702 92.5379 17.6421 92.5379Z" stroke="white" stroke-opacity="0.55"/>
<path d="M33.8202 54.3312H39.0684C40.2515 54.3312 41.3755 54.4658 42.4404 54.7349C43.5052 55.004 44.4348 55.4666 45.2292 56.1226C46.0405 56.7619 46.6828 57.6282 47.1561 58.7215C47.6293 59.8149 47.866 61.1775 47.866 62.8091C47.866 64.4071 47.6378 65.7444 47.1814 66.821C46.742 67.8807 46.1335 68.7302 45.356 69.3694C44.5954 70.0086 43.6996 70.4712 42.6685 70.7572C41.6544 71.0263 40.5642 71.1609 39.398 71.1609H33.8202V70.732H35.2654V54.7854H33.8202V54.3312ZM38.2571 54.7854V70.732C39.474 70.732 40.4966 70.5722 41.3248 70.2525C42.153 69.9161 42.8207 69.4115 43.3277 68.7386C43.8348 68.0658 44.1982 67.2247 44.4179 66.2154C44.6376 65.1893 44.7475 63.9866 44.7475 62.6073C44.7475 61.4802 44.6292 60.4373 44.3926 59.4785C44.1559 58.5197 43.7925 57.6954 43.3024 57.0058C42.8291 56.2993 42.2206 55.7526 41.4769 55.3657C40.7501 54.962 39.8881 54.7601 38.8909 54.7601L38.2571 54.7854ZM53.7786 70.6563H56.2379C57.0154 70.6563 57.7337 70.6394 58.3929 70.6058C59.069 70.5553 59.6521 70.3955 60.1423 70.1264C60.6325 69.8404 61.0212 69.3947 61.3085 68.7891C61.5959 68.1835 61.7396 67.3172 61.7396 66.1902H62.1706V71.1609H49.4432V70.732H50.7109V54.7601H49.4432V54.3312H62.1452L62.1706 58.4692H61.7396C61.6043 57.544 61.3593 56.8376 61.0043 56.3497C60.6663 55.8451 60.2437 55.4834 59.7366 55.2648C59.2465 55.0293 58.6803 54.9031 58.038 54.8863C57.4126 54.8526 56.7365 54.8358 56.0097 54.8358H53.7786V62.2792H54.4378C54.9618 62.2792 55.4181 62.2624 55.8069 62.2288C56.2125 62.1951 56.5506 62.0858 56.821 61.9008C57.0915 61.7157 57.2943 61.4298 57.4295 61.0429C57.5647 60.6392 57.6408 60.0841 57.6577 59.3776H58.0633V65.736H57.6577C57.6408 65.0968 57.5732 64.5922 57.4549 64.2221C57.3534 63.8352 57.2013 63.5493 56.9985 63.3642C56.7957 63.1624 56.5506 63.0362 56.2632 62.9857C55.9759 62.9185 55.6463 62.8848 55.2745 62.8848H53.7786V70.6563ZM62.7693 70.732C63.1412 70.732 63.4454 70.7067 63.682 70.6563C63.9187 70.6058 64.113 70.5133 64.2652 70.3787C64.4173 70.2441 64.544 70.0507 64.6455 69.7984C64.7469 69.5292 64.8652 69.1928 65.0004 68.7891C65.7272 66.3332 66.4624 63.8857 67.2063 61.4466C67.95 58.9907 68.6937 56.5348 69.4374 54.0789H70.2994L75.6996 70.732H76.8152V71.1609H70.7557V70.732H72.4544L70.8318 65.6603H66.4202L66.2427 66.165C66.1582 66.4173 66.0568 66.7369 65.9385 67.1238C65.8202 67.5107 65.7018 67.8976 65.5835 68.2845C65.4821 68.6713 65.3892 69.0246 65.3046 69.3442C65.2201 69.6638 65.1779 69.8825 65.1779 70.0002C65.1779 70.2021 65.2539 70.3535 65.4061 70.4544C65.5751 70.5553 65.7695 70.631 65.9892 70.6815C66.2089 70.7151 66.4286 70.732 66.6484 70.732C66.885 70.732 67.0711 70.732 67.2063 70.732H67.257V71.1609H62.7693V70.732ZM66.547 65.2314H70.705L68.5754 58.6206L66.547 65.2314ZM81.3569 70.732H82.9035V71.1609H77.1736V70.732H78.5681V54.7601H77.1736V54.3312H84.5007C85.0585 54.3312 85.6078 54.3985 86.1487 54.533C86.6896 54.6676 87.1628 54.8947 87.5685 55.2143C87.991 55.5171 88.3291 55.9292 88.5826 56.4507C88.8531 56.9553 88.9883 57.5945 88.9883 58.3683C88.9883 58.957 88.8953 59.4701 88.7094 59.9074C88.5404 60.3448 88.3037 60.7233 87.9995 61.0429C87.6953 61.3457 87.3403 61.598 86.9347 61.7998C86.529 62.0017 86.098 62.1531 85.6416 62.254V62.5316C86.3515 62.7166 86.9009 63.0194 87.2896 63.4399C87.6953 63.8436 87.9995 64.3062 88.2023 64.8277C88.4051 65.3491 88.5319 65.9042 88.5826 66.493C88.6333 67.0649 88.6671 67.6116 88.684 68.1331C88.7009 68.5031 88.7178 68.8564 88.7347 69.1928C88.7685 69.5124 88.8192 69.7984 88.8869 70.0507C88.9545 70.2862 89.0559 70.4796 89.1911 70.631C89.3263 70.7656 89.5122 70.8329 89.7489 70.8329C89.901 70.8329 90.0446 70.8161 90.1799 70.7824C90.3151 70.732 90.4503 70.6815 90.5855 70.631C90.6024 70.631 90.6193 70.6226 90.6362 70.6058L90.7884 70.9843C90.501 71.1188 90.2137 71.2114 89.9263 71.2618C89.6559 71.3123 89.377 71.3375 89.0897 71.3375C88.346 71.3375 87.7629 71.2282 87.3403 71.0095C86.9177 70.7908 86.5882 70.488 86.3515 70.1012C86.1318 69.7143 85.9797 69.2517 85.8952 68.7134C85.8276 68.1751 85.7684 67.578 85.7177 66.9219C85.7008 66.7201 85.6839 66.5098 85.667 66.2911C85.6501 66.0725 85.6247 65.8454 85.5909 65.6099C85.5064 64.8866 85.3289 64.323 85.0585 63.9193C84.805 63.5156 84.4838 63.2212 84.0951 63.0362C83.7232 62.8343 83.3007 62.7166 82.8274 62.683C82.3542 62.6325 81.864 62.6073 81.3569 62.6073V70.732ZM81.3569 54.7601V62.2036H82.1682C82.6415 62.2036 83.1063 62.1363 83.5627 62.0017C84.0359 61.8671 84.45 61.6569 84.805 61.3709C85.1599 61.0681 85.4473 60.6896 85.667 60.2355C85.8867 59.7645 85.9966 59.1925 85.9966 58.5197C85.9966 57.7627 85.8952 57.1403 85.6923 56.6525C85.4895 56.1647 85.2106 55.7862 84.8557 55.5171C84.5007 55.2311 84.0866 55.0377 83.6134 54.9367C83.1401 54.819 82.633 54.7601 82.0922 54.7601H81.3569ZM40.767 81.3939H39.1698V94.9939C39.1698 95.6499 39.1106 96.2555 38.9923 96.8106C38.874 97.3657 38.6796 97.8451 38.4092 98.2488C38.1557 98.6525 37.8176 98.9721 37.3951 99.2076C36.9894 99.4431 36.4992 99.5609 35.9246 99.5609C35.6541 99.5609 35.3837 99.5188 35.1133 99.4347C34.8428 99.3506 34.5977 99.2245 34.378 99.0562C34.1752 98.888 34.0062 98.6693 33.871 98.4002C33.7526 98.1479 33.6935 97.8451 33.6935 97.4919C33.6935 97.105 33.7864 96.7685 33.9724 96.4826C34.1752 96.1798 34.4541 96.0284 34.809 96.0284C35.0626 96.0284 35.2569 96.1377 35.3921 96.3564C35.5443 96.5751 35.6203 96.8526 35.6203 97.1891C35.6203 97.5255 35.5189 97.761 35.3161 97.8956C35.1302 98.047 34.8682 98.1984 34.5301 98.3497C34.9865 98.8376 35.4091 99.0815 35.7978 99.0815C36.102 99.0815 36.3556 98.9553 36.5584 98.703C36.7781 98.4507 36.888 98.0554 36.888 97.5171C36.888 97.3321 36.8626 97.147 36.8119 96.962C36.7612 96.7769 36.6936 96.5835 36.6091 96.3816C36.5077 96.1293 36.4147 95.8518 36.3302 95.549C36.2626 95.2462 36.2288 94.9518 36.2288 94.6659V81.3939H34.5048V80.9649H40.767V81.3939ZM48.8385 80.6369C49.8019 80.6369 50.6808 80.8976 51.4752 81.4191C52.2865 81.9237 52.9795 82.5966 53.5542 83.4377C54.1458 84.2619 54.6021 85.2039 54.9233 86.2636C55.2444 87.3066 55.405 88.3579 55.405 89.4176C55.405 90.4942 55.2444 91.5539 54.9233 92.5969C54.6021 93.623 54.1458 94.5481 53.5542 95.3724C52.9795 96.1798 52.2865 96.8358 51.4752 97.3405C50.6808 97.8451 49.8019 98.0974 48.8385 98.0974C47.8581 98.0974 46.9623 97.8451 46.151 97.3405C45.3397 96.819 44.6467 96.1377 44.0721 95.2967C43.4974 94.4556 43.0495 93.5052 42.7283 92.4455C42.4072 91.3857 42.2466 90.3092 42.2466 89.2158C42.2466 88.1729 42.4156 87.1383 42.7537 86.1122C43.1086 85.0861 43.5819 84.1694 44.1735 83.362C44.7819 82.5545 45.4834 81.8985 46.2778 81.3939C47.0722 80.8892 47.9258 80.6369 48.8385 80.6369ZM48.8892 81.0406C48.3483 81.0406 47.8835 81.1836 47.4947 81.4696C47.106 81.7387 46.7764 82.1088 46.506 82.5798C46.2355 83.0339 46.0158 83.5554 45.8468 84.1441C45.6947 84.7161 45.5679 85.3132 45.4665 85.9356C45.382 86.5412 45.3228 87.1467 45.289 87.7523C45.2552 88.3411 45.2383 88.8709 45.2383 89.3419C45.2383 89.8298 45.2468 90.3764 45.2637 90.982C45.2975 91.5708 45.3566 92.1763 45.4411 92.7987C45.5256 93.4043 45.644 94.0014 45.7961 94.5902C45.9482 95.1789 46.151 95.7088 46.4046 96.1798C46.675 96.634 47.0046 97.004 47.3933 97.29C47.7821 97.5591 48.2553 97.6937 48.8131 97.6937C49.3709 97.6937 49.8442 97.5507 50.2329 97.2648C50.6217 96.9788 50.9428 96.6087 51.1963 96.1546C51.4499 95.6836 51.6442 95.1537 51.7795 94.5649C51.9147 93.9594 52.0161 93.3538 52.0837 92.7482C52.1513 92.1259 52.1936 91.5203 52.2105 90.9315C52.2274 90.326 52.2358 89.7877 52.2358 89.3167C52.2358 88.8962 52.2189 88.3999 52.1851 87.828C52.1682 87.2561 52.1175 86.6673 52.033 86.0618C51.9485 85.4562 51.8302 84.8506 51.678 84.2451C51.5428 83.6395 51.3484 83.1012 51.0949 82.6302C50.8414 82.1592 50.5371 81.7808 50.1822 81.4948C49.8273 81.192 49.3962 81.0406 48.8892 81.0406ZM71.903 81.3939H71.4973C71.1593 81.3939 70.8804 81.4023 70.6607 81.4191C70.4578 81.4359 70.2888 81.5116 70.1536 81.6462C70.0353 81.7639 69.9508 81.9658 69.9001 82.2517C69.8663 82.5377 69.8494 82.9414 69.8494 83.4629V92.067C69.8494 94.2538 69.4015 95.8181 68.5056 96.7601C67.6267 97.6853 66.3 98.1479 64.5252 98.1479C63.9675 98.1479 63.3505 98.1058 62.6745 98.0217C62.0153 97.9376 61.3814 97.7694 60.773 97.5171C60.1814 97.2479 59.6574 96.8779 59.2011 96.4069C58.7616 95.9359 58.4912 95.3135 58.3898 94.5397C58.356 94.3547 58.339 94.1192 58.339 93.8332C58.339 93.5473 58.339 93.2361 58.339 92.8996V81.3939H56.7418V80.9649H63.1562V81.3939H61.5336V92.2688C61.5336 93.0426 61.5758 93.7575 61.6603 94.4136C61.7617 95.0528 61.9392 95.6079 62.1927 96.0789C62.4632 96.5499 62.8266 96.9199 63.2829 97.1891C63.7393 97.4582 64.3224 97.5928 65.0323 97.5928C65.8098 97.5928 66.469 97.4582 67.0098 97.1891C67.5676 96.9031 68.007 96.5078 68.3282 96.0032C68.6662 95.4817 68.9113 94.8593 69.0634 94.136C69.2155 93.3959 69.2916 92.58 69.2916 91.6885V83.4629C69.2916 82.9246 69.2578 82.5125 69.1902 82.2265C69.1395 81.9406 69.0465 81.7303 68.9113 81.5957C68.7761 81.4611 68.5986 81.3855 68.3789 81.3686C68.1591 81.3518 67.8887 81.3518 67.5676 81.3686C67.4831 81.3686 67.3901 81.377 67.2887 81.3939C67.2042 81.3939 67.1028 81.3939 66.9844 81.3939V80.9649H71.903V81.3939ZM76.9497 97.3657H78.4962V97.7946H72.7664V97.3657H74.1608V81.3939H72.7664V80.9649H80.0935C80.6513 80.9649 81.2006 81.0322 81.7415 81.1668C82.2823 81.3013 82.7556 81.5284 83.1612 81.848C83.5838 82.1508 83.9218 82.5629 84.1754 83.0844C84.4458 83.589 84.581 84.2283 84.581 85.002C84.581 85.5908 84.4881 86.1038 84.3021 86.5412C84.1331 86.9785 83.8965 87.357 83.5922 87.6766C83.288 87.9794 82.9331 88.2317 82.5274 88.4336C82.1218 88.6354 81.6908 88.7868 81.2344 88.8878V89.1653C81.9443 89.3503 82.4936 89.6531 82.8824 90.0737C83.288 90.4774 83.5922 90.94 83.7951 91.4614C83.9979 91.9829 84.1247 92.538 84.1754 93.1267C84.2261 93.6986 84.2599 94.2453 84.2768 94.7668C84.2937 95.1369 84.3106 95.4901 84.3275 95.8265C84.3613 96.1462 84.412 96.4321 84.4796 96.6844C84.5472 96.9199 84.6486 97.1134 84.7839 97.2648C84.9191 97.3993 85.105 97.4666 85.3416 97.4666C85.4937 97.4666 85.6374 97.4498 85.7726 97.4162C85.9078 97.3657 86.0431 97.3152 86.1783 97.2648C86.1952 97.2648 86.2121 97.2564 86.229 97.2395L86.3811 97.618C86.0938 97.7526 85.8064 97.8451 85.5191 97.8956C85.2487 97.946 84.9698 97.9713 84.6824 97.9713C83.9387 97.9713 83.3556 97.8619 82.9331 97.6432C82.5105 97.4246 82.1809 97.1218 81.9443 96.7349C81.7246 96.348 81.5724 95.8854 81.4879 95.3471C81.4203 94.8089 81.3612 94.2117 81.3105 93.5557C81.2935 93.3538 81.2766 93.1436 81.2597 92.9249C81.2428 92.7062 81.2175 92.4791 81.1837 92.2436C81.0992 91.5203 80.9217 90.9568 80.6513 90.5531C80.3977 90.1494 80.0766 89.855 79.6878 89.6699C79.316 89.4681 78.8934 89.3503 78.4202 89.3167C77.9469 89.2662 77.4568 89.241 76.9497 89.241V97.3657ZM76.9497 81.3939V88.8373H77.761C78.2343 88.8373 78.6991 88.77 79.1554 88.6354C79.6287 88.5009 80.0428 88.2906 80.3977 88.0046C80.7527 87.7019 81.04 87.3234 81.2597 86.8692C81.4795 86.3982 81.5893 85.8263 81.5893 85.1534C81.5893 84.3965 81.4879 83.7741 81.2851 83.2863C81.0823 82.7984 80.8034 82.42 80.4484 82.1508C80.0935 81.8649 79.6794 81.6714 79.2061 81.5705C78.7329 81.4527 78.2258 81.3939 77.6849 81.3939H76.9497ZM87.3952 97.3657C87.9023 97.3657 88.2995 97.3573 88.5868 97.3405C88.8742 97.3068 89.077 97.2227 89.1953 97.0881C89.3305 96.9368 89.4066 96.7181 89.4235 96.4321C89.4573 96.1293 89.4742 95.7004 89.4742 95.1453V81.7219L89.1446 81.3939H87.3952V80.9649H92.4912L99.8437 92.9753V83.4881C99.8437 82.9498 99.8268 82.5377 99.793 82.2517C99.7761 81.9658 99.7169 81.7639 99.6155 81.6462C99.5141 81.5116 99.362 81.4359 99.1591 81.4191C98.9732 81.4023 98.7112 81.3939 98.3732 81.3939H97.8154V80.9649H102.404V81.3939H101.821C101.483 81.3939 101.213 81.4023 101.01 81.4191C100.807 81.4359 100.655 81.5116 100.554 81.6462C100.452 81.7639 100.385 81.9658 100.351 82.2517C100.334 82.5377 100.325 82.9498 100.325 83.4881V97.9208H99.0577L89.9559 82.933V94.7163C89.9559 95.3892 89.9644 95.9107 89.9813 96.2807C89.9982 96.634 90.0658 96.8947 90.1841 97.0629C90.3193 97.2143 90.5306 97.3068 90.8179 97.3405C91.1053 97.3573 91.5194 97.3657 92.0602 97.3657V97.7946H87.3952V97.3657ZM107.753 97.29H110.212C110.99 97.29 111.708 97.2732 112.368 97.2395C113.044 97.1891 113.627 97.0293 114.117 96.7601C114.607 96.4742 114.996 96.0284 115.283 95.4228C115.57 94.8173 115.714 93.951 115.714 92.8239H116.145V97.7946H103.418V97.3657H104.685V81.3939H103.418V80.9649H116.12L116.145 85.103H115.714C115.579 84.1778 115.334 83.4713 114.979 82.9835C114.641 82.4788 114.218 82.1172 113.711 81.8985C113.221 81.663 112.655 81.5368 112.013 81.52C111.387 81.4864 110.711 81.4696 109.984 81.4696H107.753V88.913H108.412C108.936 88.913 109.393 88.8962 109.781 88.8625C110.187 88.8289 110.525 88.7195 110.796 88.5345C111.066 88.3495 111.269 88.0635 111.404 87.6766C111.539 87.2729 111.615 86.7178 111.632 86.0113H112.038V92.3698H111.632C111.615 91.7306 111.548 91.2259 111.429 90.8559C111.328 90.469 111.176 90.183 110.973 89.998C110.77 89.7961 110.525 89.6699 110.238 89.6195C109.95 89.5522 109.621 89.5186 109.249 89.5186H107.753V97.29ZM125.313 80.9649H129.801V81.3686H129.268C129.032 81.3686 128.837 81.3939 128.685 81.4443C128.533 81.478 128.389 81.5621 128.254 81.6966C128.136 81.8144 128.018 81.991 127.899 82.2265C127.798 82.462 127.671 82.7648 127.519 83.1349L124.35 91.0829V97.3657H125.972V97.7946H120.014V97.3657H121.612V91.6633L117.631 81.3939H116.287V80.9649H122.347V81.3939H120.75L124.122 90.1241L126.581 84.1441C126.632 84.0432 126.691 83.9002 126.758 83.7152C126.826 83.5134 126.894 83.3115 126.961 83.1096C127.029 82.891 127.088 82.6891 127.139 82.5041C127.189 82.3022 127.215 82.1424 127.215 82.0247C127.215 81.7387 127.079 81.5621 126.809 81.4948C126.555 81.4107 126.277 81.3686 125.972 81.3686C125.854 81.3686 125.744 81.377 125.643 81.3939C125.541 81.3939 125.448 81.3939 125.364 81.3939H125.313V80.9649ZM131.409 101.706C131.544 101.537 131.687 101.327 131.84 101.075C132.009 100.839 132.161 100.579 132.296 100.293C132.431 100.023 132.541 99.7291 132.625 99.4095C132.71 99.1067 132.752 98.7871 132.752 98.4507C132.752 98.1647 132.71 97.8619 132.625 97.5423C132.541 97.2227 132.397 96.8947 132.194 96.5583L132.017 96.7097C132.152 97.1134 132.135 97.433 131.966 97.6685C131.797 97.904 131.527 98.0217 131.155 98.0217C130.868 98.0217 130.631 97.9124 130.445 97.6937C130.259 97.4582 130.166 97.1723 130.166 96.8358C130.166 96.4321 130.293 96.1125 130.547 95.877C130.817 95.6247 131.113 95.4985 131.434 95.4985C131.738 95.4985 132 95.5826 132.22 95.7509C132.456 95.9022 132.651 96.1041 132.803 96.3564C132.972 96.6087 133.09 96.8947 133.158 97.2143C133.242 97.5339 133.285 97.8535 133.285 98.1731C133.285 98.6441 133.251 99.0562 133.183 99.4095C133.133 99.7627 133.04 100.082 132.904 100.368C132.769 100.671 132.6 100.957 132.397 101.226C132.194 101.495 131.949 101.773 131.662 102.059L131.409 101.706Z" fill="white"/>
<path d="M101.782 69.2152C108.633 75.3038 120.581 54.4349 119.077 51.6285C117.573 48.8222 98.3979 64.9118 99.7142 66.7831C101.03 68.6545 118.513 51.6285 117.103 49.8518C115.693 48.075 96.8147 61.5903 98.2085 63.2331C99.6029 64.8753 117.887 56.9034 117.103 54.4349C116.319 51.9671 96.5929 61.3576 96.4985 61.9183C96.2788 63.2331 99.9776 62.7355 100.978 64.3363C101.396 65.0057 101.203 67.0894 101.782 67.9992C102.361 68.9082 122.273 61.7311 121.897 59.8605C121.521 57.9898 103.854 64.4681 104.414 65.8474C104.974 67.2268 121.238 59.1119 120.769 57.8959C120.299 56.6798 103.756 67.4378 104.414 68.6538C105.071 69.8698 118.781 65.2692 118.231 63.9768C117.681 62.6836 100.184 51.6285 99.1501 53.687C98.1162 55.7456 101.191 65.8474 103.474 65.8474C118.783 54.8687 108.109 29.0333 102.533 61.0765C102.759 62.4243 107.234 69.4024 108.55 70.6184C109.866 71.8344 116.437 72.0903 116.588 69.5713C116.738 67.0523 100.478 68.0559 101.782 69.2152Z" stroke="white" stroke-linecap="round" stroke-linejoin="round"/>
</g>
<defs>
<filter id="filter0_d_251_171" x="0.739868" y="1.89471" width="152.26" height="155.905" filterUnits="userSpaceOnUse" color-interpolation-filters="sRGB">
<feFlood flood-opacity="0" result="BackgroundImageFix"/>
<feColorMatrix in="SourceAlpha" type="matrix" values="0 0 0 0 0 0 0 0 0 0 0 0 0 0 0 0 0 0 127 0" result="hardAlpha"/>
<feOffset dx="6" dy="9"/>
<feGaussianBlur stdDeviation="2"/>
<feComposite in2="hardAlpha" operator="out"/>
<feColorMatrix type="matrix" values="0 0 0 0 0 0 0 0 0 0 0 0 0 0 0 0 0 0 0.16 0"/>
<feBlend mode="normal" in2="BackgroundImageFix" result="effect1_dropShadow_251_171"/>
<feBlend mode="normal" in="SourceGraphic" in2="effect1_dropShadow_251_171" result="shape"/>
</filter>
<linearGradient id="paint0_linear_251_171" x1="102.505" y1="8.78186" x2="13.4165" y2="8.78186" gradientUnits="userSpaceOnUse">
<stop stop-color="#AB9DFF"/>
<stop offset="1" stop-color="#675E99"/>
</linearGradient>
</defs>
</svg>
