<svg width="23" height="23" viewBox="0 0 23 23" fill="none" xmlns="http://www.w3.org/2000/svg">
<path d="M11.5004 0C11.7619 0 12.0126 0.103852 12.1975 0.288709C12.3823 0.473566 12.4862 0.724287 12.4862 0.985714C12.4862 1.24714 12.3823 1.49786 12.1975 1.68272C12.0126 1.86758 11.7619 1.97143 11.5004 1.97143C8.9732 1.97143 6.54948 2.97533 4.76246 4.76228C2.97544 6.54924 1.9715 8.97287 1.9715 11.5C1.9715 14.0271 2.97544 16.4508 4.76246 18.2377C6.54948 20.0247 8.9732 21.0286 11.5004 21.0286C11.7619 21.0286 12.0126 21.1324 12.1975 21.3173C12.3823 21.5021 12.4862 21.7529 12.4862 22.0143C12.4862 22.2757 12.3823 22.5264 12.1975 22.7113C12.0126 22.8962 11.7619 23 11.5004 23C8.45033 23 5.52515 21.7884 3.3684 19.6317C1.21165 17.4751 0 14.55 0 11.5C0 8.45001 1.21165 5.52494 3.3684 3.36827C5.52515 1.2116 8.45033 0 11.5004 0Z" fill="white"/>
<path d="M17.3755 8.25367C17.2014 8.06682 17.1066 7.81967 17.1111 7.5643C17.1156 7.30894 17.219 7.06529 17.3996 6.88469C17.5802 6.70409 17.8239 6.60064 18.0793 6.59613C18.3347 6.59162 18.5818 6.68642 18.7687 6.86053L22.7117 10.8034C22.8963 10.9882 23 11.2387 23 11.5C23 11.7612 22.8963 12.0117 22.7117 12.1965L18.7687 16.1394C18.6784 16.2362 18.5696 16.3139 18.4487 16.3678C18.3278 16.4217 18.1972 16.4506 18.0649 16.453C17.9325 16.4553 17.8011 16.431 17.6783 16.3814C17.5556 16.3318 17.4441 16.258 17.3505 16.1644C17.2569 16.0708 17.1831 15.9593 17.1335 15.8366C17.0839 15.7138 17.0596 15.5824 17.0619 15.45C17.0642 15.3177 17.0932 15.1871 17.1471 15.0662C17.201 14.9453 17.2786 14.8365 17.3755 14.7462L19.6361 12.4857H8.87174C8.6103 12.4857 8.35957 12.3818 8.17471 12.197C7.98984 12.0121 7.88599 11.7614 7.88599 11.5C7.88599 11.2385 7.98984 10.9878 8.17471 10.803C8.35957 10.6181 8.6103 10.5142 8.87174 10.5142H19.6361L17.3755 8.25367Z" fill="white"/>
</svg>
