<svg width="21" height="19" viewBox="0 0 21 19" fill="none" xmlns="http://www.w3.org/2000/svg">
<path d="M8.5 15H3C2.46957 15 1.96086 14.7893 1.58579 14.4142C1.21071 14.0391 1 13.5304 1 13V3C1 2.46957 1.21071 1.96086 1.58579 1.58579C1.96086 1.21071 2.46957 1 3 1H17C17.5304 1 18.0391 1.21071 18.4142 1.58579C18.7893 1.96086 19 2.46957 19 3V7" stroke="white" stroke-linecap="round" stroke-linejoin="round"/>
<path d="M1 3L10 9L12.983 7.011L19 3M16 18L19.35 14.716C19.5554 14.5167 19.7188 14.2782 19.8306 14.0146C19.9423 13.7511 20.0001 13.4678 20.0006 13.1816C20.0011 12.8953 19.9442 12.6119 19.8333 12.3479C19.7224 12.084 19.5598 11.845 19.355 11.645C18.9374 11.2359 18.3764 11.0062 17.7917 11.0051C17.2071 11.004 16.6452 11.2315 16.226 11.639L16.002 11.859L15.779 11.639C15.3614 11.2302 14.8006 11.0007 14.2162 10.9996C13.6318 10.9985 13.0701 11.2258 12.651 11.633C12.4455 11.8323 12.282 12.0707 12.1702 12.3342C12.0583 12.5977 12.0004 12.881 11.9999 13.1672C11.9993 13.4535 12.0561 13.737 12.1669 14.0009C12.2777 14.2648 12.4403 14.5039 12.645 14.704L16 18Z" stroke="white" stroke-width="0.8" stroke-linecap="round" stroke-linejoin="round"/>
</svg>
