<svg width="21" height="23" viewBox="0 0 21 23" fill="none" xmlns="http://www.w3.org/2000/svg">
<path d="M4.35294 0.95C3.7475 0.95 3.16646 1.18067 2.73774 1.59188C2.30895 2.00316 2.06765 2.56143 2.06765 3.144V4.16703C1.77677 4.179 1.50002 4.29509 1.29274 4.4939C1.07355 4.70414 0.95 4.98974 0.95 5.288C0.95 5.58626 1.07355 5.87186 1.29274 6.0821C1.50002 6.28091 1.77677 6.397 2.06765 6.40897V8.45503C1.77677 8.467 1.50002 8.58309 1.29274 8.7819C1.07355 8.99214 0.95 9.27774 0.95 9.576C0.95 9.87426 1.07355 10.1599 1.29274 10.3701C1.50002 10.5689 1.77677 10.685 2.06765 10.697V12.743C1.77677 12.755 1.50002 12.8711 1.29274 13.0699C1.07355 13.2801 0.95 13.5657 0.95 13.864C0.95 14.1623 1.07355 14.4479 1.29274 14.6581C1.50002 14.8569 1.77677 14.973 2.06765 14.985V17.031C1.77677 17.043 1.50002 17.1591 1.29274 17.3579C1.07355 17.5681 0.95 17.8537 0.95 18.152C0.95 18.4503 1.07355 18.7359 1.29274 18.9461C1.50002 19.1449 1.77677 19.261 2.06765 19.273V20.296C2.06765 20.8786 2.30895 21.4368 2.73774 21.8481C3.16646 22.2593 3.7475 22.49 4.35294 22.49H17.7647C18.3701 22.49 18.9512 22.2593 19.3799 21.8481C19.8087 21.4368 20.05 20.8786 20.05 20.296V3.144C20.05 2.56143 19.8087 2.00316 19.3799 1.59188C18.9512 1.18067 18.3701 0.95 17.7647 0.95H4.35294ZM5.99623 5.79506C6.3011 5.50263 6.71503 5.338 7.14706 5.338H14.9706C15.4026 5.338 15.8165 5.50263 16.1214 5.79506C16.4262 6.08742 16.5971 6.48348 16.5971 6.896V7.968C16.5971 8.38052 16.4262 8.77659 16.1214 9.06895C15.8165 9.36137 15.4026 9.526 14.9706 9.526H7.14706C6.71503 9.526 6.3011 9.36137 5.99623 9.06895C5.69142 8.77659 5.52059 8.38052 5.52059 7.968V6.896C5.52059 6.48348 5.69142 6.08742 5.99623 5.79506Z" fill="#8282EB" fill-opacity="0.77" stroke="url(#paint0_radial_795_538)" stroke-width="0.2"/>
<defs>
<radialGradient id="paint0_radial_795_538" cx="0" cy="0" r="1" gradientUnits="userSpaceOnUse" gradientTransform="translate(10.5 11.72) rotate(90) scale(10.72 9.5)">
<stop stop-color="white"/>
<stop offset="0.47" stop-color="#B7B5B5" stop-opacity="0.63"/>
<stop offset="1" stop-color="white"/>
</radialGradient>
</defs>
</svg>
