<svg width="23" height="23" viewBox="0 0 23 23" fill="none" xmlns="http://www.w3.org/2000/svg">
<path d="M15.0278 1.02318C15.0098 1.0082 14.9872 1 14.9638 1H3.33333C2.71449 1 2.121 1.24583 1.68342 1.68342C1.24583 2.121 1 2.71449 1 3.33333V19.6667C1 20.2855 1.24583 20.879 1.68342 21.3166C2.121 21.7542 2.71449 22 3.33333 22H19.6667C20.2855 22 20.879 21.7542 21.3166 21.3166C21.7542 20.879 22 20.2855 22 19.6667V6.88017C22 6.85049 21.9868 6.82235 21.964 6.80335L15.0278 1.02318Z" fill="#8282EB" fill-opacity="0.77" stroke="url(#paint0_linear_795_545)" stroke-width="0.3" stroke-linecap="round" stroke-linejoin="round"/>
<path d="M14.7812 1V5.8125C14.7812 6.45068 15.0348 7.06272 15.486 7.51398C15.9373 7.96523 16.5493 8.21875 17.1875 8.21875H22" stroke="url(#paint1_linear_795_545)" stroke-width="0.3" stroke-linecap="round" stroke-linejoin="round"/>
<defs>
<linearGradient id="paint0_linear_795_545" x1="11.5" y1="1" x2="11.5" y2="22" gradientUnits="userSpaceOnUse">
<stop stop-color="white"/>
<stop offset="0.49" stop-color="#B7B5B5" stop-opacity="0.63"/>
<stop offset="0.905" stop-color="#E8E8E8"/>
</linearGradient>
<linearGradient id="paint1_linear_795_545" x1="18.3906" y1="1" x2="18.3906" y2="8.21875" gradientUnits="userSpaceOnUse">
<stop stop-color="white"/>
<stop offset="0.49" stop-color="#B7B5B5" stop-opacity="0.63"/>
<stop offset="0.905" stop-color="#E8E8E8"/>
</linearGradient>
</defs>
</svg>
