<svg width="24" height="30" viewBox="0 0 24 30" fill="none" xmlns="http://www.w3.org/2000/svg">
<path d="M9.91242 29.7918C9.28153 29.7918 8.7432 29.5398 8.29742 29.0358C7.96014 28.6553 7.75046 28.2164 7.66837 27.7193C7.62338 27.4468 7.85261 27.2214 8.12875 27.2214H11.7046C11.9807 27.2214 12.21 27.4468 12.1651 27.7193C12.0828 28.2198 11.8717 28.6602 11.5317 29.0406C11.0821 29.5414 10.5424 29.7918 9.91242 29.7918ZM18.5894 17.0893C18.3133 17.0893 18.0894 16.8654 18.0894 16.5893V12.8145C18.0894 12.5383 17.8656 12.3145 17.5894 12.3145H14.3394C14.0633 12.3145 13.8394 12.0906 13.8394 11.8145V11.2229C13.8394 10.9467 14.0633 10.7229 14.3394 10.7229H17.5894C17.8656 10.7229 18.0894 10.499 18.0894 10.2229V6.44808C18.0894 6.17193 18.3133 5.94808 18.5894 5.94808H19.0061C19.2822 5.94808 19.5061 6.17193 19.5061 6.44808V10.2229C19.5061 10.499 19.7299 10.7229 20.0061 10.7229H23.2561C23.5322 10.7229 23.7561 10.9467 23.7561 11.2229V11.8145C23.7561 12.0906 23.5322 12.3145 23.2561 12.3145H20.0061C19.7299 12.3145 19.5061 12.5383 19.5061 12.8145V16.5893C19.5061 16.8654 19.2822 17.0893 19.0061 17.0893H18.5894ZM0.5 25.6282C0.223858 25.6282 0 25.4043 0 25.1282V24.5366C0 24.2605 0.223858 24.0366 0.5 24.0366H1.78933C2.06548 24.0366 2.28933 23.8127 2.28933 23.5366V11.4264C2.28933 9.34667 2.87489 7.51792 4.046 5.94012C5.13087 4.4785 6.48482 3.52724 8.10785 3.08635C8.33508 3.02462 8.5 2.82281 8.5 2.58734V2.12187C8.5 1.67941 8.63742 1.30379 8.91225 0.99502C9.18709 0.685189 9.52094 0.530273 9.91383 0.530273C10.3067 0.530273 10.6415 0.685189 10.9183 0.99502C11.195 1.30485 11.3333 1.68047 11.3333 2.12187V2.5971C11.3333 2.82811 11.492 3.02772 11.7143 3.09058C12.0196 3.17693 12.3172 3.27686 12.6069 3.39038C12.8376 3.48054 13.0626 3.58767 13.2818 3.71177C13.5521 3.86468 13.5801 4.2311 13.3604 4.4504C13.3135 4.49718 13.2668 4.54386 13.2203 4.59044C13.1504 4.66093 13.0839 4.7334 13.0206 4.80786C12.8483 5.0108 12.5572 5.08212 12.3161 4.96914C12.0165 4.82873 11.7073 4.71682 11.3886 4.63342C10.9183 4.50927 10.4276 4.4472 9.91667 4.4472C8.19494 4.4472 6.72917 5.12681 5.51933 6.48604C4.3095 7.84526 3.70506 9.49203 3.706 11.4264V23.5366C3.706 23.8127 3.92986 24.0366 4.206 24.0366H15.6288C15.9049 24.0366 16.1288 23.8127 16.1288 23.5366V21.1063C16.1288 20.7681 16.4841 20.5441 16.8059 20.6481C16.9104 20.6818 17.0189 20.7126 17.1315 20.7405C17.3679 20.799 17.544 21.0043 17.544 21.2477V23.5366C17.544 23.8127 17.7679 24.0366 18.044 24.0366H19.3333C19.6095 24.0366 19.8333 24.2605 19.8333 24.5366V25.1282C19.8333 25.4043 19.6095 25.6282 19.3333 25.6282H0.5Z" fill="white"/>
</svg>
