<svg class="eye-icon" width="33" height="31" viewBox="0 0 30 33" fill="none" xmlns="http://www.w3.org/2000/svg">
<g filter="url(#filter0_d_747_112)">
<path d="M12.2667 2.66005C13.6896 2.21877 15.174 1.99612 16.6667 2.00005C22.8003 2.00005 26.9744 5.58701 29.4634 8.74927C30.71 10.3361 31.3334 11.1267 31.3334 13.4783C31.3334 15.8313 30.71 16.6219 29.4634 18.2073C26.9744 21.3696 22.8003 24.9566 16.6667 24.9566C10.5331 24.9566 6.35894 21.3696 3.87 18.2073C2.62333 16.6233 2 15.8299 2 13.4783C2 11.1253 2.62333 10.3347 3.87 8.74927C4.63027 7.7775 5.4769 6.87341 6.40001 6.04757" stroke="white" stroke-width="1.7" stroke-linecap="round" stroke-linejoin="round"/>
<path d="M21.0656 13.4783C21.0656 14.6199 20.6021 15.7147 19.7769 16.5219C18.9517 17.3291 17.8326 17.7826 16.6656 17.7826C15.4987 17.7826 14.3795 17.3291 13.5544 16.5219C12.7292 15.7147 12.2656 14.6199 12.2656 13.4783C12.2656 12.3367 12.7292 11.2419 13.5544 10.4347C14.3795 9.62744 15.4987 9.17395 16.6656 9.17395C17.8326 9.17395 18.9517 9.62744 19.7769 10.4347C20.6021 11.2419 21.0656 12.3367 21.0656 13.4783Z" stroke="white" stroke-width="1.7" stroke-linecap="round" stroke-linejoin="round"/>
</g>
<defs>
<filter id="filter0_d_747_112" x="0.650391" y="0.650024" width="34.0332" height="27.6566" filterUnits="userSpaceOnUse" color-interpolation-filters="sRGB">
<feFlood flood-opacity="0" result="BackgroundImageFix"/>
<feColorMatrix in="SourceAlpha" type="matrix" values="0 0 0 0 0 0 0 0 0 0 0 0 0 0 0 0 0 0 127 0" result="hardAlpha"/>
<feOffset dx="1" dy="1"/>
<feGaussianBlur stdDeviation="0.75"/>
<feComposite in2="hardAlpha" operator="out"/>
<feColorMatrix type="matrix" values="0 0 0 0 0 0 0 0 0 0 0 0 0 0 0 0 0 0 0.2 0"/>
<feBlend mode="normal" in2="BackgroundImageFix" result="effect1_dropShadow_747_112"/>
<feBlend mode="normal" in="SourceGraphic" in2="effect1_dropShadow_747_112" result="shape"/>
</filter>
</defs>
</svg>
