<svg width="288" height="78" viewBox="0 0 288 78" fill="none" xmlns="http://www.w3.org/2000/svg">
<mask id="path-1-inside-1_473_264" fill="white">
<path fill-rule="evenodd" clip-rule="evenodd" d="M285.295 0C286.789 0 288 1.34314 288 3V20.6548C288 22.3117 286.788 23.6587 285.307 23.8785C283.095 24.2069 280.667 24.8475 278.332 25.4634C278.007 25.5492 277.683 25.6345 277.362 25.7185C276.474 25.951 275.848 26.7514 275.848 27.67V55.131C275.848 67.7611 268.054 78 258.441 78H2.37363C1.06271 78 0 76.6037 0 74.8815V3.15611C0 1.43382 1.0627 0.0376234 2.37362 0.0376234H270.926C271.027 0.0376234 271.127 0.0289115 271.227 0.0180045C271.337 0.0061067 271.442 0 271.543 0H285.295Z"/>
</mask>
<path fill-rule="evenodd" clip-rule="evenodd" d="M285.295 0C286.789 0 288 1.34314 288 3V20.6548C288 22.3117 286.788 23.6587 285.307 23.8785C283.095 24.2069 280.667 24.8475 278.332 25.4634C278.007 25.5492 277.683 25.6345 277.362 25.7185C276.474 25.951 275.848 26.7514 275.848 27.67V55.131C275.848 67.7611 268.054 78 258.441 78H2.37363C1.06271 78 0 76.6037 0 74.8815V3.15611C0 1.43382 1.0627 0.0376234 2.37362 0.0376234H270.926C271.027 0.0376234 271.127 0.0289115 271.227 0.0180045C271.337 0.0061067 271.442 0 271.543 0H285.295Z" fill="#ACA5FD" fill-opacity="0.58"/>
<path d="M285.307 23.8785L285.19 23.0872L285.19 23.0872L285.307 23.8785ZM278.332 25.4634L278.536 26.2369L278.536 26.2369L278.332 25.4634ZM271.227 0.0180045L271.141 -0.777284L271.227 0.0180045ZM288.8 3C288.8 0.981291 287.307 -0.8 285.295 -0.8V0.8C286.272 0.8 287.2 1.70499 287.2 3H288.8ZM288.8 20.6548V3H287.2V20.6548H288.8ZM285.424 24.6698C287.304 24.3909 288.8 22.7015 288.8 20.6548H287.2C287.2 21.922 286.272 22.9266 285.19 23.0872L285.424 24.6698ZM278.536 26.2369C280.881 25.6183 283.265 24.9905 285.425 24.6698L285.19 23.0872C282.926 23.4233 280.452 24.0767 278.128 24.6898L278.536 26.2369ZM277.565 26.4924C277.887 26.4082 278.211 26.3227 278.536 26.2369L278.128 24.6898C277.803 24.7757 277.48 24.8608 277.16 24.9445L277.565 26.4924ZM276.648 55.131V27.67H275.048V55.131H276.648ZM258.441 78.8C263.551 78.8 268.12 76.0769 271.386 71.7863C274.651 67.4964 276.648 61.6052 276.648 55.131H275.048C275.048 61.2869 273.148 66.8302 270.113 70.8173C267.079 74.8037 262.945 77.2 258.441 77.2V78.8ZM2.37363 78.8H258.441V77.2H2.37363V78.8ZM-0.8 74.8815C-0.8 75.9018 -0.486153 76.8553 0.0586392 77.5711C0.603909 78.2875 1.41496 78.8 2.37363 78.8V77.2C2.02138 77.2 1.64562 77.0144 1.3318 76.6021C1.01751 76.1891 0.8 75.5835 0.8 74.8815H-0.8ZM-0.8 3.15611V74.8815H0.8V3.15611H-0.8ZM2.37362 -0.762377C1.41496 -0.762377 0.603912 -0.249908 0.0586371 0.466482C-0.486158 1.18224 -0.8 2.13583 -0.8 3.15611H0.8C0.8 2.45411 1.01751 1.84845 1.3318 1.43554C1.6456 1.02325 2.02136 0.837623 2.37362 0.837623V-0.762377ZM270.926 -0.762377H2.37362V0.837623H270.926V-0.762377ZM271.543 -0.8C271.41 -0.8 271.275 -0.791973 271.141 -0.777284L271.314 0.813293C271.398 0.804186 271.474 0.8 271.543 0.8V-0.8ZM285.295 -0.8H271.543V0.8H285.295V-0.8ZM270.926 0.837623C271.071 0.837623 271.205 0.82519 271.314 0.813293L271.141 -0.777284C271.05 -0.767367 270.983 -0.762377 270.926 -0.762377V0.837623ZM277.16 24.9445C275.924 25.2679 275.048 26.3827 275.048 27.67H276.648C276.648 27.12 277.023 26.6341 277.565 26.4924L277.16 24.9445Z" fill="url(#paint0_linear_473_264)" fill-opacity="0.6" mask="url(#path-1-inside-1_473_264)"/>
<defs>
<linearGradient id="paint0_linear_473_264" x1="188.036" y1="1.90765e-05" x2="82.3324" y2="51.6126" gradientUnits="userSpaceOnUse">
<stop stop-color="white"/>
<stop offset="0.455515" stop-color="#F0F0F0"/>
<stop offset="1" stop-color="#B7B7B7"/>
</linearGradient>
</defs>
</svg>
