<svg width="364" height="78" viewBox="0 0 364 78" fill="none" xmlns="http://www.w3.org/2000/svg">
<mask id="path-1-inside-1_454_256" fill="white">
<path fill-rule="evenodd" clip-rule="evenodd" d="M360.581 0C362.47 0 364 1.34314 364 3V20.6548C364 22.3117 362.468 23.6587 360.596 23.8785C357.801 24.2069 354.732 24.8475 351.781 25.4634C351.267 25.5705 350.757 25.677 350.253 25.7809C349.317 25.9737 348.641 26.7956 348.641 27.7513V55.131C348.641 67.7611 338.791 78 326.641 78H3C1.34315 78 0 76.6037 0 74.8815V3.15611C0 1.43382 1.34314 0.0376234 2.99999 0.0376234H342.612C342.818 0.0128627 343.015 0 343.2 0H360.581Z"/>
</mask>
<path fill-rule="evenodd" clip-rule="evenodd" d="M360.581 0C362.47 0 364 1.34314 364 3V20.6548C364 22.3117 362.468 23.6587 360.596 23.8785C357.801 24.2069 354.732 24.8475 351.781 25.4634C351.267 25.5705 350.757 25.677 350.253 25.7809C349.317 25.9737 348.641 26.7956 348.641 27.7513V55.131C348.641 67.7611 338.791 78 326.641 78H3C1.34315 78 0 76.6037 0 74.8815V3.15611C0 1.43382 1.34314 0.0376234 2.99999 0.0376234H342.612C342.818 0.0128627 343.015 0 343.2 0H360.581Z" fill="#ACA5FD" fill-opacity="0.58"/>
<path d="M360.596 23.8785L360.503 23.0839L360.503 23.084L360.596 23.8785ZM351.781 25.4634L351.944 26.2465L351.944 26.2465L351.781 25.4634ZM342.612 0.0376234V0.837623H342.66L342.707 0.831898L342.612 0.0376234ZM350.253 25.7809L350.092 24.9973L350.253 25.7809ZM364.8 3C364.8 0.806363 362.81 -0.8 360.581 -0.8V0.8C362.13 0.8 363.2 1.87992 363.2 3H364.8ZM364.8 20.6548V3H363.2V20.6548H364.8ZM360.69 24.673C362.82 24.4229 364.8 22.8479 364.8 20.6548H363.2C363.2 21.7756 362.116 22.8945 360.503 23.0839L360.69 24.673ZM351.944 26.2465C354.903 25.6289 357.936 24.9965 360.69 24.673L360.503 23.084C357.666 23.4173 354.56 24.0661 351.617 24.6802L351.944 26.2465ZM350.415 26.5644C350.92 26.4603 351.431 26.3536 351.944 26.2465L351.617 24.6802C351.104 24.7874 350.595 24.8937 350.092 24.9973L350.415 26.5644ZM349.441 55.131V27.7513H347.841V55.131H349.441ZM326.641 78.8C339.262 78.8 349.441 68.1735 349.441 55.131H347.841C347.841 67.3488 338.32 77.2 326.641 77.2V78.8ZM3 78.8H326.641V77.2H3V78.8ZM-0.8 74.8815C-0.8 77.0161 0.872388 78.8 3 78.8V77.2C1.81391 77.2 0.8 76.1914 0.8 74.8815H-0.8ZM-0.8 3.15611V74.8815H0.8V3.15611H-0.8ZM2.99999 -0.762377C0.872384 -0.762377 -0.8 1.02149 -0.8 3.15611H0.8C0.8 1.84616 1.8139 0.837623 2.99999 0.837623V-0.762377ZM342.612 -0.762377H2.99999V0.837623H342.612V-0.762377ZM343.2 -0.8C342.979 -0.8 342.749 -0.784654 342.516 -0.756651L342.707 0.831898C342.886 0.81038 343.052 0.8 343.2 0.8V-0.8ZM360.581 -0.8H343.2V0.8H360.581V-0.8ZM350.092 24.9973C348.788 25.266 347.841 26.4123 347.841 27.7513H349.441C349.441 27.1789 349.847 26.6814 350.415 26.5644L350.092 24.9973Z" fill="url(#paint0_linear_454_256)" mask="url(#path-1-inside-1_454_256)"/>
<path d="M358.105 15.4149C357.977 15.4018 357.876 15.3881 357.804 15.3736C357.731 15.3523 357.666 15.3283 357.608 15.3015C357.55 15.2747 357.509 15.2285 357.483 15.1632C357.466 15.0918 357.451 15.0241 357.439 14.9601C357.427 14.8962 357.427 14.7918 357.439 14.6467C357.452 14.5016 357.464 14.36 357.476 14.2218C357.488 14.0837 357.503 13.89 357.522 13.6413C357.549 13.3863 357.568 13.1373 357.58 12.8947C357.626 12.1398 357.679 11.0966 357.74 9.76504C357.81 8.42726 357.866 7.28334 357.91 6.33327C357.955 5.37633 357.986 4.83943 358.001 4.72257C358.039 4.43384 358.137 4.23483 358.296 4.12554C358.459 4.01693 358.699 3.97879 359.017 4.01113L360.186 4.13085C360.502 4.16317 360.722 4.24844 360.848 4.38663C360.978 4.52551 361.026 4.7393 360.987 5.02803C360.971 5.14491 360.856 5.67321 360.643 6.61294C360.437 7.55336 360.185 8.67733 359.888 9.98485C359.601 11.2862 359.378 12.3122 359.224 13.0629C359.172 13.3014 359.122 13.5472 359.076 13.8002C359.036 14.047 359.003 14.2388 358.978 14.3755C358.96 14.513 358.938 14.6537 358.913 14.7972C358.888 14.9341 358.859 15.0358 358.831 15.1025C358.809 15.1631 358.781 15.2263 358.744 15.2923C358.71 15.3514 358.659 15.3881 358.597 15.4026C358.541 15.4178 358.474 15.4283 358.398 15.4345C358.323 15.4339 358.225 15.4274 358.105 15.4149ZM356.017 18.1175C356.081 17.6431 356.288 17.2602 356.64 16.9688C356.993 16.6773 357.469 16.5622 358.066 16.6235C358.652 16.6834 359.07 16.8933 359.322 17.2537C359.576 17.607 359.67 18.0175 359.608 18.4849C359.547 18.9454 359.347 19.3255 359.006 19.6253C358.667 19.9251 358.206 20.0449 357.62 19.9851C357.021 19.9239 356.589 19.7159 356.323 19.3612C356.057 18.9994 355.956 18.5849 356.017 18.1175Z" fill="#6464D3"/>
<path d="M354.349 16.1454C354.198 16.1588 354.081 16.1658 353.994 16.1663C353.904 16.1595 353.824 16.1481 353.75 16.1326C353.676 16.117 353.615 16.078 353.567 16.0157C353.525 15.9454 353.487 15.8783 353.454 15.8147C353.421 15.7509 353.39 15.6425 353.361 15.4896C353.331 15.3366 353.304 15.1873 353.274 15.0417C353.247 14.8961 353.205 14.6922 353.153 14.4301C353.106 14.1601 353.055 13.8981 352.994 13.6441C352.819 12.8522 352.567 11.7597 352.235 10.3668C351.911 8.9658 351.631 7.76833 351.395 6.77431C351.16 5.77298 351.032 5.21012 351.015 5.08572C350.972 4.77838 351.023 4.55143 351.169 4.40487C351.324 4.25758 351.586 4.16734 351.954 4.13409L353.319 4.01104C353.688 3.97781 353.965 4.01961 354.148 4.13647C354.338 4.25263 354.456 4.46438 354.499 4.77171C354.517 4.89611 354.546 5.46781 354.586 6.48683C354.634 7.50513 354.686 8.72313 354.743 10.1408C354.805 11.5505 354.863 12.6606 354.913 13.4712C354.927 13.7294 354.944 13.9946 354.966 14.2669C354.996 14.5308 355.017 14.7365 355.029 14.8836C355.049 15.03 355.067 15.1803 355.081 15.3346C355.093 15.4817 355.093 15.5929 355.079 15.6683C355.074 15.7355 355.06 15.8071 355.039 15.8832C355.017 15.9518 354.972 16.0003 354.904 16.0286C354.844 16.0563 354.773 16.0812 354.688 16.1036C354.603 16.1188 354.489 16.1327 354.349 16.1454ZM352.79 19.3871C352.719 18.8821 352.84 18.4414 353.152 18.065C353.465 17.6885 353.97 17.4689 354.669 17.4059C355.352 17.3443 355.89 17.4737 356.285 17.7938C356.679 18.1066 356.911 18.5119 356.98 19.0094C357.049 19.4996 356.937 19.9359 356.639 20.3183C356.344 20.7007 355.856 20.9227 355.172 20.9841C354.473 21.0471 353.92 20.9229 353.51 20.6114C353.1 20.2929 352.859 19.8846 352.79 19.3871Z" fill="white"/>
<defs>
<linearGradient id="paint0_linear_454_256" x1="237.657" y1="1.90765e-05" x2="117.839" y2="73.9425" gradientUnits="userSpaceOnUse">
<stop stop-color="white"/>
<stop offset="0.455515" stop-color="#F0F0F0"/>
<stop offset="1" stop-color="#B7B7B7"/>
</linearGradient>
</defs>
</svg>
