<svg width="358" height="78" viewBox="0 0 358 78" fill="none" xmlns="http://www.w3.org/2000/svg">
<mask id="path-1-inside-1_454_256" fill="white">
<path fill-rule="evenodd" clip-rule="evenodd" d="M355.37 -1.58615e-05C356.823 -1.58615e-05 358 1.34447 358 3.00297V20.6754C358 22.334 356.822 23.6823 355.382 23.9023C353.707 24.1583 351.905 24.6038 350.118 25.0795C349.245 25.3117 348.641 26.1044 348.641 27.0071V55.131C348.641 67.7611 338.791 78 326.641 78H3C1.34315 78 0 76.6037 0 74.8815V3.15611C0 1.43382 1.34314 0.0376234 2.99999 0.0376234H341.392C341.496 0.0376234 341.599 0.0283226 341.702 0.0170531C341.805 0.00577076 341.905 -1.58615e-05 342 -1.58615e-05H355.37Z"/>
</mask>
<path fill-rule="evenodd" clip-rule="evenodd" d="M355.37 -1.58615e-05C356.823 -1.58615e-05 358 1.34447 358 3.00297V20.6754C358 22.334 356.822 23.6823 355.382 23.9023C353.707 24.1583 351.905 24.6038 350.118 25.0795C349.245 25.3117 348.641 26.1044 348.641 27.0071V55.131C348.641 67.7611 338.791 78 326.641 78H3C1.34315 78 0 76.6037 0 74.8815V3.15611C0 1.43382 1.34314 0.0376234 2.99999 0.0376234H341.392C341.496 0.0376234 341.599 0.0283226 341.702 0.0170531C341.805 0.00577076 341.905 -1.58615e-05 342 -1.58615e-05H355.37Z" fill="#ACA5FD" fill-opacity="0.58"/>
<path d="M355.382 23.9023L355.261 23.1115L355.261 23.1115L355.382 23.9023ZM341.702 0.0170531L341.615 -0.778196L341.702 0.0170531ZM350.118 25.0795L350.323 25.8526L350.118 25.0795ZM358.8 3.00297C358.8 1.00572 357.361 -0.800016 355.37 -0.800016V0.799984C356.285 0.799984 357.2 1.68322 357.2 3.00297H358.8ZM358.8 20.6754V3.00297H357.2V20.6754H358.8ZM355.503 24.6931C357.357 24.4099 358.8 22.7051 358.8 20.6754H357.2C357.2 21.9629 356.287 22.9547 355.261 23.1115L355.503 24.6931ZM350.323 25.8526C352.107 25.3779 353.874 24.9421 355.503 24.6931L355.261 23.1115C353.541 23.3745 351.703 23.8297 349.912 24.3065L350.323 25.8526ZM349.441 55.131V27.0071H347.841V55.131H349.441ZM326.641 78.8C339.262 78.8 349.441 68.1735 349.441 55.131H347.841C347.841 67.3488 338.32 77.2 326.641 77.2V78.8ZM3 78.8H326.641V77.2H3V78.8ZM-0.8 74.8815C-0.8 77.0161 0.872388 78.8 3 78.8V77.2C1.81391 77.2 0.8 76.1914 0.8 74.8815H-0.8ZM-0.8 3.15611V74.8815H0.8V3.15611H-0.8ZM2.99999 -0.762377C0.872384 -0.762377 -0.8 1.02149 -0.8 3.15611H0.8C0.8 1.84616 1.8139 0.837623 2.99999 0.837623V-0.762377ZM341.392 -0.762377H2.99999V0.837623H341.392V-0.762377ZM342 -0.800016C341.873 -0.800016 341.744 -0.7923 341.615 -0.778196L341.789 0.812302C341.866 0.803841 341.937 0.799984 342 0.799984V-0.800016ZM355.37 -0.800016H342V0.799984H355.37V-0.800016ZM341.392 0.837623C341.541 0.837623 341.679 0.824349 341.789 0.812302L341.615 -0.778196C341.519 -0.767704 341.451 -0.762377 341.392 -0.762377V0.837623ZM349.912 24.3065C348.686 24.6327 347.841 25.745 347.841 27.0071H349.441C349.441 26.4638 349.804 25.9907 350.323 25.8526L349.912 24.3065Z" fill="url(#paint0_linear_454_256)" mask="url(#path-1-inside-1_454_256)"/>
<path d="M352.105 15.4149C351.977 15.4018 351.876 15.3881 351.804 15.3736C351.731 15.3523 351.666 15.3283 351.608 15.3015C351.55 15.2747 351.509 15.2285 351.483 15.1632C351.466 15.0918 351.451 15.0241 351.439 14.9601C351.427 14.8962 351.427 14.7918 351.439 14.6467C351.452 14.5016 351.464 14.36 351.476 14.2218C351.488 14.0837 351.503 13.89 351.522 13.6413C351.549 13.3863 351.568 13.1373 351.58 12.8947C351.626 12.1398 351.679 11.0966 351.74 9.76504C351.81 8.42726 351.866 7.28334 351.91 6.33327C351.955 5.37633 351.986 4.83943 352.001 4.72257C352.039 4.43384 352.137 4.23483 352.296 4.12554C352.459 4.01693 352.699 3.97879 353.017 4.01113L354.186 4.13085C354.502 4.16317 354.722 4.24844 354.848 4.38663C354.978 4.52551 355.026 4.7393 354.987 5.02803C354.971 5.14491 354.856 5.67321 354.643 6.61294C354.437 7.55336 354.185 8.67733 353.888 9.98485C353.601 11.2862 353.378 12.3122 353.224 13.0629C353.172 13.3014 353.122 13.5472 353.076 13.8002C353.036 14.047 353.003 14.2388 352.978 14.3755C352.96 14.513 352.938 14.6537 352.913 14.7972C352.888 14.9341 352.859 15.0358 352.831 15.1025C352.809 15.1631 352.781 15.2263 352.744 15.2923C352.71 15.3514 352.659 15.3881 352.597 15.4026C352.541 15.4178 352.474 15.4283 352.398 15.4345C352.323 15.4339 352.225 15.4274 352.105 15.4149ZM350.017 18.1175C350.081 17.6431 350.288 17.2602 350.64 16.9688C350.993 16.6773 351.469 16.5622 352.066 16.6235C352.652 16.6834 353.07 16.8933 353.322 17.2537C353.576 17.607 353.67 18.0175 353.608 18.4849C353.547 18.9454 353.347 19.3255 353.006 19.6253C352.667 19.9251 352.206 20.0449 351.62 19.9851C351.021 19.9239 350.589 19.7159 350.323 19.3612C350.057 18.9994 349.956 18.5849 350.017 18.1175Z" fill="#6464D3"/>
<path d="M348.349 16.1454C348.198 16.1588 348.081 16.1658 347.994 16.1663C347.904 16.1595 347.824 16.1481 347.75 16.1326C347.676 16.117 347.615 16.078 347.567 16.0157C347.525 15.9454 347.487 15.8783 347.454 15.8147C347.421 15.7509 347.39 15.6425 347.361 15.4896C347.331 15.3366 347.304 15.1873 347.274 15.0417C347.247 14.8961 347.205 14.6922 347.153 14.4301C347.106 14.1601 347.055 13.8981 346.994 13.6441C346.819 12.8522 346.567 11.7597 346.235 10.3668C345.911 8.9658 345.631 7.76833 345.395 6.77431C345.16 5.77298 345.032 5.21012 345.015 5.08572C344.972 4.77838 345.023 4.55143 345.169 4.40487C345.324 4.25758 345.586 4.16734 345.954 4.13409L347.319 4.01104C347.688 3.97781 347.965 4.01961 348.148 4.13647C348.338 4.25263 348.456 4.46438 348.499 4.77171C348.517 4.89611 348.546 5.46781 348.586 6.48683C348.634 7.50513 348.686 8.72313 348.743 10.1408C348.805 11.5505 348.863 12.6606 348.913 13.4712C348.927 13.7294 348.944 13.9946 348.966 14.2669C348.996 14.5308 349.017 14.7365 349.029 14.8836C349.049 15.03 349.067 15.1803 349.081 15.3346C349.093 15.4817 349.093 15.5929 349.079 15.6683C349.074 15.7355 349.06 15.8071 349.039 15.8832C349.017 15.9518 348.972 16.0003 348.904 16.0286C348.844 16.0563 348.773 16.0812 348.688 16.1036C348.603 16.1188 348.489 16.1327 348.349 16.1454ZM346.79 19.3871C346.719 18.8821 346.84 18.4414 347.152 18.065C347.465 17.6885 347.97 17.4689 348.669 17.4059C349.352 17.3443 349.89 17.4737 350.285 17.7938C350.679 18.1066 350.911 18.5119 350.98 19.0094C351.049 19.4996 350.937 19.9359 350.639 20.3183C350.344 20.7007 349.856 20.9227 349.172 20.9841C348.473 21.0471 347.92 20.9229 347.51 20.6114C347.1 20.2929 346.859 19.8846 346.79 19.3871Z" fill="white"/>
<defs>
<linearGradient id="paint0_linear_454_256" x1="237.657" y1="1.59715e-05" x2="117.839" y2="73.9425" gradientUnits="userSpaceOnUse">
<stop stop-color="white"/>
<stop offset="0.455515" stop-color="#F0F0F0"/>
<stop offset="1" stop-color="#B7B7B7"/>
</linearGradient>
</defs>
</svg>
