<svg width="288" height="83" viewBox="0 0 288 83" fill="none" xmlns="http://www.w3.org/2000/svg">
<mask id="path-1-inside-1_473_264" fill="white">
<path fill-rule="evenodd" clip-rule="evenodd" d="M285.295 0C286.789 0 288 1.42924 288 3.1923V21.9789C288 23.742 286.788 25.1753 285.307 25.4092C283.095 25.7586 280.667 26.4403 278.332 27.0956C277.997 27.1897 277.664 27.2833 277.333 27.3752C276.459 27.6185 275.848 28.4121 275.848 29.3195V58.6651C275.848 72.1048 268.054 83 258.441 83H2.37363C1.06271 83 0 81.5142 0 79.6816V3.35844C0 1.52575 1.0627 0.0400506 2.37362 0.0400506H270.917C271.024 0.0400506 271.13 0.0301133 271.237 0.0180966C271.343 0.00613488 271.445 0 271.543 0H285.295Z"/>
</mask>
<path fill-rule="evenodd" clip-rule="evenodd" d="M285.295 0C286.789 0 288 1.42924 288 3.1923V21.9789C288 23.742 286.788 25.1753 285.307 25.4092C283.095 25.7586 280.667 26.4403 278.332 27.0956C277.997 27.1897 277.664 27.2833 277.333 27.3752C276.459 27.6185 275.848 28.4121 275.848 29.3195V58.6651C275.848 72.1048 268.054 83 258.441 83H2.37363C1.06271 83 0 81.5142 0 79.6816V3.35844C0 1.52575 1.0627 0.0400506 2.37362 0.0400506H270.917C271.024 0.0400506 271.13 0.0301133 271.237 0.0180966C271.343 0.00613488 271.445 0 271.543 0H285.295Z" fill="#ACA5FD" fill-opacity="0.58"/>
<path d="M285.307 25.4092L285.182 24.6189L285.182 24.619L285.307 25.4092ZM278.332 27.0956L278.548 27.8659L278.548 27.8659L278.332 27.0956ZM271.237 0.0180966L271.147 -0.776844L271.237 0.0180966ZM277.333 27.3752L277.548 28.1459L277.333 27.3752ZM288.8 3.1923C288.8 1.11683 287.35 -0.8 285.295 -0.8V0.8C286.228 0.8 287.2 1.74165 287.2 3.1923H288.8ZM288.8 21.9789V3.1923H287.2V21.9789H288.8ZM285.432 26.1994C287.343 25.8976 288.8 24.0919 288.8 21.9789H287.2C287.2 23.392 286.233 24.4531 285.182 24.6189L285.432 26.1994ZM278.548 27.8659C280.894 27.2074 283.275 26.5401 285.432 26.1994L285.182 24.619C282.915 24.9772 280.439 25.6732 278.116 26.3254L278.548 27.8659ZM277.548 28.1459C277.879 28.0537 278.213 27.9599 278.548 27.8659L278.116 26.3254C277.78 26.4195 277.448 26.5128 277.119 26.6045L277.548 28.1459ZM276.648 58.6651V29.3195H275.048V58.6651H276.648ZM258.441 83.8C263.573 83.8 268.143 80.8907 271.4 76.3379C274.658 71.7835 276.648 65.5327 276.648 58.6651H275.048C275.048 65.2372 273.141 71.1538 270.099 75.407C267.055 79.6617 262.923 82.2 258.441 82.2V83.8ZM2.37363 83.8H258.441V82.2H2.37363V83.8ZM-0.8 79.6816C-0.8 80.7457 -0.492688 81.7424 0.0445415 82.4935C0.580714 83.243 1.39324 83.8 2.37363 83.8V82.2C2.04309 82.2 1.66881 82.0141 1.3459 81.5626C1.02404 81.1126 0.8 80.4502 0.8 79.6816H-0.8ZM-0.8 3.35844V79.6816H0.8V3.35844H-0.8ZM2.37362 -0.759949C1.39325 -0.759949 0.580717 -0.203031 0.044539 0.546563C-0.492693 1.29763 -0.8 2.29433 -0.8 3.35844H0.8C0.8 2.58986 1.02405 1.92737 1.34589 1.47741C1.6688 1.02598 2.04308 0.840051 2.37362 0.840051V-0.759949ZM270.917 -0.759949H2.37362V0.840051H270.917V-0.759949ZM271.543 -0.8C271.412 -0.8 271.279 -0.79181 271.147 -0.776844L271.326 0.813037C271.406 0.804079 271.478 0.8 271.543 0.8V-0.8ZM285.295 -0.8H271.543V0.8H285.295V-0.8ZM270.917 0.840051C271.07 0.840051 271.213 0.825868 271.326 0.813037L271.147 -0.776844C271.048 -0.765641 270.977 -0.759949 270.917 -0.759949V0.840051ZM277.119 26.6045C275.903 26.9427 275.048 28.0478 275.048 29.3195H276.648C276.648 28.7763 277.015 28.2943 277.548 28.1459L277.119 26.6045Z" fill="url(#paint0_linear_473_264)" mask="url(#path-1-inside-1_473_264)"/>
<defs>
<linearGradient id="paint0_linear_473_264" x1="188.036" y1="2.02993e-05" x2="79.8998" y2="49.6196" gradientUnits="userSpaceOnUse">
<stop stop-color="white" stop-opacity="0.6"/>
<stop offset="0.455515" stop-color="#F0F0F0" stop-opacity="0.6"/>
<stop offset="1" stop-color="#B7B7B7" stop-opacity="0.6"/>
</linearGradient>
</defs>
</svg>
