<svg width="364" height="78" viewBox="0 0 364 78" fill="none" xmlns="http://www.w3.org/2000/svg">
<mask id="path-1-inside-1_473_264" fill="white">
<path fill-rule="evenodd" clip-rule="evenodd" d="M360.581 0C362.47 0 364 1.34314 364 3V20.6548C364 22.3117 362.468 23.6587 360.596 23.8785C357.801 24.2069 354.732 24.8475 351.781 25.4634C351.267 25.5705 350.757 25.677 350.253 25.7809C349.317 25.9737 348.641 26.7956 348.641 27.7513V55.131C348.641 67.7611 338.791 78 326.641 78H3C1.34315 78 0 76.6037 0 74.8815V3.15611C0 1.43382 1.34314 0.0376234 2.99999 0.0376234H342.612C342.818 0.0128627 343.015 0 343.2 0H360.581Z"/>
</mask>
<path fill-rule="evenodd" clip-rule="evenodd" d="M360.581 0C362.47 0 364 1.34314 364 3V20.6548C364 22.3117 362.468 23.6587 360.596 23.8785C357.801 24.2069 354.732 24.8475 351.781 25.4634C351.267 25.5705 350.757 25.677 350.253 25.7809C349.317 25.9737 348.641 26.7956 348.641 27.7513V55.131C348.641 67.7611 338.791 78 326.641 78H3C1.34315 78 0 76.6037 0 74.8815V3.15611C0 1.43382 1.34314 0.0376234 2.99999 0.0376234H342.612C342.818 0.0128627 343.015 0 343.2 0H360.581Z" fill="#ACA5FD" fill-opacity="0.58"/>
<path d="M360.596 23.8785L360.503 23.0839L360.503 23.084L360.596 23.8785ZM351.781 25.4634L351.944 26.2465L351.944 26.2465L351.781 25.4634ZM342.612 0.0376234V0.837623H342.66L342.707 0.831898L342.612 0.0376234ZM350.253 25.7809L350.092 24.9973L350.253 25.7809ZM364.8 3C364.8 0.806363 362.81 -0.8 360.581 -0.8V0.8C362.13 0.8 363.2 1.87992 363.2 3H364.8ZM364.8 20.6548V3H363.2V20.6548H364.8ZM360.69 24.673C362.82 24.4229 364.8 22.8479 364.8 20.6548H363.2C363.2 21.7756 362.116 22.8945 360.503 23.0839L360.69 24.673ZM351.944 26.2465C354.903 25.6289 357.936 24.9965 360.69 24.673L360.503 23.084C357.666 23.4173 354.56 24.0661 351.617 24.6802L351.944 26.2465ZM350.415 26.5644C350.92 26.4603 351.431 26.3536 351.944 26.2465L351.617 24.6802C351.104 24.7874 350.595 24.8937 350.092 24.9973L350.415 26.5644ZM349.441 55.131V27.7513H347.841V55.131H349.441ZM326.641 78.8C339.262 78.8 349.441 68.1735 349.441 55.131H347.841C347.841 67.3488 338.32 77.2 326.641 77.2V78.8ZM3 78.8H326.641V77.2H3V78.8ZM-0.8 74.8815C-0.8 77.0161 0.872388 78.8 3 78.8V77.2C1.81391 77.2 0.8 76.1914 0.8 74.8815H-0.8ZM-0.8 3.15611V74.8815H0.8V3.15611H-0.8ZM2.99999 -0.762377C0.872384 -0.762377 -0.8 1.02149 -0.8 3.15611H0.8C0.8 1.84616 1.8139 0.837623 2.99999 0.837623V-0.762377ZM342.612 -0.762377H2.99999V0.837623H342.612V-0.762377ZM343.2 -0.8C342.979 -0.8 342.749 -0.784654 342.516 -0.756651L342.707 0.831898C342.886 0.81038 343.052 0.8 343.2 0.8V-0.8ZM360.581 -0.8H343.2V0.8H360.581V-0.8ZM350.092 24.9973C348.788 25.266 347.841 26.4123 347.841 27.7513H349.441C349.441 27.1789 349.847 26.6814 350.415 26.5644L350.092 24.9973Z" fill="url(#paint0_linear_473_264)" mask="url(#path-1-inside-1_473_264)"/>
<defs>
<linearGradient id="paint0_linear_473_264" x1="237.657" y1="1.90765e-05" x2="117.839" y2="73.9425" gradientUnits="userSpaceOnUse">
<stop stop-color="white"/>
<stop offset="0.455515" stop-color="#F0F0F0"/>
<stop offset="1" stop-color="#B7B7B7"/>
</linearGradient>
</defs>
</svg>
