<svg width="28" height="26" viewBox="0 0 28 26" fill="none" xmlns="http://www.w3.org/2000/svg">
<path d="M9.33333 1.84572C10.2563 1.84572 11.1586 2.11634 11.926 2.62337C12.6934 3.13039 13.2916 3.85105 13.6448 4.6942C13.998 5.53735 14.0904 6.46514 13.9103 7.36022C13.7303 8.25531 13.2858 9.0775 12.6332 9.72282C11.9805 10.3681 11.149 10.8076 10.2438 10.9857C9.33851 11.1637 8.4002 11.0723 7.54748 10.7231C6.69476 10.3738 5.96592 9.7824 5.45314 9.02358C4.94036 8.26477 4.66667 7.37264 4.66667 6.46002C4.66667 5.23623 5.15833 4.06256 6.0335 3.19722C6.90867 2.33187 8.09566 1.84572 9.33333 1.84572ZM9.33333 0C8.04116 0 6.77801 0.378874 5.70361 1.08871C4.62921 1.79855 3.79181 2.80746 3.29732 3.98788C2.80283 5.16829 2.67345 6.46718 2.92554 7.7203C3.17763 8.97342 3.79987 10.1245 4.71357 11.0279C5.62727 11.9314 6.7914 12.5466 8.05874 12.7959C9.32609 13.0452 10.6397 12.9172 11.8335 12.4283C13.0273 11.9394 14.0477 11.1114 14.7656 10.049C15.4835 8.98667 15.8667 7.73769 15.8667 6.46002C15.8667 4.74671 15.1783 3.10358 13.9531 1.8921C12.7279 0.680607 11.0661 0 9.33333 0ZM18.6667 24.9067C18.6667 25.4222 18.2488 25.8401 17.7333 25.8401C17.2179 25.8401 16.8 25.4222 16.8 24.9067V21.2258C16.8 20.002 16.3083 18.8283 15.4332 17.963C14.558 17.0976 13.371 16.6115 12.1333 16.6115H6.53333C5.29566 16.6115 4.10867 17.0976 3.2335 17.963C2.35833 18.8283 1.86667 20.002 1.86667 21.2258V24.9067C1.86667 25.4222 1.4488 25.8401 0.933333 25.8401C0.417868 25.8401 0 25.4222 0 24.9067V21.2258C0 19.5125 0.688331 17.8693 1.91357 16.6579C3.13881 15.4464 4.80059 14.7658 6.53333 14.7658H12.1333C13.8661 14.7658 15.5279 15.4464 16.7531 16.6579C17.9783 17.8693 18.6667 19.5125 18.6667 21.2258V24.9067ZM18.6667 2.76858C18.6667 2.2589 19.0798 1.84572 19.5895 1.84572H27.0771C27.5868 1.84572 28 2.2589 28 2.76858C28 3.27826 27.5868 3.69144 27.0771 3.69144H19.5895C19.0798 3.69144 18.6667 3.27826 18.6667 2.76858ZM18.6667 7.38288C18.6667 6.8732 19.0798 6.46002 19.5895 6.46002H27.0771C27.5868 6.46002 28 6.8732 28 7.38288C28 7.89256 27.5868 8.30574 27.0771 8.30574H19.5895C19.0798 8.30574 18.6667 7.89256 18.6667 7.38288ZM18.6667 11.9972C18.6667 11.4875 19.0798 11.0743 19.5895 11.0743H24.2771C24.7868 11.0743 25.2 11.4875 25.2 11.9972C25.2 12.5069 24.7868 12.92 24.2771 12.92H19.5895C19.0798 12.92 18.6667 12.5069 18.6667 11.9972Z" fill="white"/>
</svg>
