<svg width="100%" height="100%" viewBox="0 0 431 431" fill="none" xmlns="http://www.w3.org/2000/svg">
<path d="M287.662 1.18014C287.123 0.730855 286.443 0.484802 285.742 0.484802H48.2083C35.5511 0.484802 23.4123 5.51284 14.4624 14.4628C5.51241 23.4128 0.484375 35.5515 0.484375 48.2087V382.276C0.484375 394.933 5.51241 407.072 14.4624 416.022C23.4123 424.972 35.5511 430 48.2083 430H382.275C394.933 430 407.071 424.972 416.021 416.022C424.971 407.072 429.999 394.933 429.999 382.276V121.2C429.999 120.309 429.604 119.465 428.92 118.895L287.662 1.18014Z" fill="#8282EB" fill-opacity="0.77" stroke="url(#paint0_linear_378_97)" stroke-width="0.8" stroke-linecap="round" stroke-linejoin="round"/>
<path d="M282.149 0.484802V80.8115C282.149 91.4635 287.315 101.679 296.51 109.211C305.705 116.743 318.176 120.975 331.18 120.975H429.241" fill="#7472D3"/>
<path d="M282.149 0.484802V80.8115C282.149 91.4635 287.315 101.679 296.51 109.211C305.705 116.743 318.176 120.975 331.18 120.975H429.241" stroke="url(#paint1_linear_378_97)" stroke-width="0.8" stroke-linecap="round" stroke-linejoin="round"/>
<defs>
<linearGradient id="paint0_linear_378_97" x1="215.242" y1="0.484802" x2="215.242" y2="430" gradientUnits="userSpaceOnUse">
<stop stop-color="white"/>
<stop offset="0.49" stop-color="#919191"/>
<stop offset="0.905" stop-color="#E8E8E8"/>
</linearGradient>
<linearGradient id="paint1_linear_378_97" x1="355.695" y1="0.484802" x2="355.695" y2="120.975" gradientUnits="userSpaceOnUse">
<stop stop-color="white"/>
<stop offset="0.49" stop-color="#919191"/>
<stop offset="0.905" stop-color="#E8E8E8"/>
</linearGradient>
</defs>
</svg>
