<svg width="41" height="39" viewBox="0 0 41 39" fill="none" xmlns="http://www.w3.org/2000/svg">
<rect width="41" height="39" rx="11" fill="url(#paint0_linear_214_141)" fill-opacity="0.13"/>
<path d="M28.1891 15H14.8109C14.3629 15 14 15.3629 14 15.8109V29.1891C14 29.6371 14.3629 30 14.8103 30H28.1891C28.6365 30 29 29.6371 29 29.1891V15.8109C29 15.3629 28.6365 15 28.1891 15Z" stroke="white" stroke-linecap="round" stroke-linejoin="round"/>
<path d="M29 26.9953H29.7552C29.8588 27.007 29.9637 26.9968 30.0636 26.9653C30.1636 26.9339 30.2567 26.8818 30.3377 26.812C30.4187 26.7422 30.4859 26.6561 30.5356 26.5586C30.5853 26.4611 30.6164 26.3541 30.6271 26.2439L31.9955 12.389C32.0066 12.2787 31.9971 12.1672 31.9676 12.0609C31.9381 11.9545 31.8891 11.8554 31.8236 11.7692C31.758 11.683 31.6771 11.6114 31.5855 11.5585C31.4939 11.5056 31.3933 11.4724 31.2896 11.4609L18.2631 10.0048C18.1594 9.99299 18.0545 10.0031 17.9545 10.0345C17.8545 10.066 17.7613 10.1181 17.6802 10.1879C17.5991 10.2577 17.5318 10.3438 17.4821 10.4413C17.4324 10.5389 17.4013 10.6459 17.3906 10.7562L17 14.7098" stroke="white" stroke-linecap="round" stroke-linejoin="round"/>
<path d="M17.1478 12L10.7576 12.6622C10.293 12.7108 9.95543 13.1202 10.0048 13.5783L11.4666 27.2536C11.516 27.7117 11.9318 28.0434 12.3971 27.9954L13.488 27.8824M16.8084 18.5919H26M16.8084 21.2734H26M16.8084 23.9555H26M16.8084 26.637H21.0636" stroke="white" stroke-linecap="round" stroke-linejoin="round"/>
<defs>
<linearGradient id="paint0_linear_214_141" x1="20.6034" y1="1.02743e-08" x2="20.4518" y2="39.0002" gradientUnits="userSpaceOnUse">
<stop stop-color="#322FC9"/>
<stop offset="1" stop-color="#191763"/>
</linearGradient>
</defs>
</svg>
