<svg width="22" height="21" viewBox="0 0 22 21" fill="none" xmlns="http://www.w3.org/2000/svg">
<path d="M19.3556 2.76031H2.31111C1.96338 2.76031 1.6299 2.89845 1.38402 3.14433C1.13813 3.39021 1 3.7237 1 4.07143V18.9307C1 19.2784 1.13813 19.6119 1.38402 19.8578C1.6299 20.1037 1.96338 20.2418 2.31111 20.2418H19.3556C19.7033 20.2418 20.0368 20.1037 20.2826 19.8578C20.5285 19.6119 20.6667 19.2784 20.6667 18.9307V4.07143C20.6667 3.7237 20.5285 3.39021 20.2826 3.14433C20.0368 2.89845 19.7033 2.76031 19.3556 2.76031Z" stroke="#6D6BC8" stroke-width="1.6" stroke-linecap="round" stroke-linejoin="round"/>
<path d="M1 7.56775H20.6667" stroke="#6D6BC8" stroke-width="1.4" stroke-linejoin="round"/>
<path d="M6.68164 4.4963V1M14.5483 4.4963V1" stroke="#6D6BC8" stroke-width="1.2" stroke-linecap="round" stroke-linejoin="round"/>
<path d="M7.59038 11.6768C7.22171 11.6768 7.03738 11.8774 7.03738 12.2788V12.5028H8.06638V13.2028H7.05838V16.2128H6.18338V12.2648C6.18338 11.8681 6.30004 11.5531 6.53337 11.3198C6.76671 11.0864 7.09804 10.9698 7.52738 10.9698C7.85871 10.9698 8.12004 11.0374 8.31138 11.1728L8.06638 11.8308C7.92638 11.7281 7.76771 11.6768 7.59038 11.6768ZM10.3045 15.5198C10.7105 15.5198 11.0488 15.3844 11.3195 15.1138L11.7815 15.6528C11.6181 15.8534 11.4081 16.0051 11.1515 16.1078C10.8948 16.2104 10.6055 16.2618 10.2835 16.2618C9.87279 16.2618 9.51113 16.1801 9.19846 16.0168C8.88579 15.8534 8.64313 15.6271 8.47046 15.3378C8.30246 15.0438 8.21846 14.7124 8.21846 14.3438C8.21846 13.9798 8.30013 13.6531 8.46346 13.3638C8.63146 13.0698 8.86013 12.8411 9.14946 12.6778C9.44346 12.5144 9.77479 12.4328 10.1435 12.4328C10.4935 12.4328 10.8108 12.5098 11.0955 12.6638C11.3848 12.8131 11.6135 13.0301 11.7815 13.3148C11.9495 13.5948 12.0335 13.9238 12.0335 14.3018L9.17046 14.8618C9.25913 15.0764 9.40146 15.2398 9.59746 15.3518C9.79346 15.4638 10.0291 15.5198 10.3045 15.5198ZM10.1435 13.1328C9.82146 13.1328 9.56013 13.2378 9.35946 13.4478C9.16346 13.6578 9.06546 13.9401 9.06546 14.2948V14.3018L11.1795 13.8958C11.1188 13.6671 10.9951 13.4828 10.8085 13.3428C10.6265 13.2028 10.4048 13.1328 10.1435 13.1328ZM14.8761 12.4328C15.2401 12.4328 15.5645 12.5121 15.8491 12.6708C16.1385 12.8294 16.3648 13.0534 16.5281 13.3428C16.6915 13.6321 16.7731 13.9658 16.7731 14.3438C16.7731 14.7218 16.6915 15.0578 16.5281 15.3518C16.3648 15.6411 16.1385 15.8651 15.8491 16.0238C15.5645 16.1824 15.2401 16.2618 14.8761 16.2618C14.6195 16.2618 14.3838 16.2174 14.1691 16.1288C13.9591 16.0401 13.7818 15.9071 13.6371 15.7298V16.2128H12.8041V11.0188H13.6791V12.9298C13.8285 12.7664 14.0035 12.6428 14.2041 12.5588C14.4095 12.4748 14.6335 12.4328 14.8761 12.4328ZM14.7781 15.5128C15.1001 15.5128 15.3638 15.4054 15.5691 15.1908C15.7791 14.9761 15.8841 14.6938 15.8841 14.3438C15.8841 13.9938 15.7791 13.7114 15.5691 13.4968C15.3638 13.2821 15.1001 13.1748 14.7781 13.1748C14.5681 13.1748 14.3791 13.2238 14.2111 13.3218C14.0431 13.4151 13.9101 13.5504 13.8121 13.7278C13.7141 13.9051 13.6651 14.1104 13.6651 14.3438C13.6651 14.5771 13.7141 14.7824 13.8121 14.9598C13.9101 15.1371 14.0431 15.2748 14.2111 15.3728C14.3791 15.4661 14.5681 15.5128 14.7781 15.5128Z" fill="#6D6BC8"/>
</svg>
