<svg width="23" height="26" viewBox="0 0 23 26" fill="none" xmlns="http://www.w3.org/2000/svg">
<path d="M13.8 25.3026V25.3026C13.5234 25.4235 13.2408 25.1448 13.3579 24.8665L14.0993 23.1052C14.3212 22.5779 13.9341 21.9948 13.362 21.9948H11.5C8.30351 21.9948 5.58798 20.9331 3.3534 18.8095C1.11882 16.686 0.00102292 14.1049 7.00472e-07 11.0663C-0.00102152 8.02764 1.11678 5.44704 3.3534 3.32447C5.59002 1.20189 8.30556 0.139638 11.5 0.137695C13.0988 0.137695 14.5953 0.422324 15.9896 0.991581C17.3839 1.55987 18.6019 2.33895 19.6435 3.32884C20.6852 4.31872 21.505 5.4757 22.103 6.79975C22.701 8.12575 23 9.54792 23 11.0663C23 12.5516 22.7705 13.9781 22.3115 15.3459C21.8526 16.7137 21.2178 18.0062 20.4071 19.2234C19.5965 20.4406 18.6254 21.5626 17.4938 22.5894C16.3622 23.6162 15.8976 24.1281 14.5667 24.9091M15.3333 21.1752C15.3333 21.7103 15.9477 22.0006 16.3412 21.6379C17.7022 20.3834 18.8423 18.9665 19.7616 17.3874C20.8993 15.4328 21.4677 13.3258 21.4667 11.0663C21.4667 8.41912 20.5017 6.17901 18.5717 4.34592C16.6418 2.51284 14.2845 1.59581 11.5 1.59484C8.71547 1.59387 6.35822 2.5109 4.42827 4.34592C2.49831 6.18095 1.53333 8.42107 1.53333 11.0663C1.53333 13.7115 2.49831 15.9521 4.42827 17.7881C6.35822 19.6241 8.71547 20.5406 11.5 20.5377H14.6958C15.0479 20.5377 15.3333 20.8231 15.3333 21.1752V21.1752ZM11.5506 18.4554C11.8675 18.4554 12.1348 18.352 12.3525 18.1451C12.5703 17.9382 12.6791 17.6841 12.6791 17.383C12.6791 17.0818 12.5703 16.8278 12.3525 16.6209C12.1348 16.414 11.8675 16.31 11.5506 16.3091C11.2337 16.3091 10.9664 16.413 10.7487 16.6209C10.5299 16.8278 10.4205 17.0818 10.4205 17.383C10.4205 17.6841 10.5294 17.9382 10.7471 18.1451C10.9659 18.352 11.2337 18.4554 11.5506 18.4554ZM10.9233 13.4945C10.8736 13.8782 11.1942 14.1933 11.5811 14.1933V14.1933C11.9503 14.1933 12.247 13.9043 12.3221 13.5428C12.3846 13.2414 12.4771 12.9857 12.5994 12.7755C12.8018 12.4287 13.2822 11.8944 14.0407 11.1726C14.4823 10.7549 14.8319 10.328 15.0895 9.89181C15.3461 9.45661 15.4744 8.9573 15.4744 8.39387C15.4744 7.34181 15.0926 6.51561 14.329 5.91527C13.5654 5.31492 12.6418 5.01427 11.5583 5.0133C10.6107 5.0133 9.80822 5.25955 9.15093 5.75207C8.70559 6.08474 8.34069 6.46062 8.05624 6.87971C7.83543 7.20504 8.0154 7.62922 8.38435 7.76512V7.76512C8.71281 7.88611 9.07456 7.73251 9.27928 7.44858C9.44434 7.21965 9.64076 7.00337 9.86853 6.79975C10.2662 6.44615 10.8294 6.26935 11.5583 6.26935C12.4251 6.26935 13.0655 6.49327 13.4795 6.9411C13.8935 7.3899 14.1005 7.87949 14.1005 8.40989C14.1005 8.89755 13.9676 9.30992 13.7019 9.64701C13.4371 9.9841 13.0962 10.3508 12.6791 10.7472C11.9421 11.364 11.4581 11.9177 11.2271 12.4083C11.0772 12.7264 10.976 13.0885 10.9233 13.4945Z" fill="white"/>
</svg>
