<svg width="32" height="36" viewBox="0 0 32 36" fill="none" xmlns="http://www.w3.org/2000/svg">
<path d="M15.6602 19.328C15.5612 19.328 15.4831 19.3254 15.4258 19.3202C15.3685 19.3098 15.3164 19.2968 15.2695 19.2811C15.2227 19.2655 15.1862 19.2343 15.1602 19.1874C15.1393 19.1353 15.1211 19.0858 15.1055 19.0389C15.0898 18.9921 15.0794 18.9139 15.0742 18.8046C15.069 18.6952 15.0638 18.5884 15.0586 18.4843C15.0534 18.3801 15.0456 18.2343 15.0352 18.0468C15.0299 17.854 15.0195 17.6665 15.0039 17.4843C14.9622 16.9165 14.8971 16.1327 14.8086 15.1327C14.7253 14.1275 14.6523 13.2681 14.5898 12.5546C14.5273 11.8358 14.4961 11.4322 14.4961 11.3436C14.4961 11.1249 14.5508 10.9686 14.6602 10.8749C14.7747 10.7811 14.9544 10.7343 15.1992 10.7343H16.1055C16.3503 10.7343 16.5273 10.7811 16.6367 10.8749C16.7513 10.9686 16.8086 11.1249 16.8086 11.3436C16.8086 11.4322 16.7747 11.8358 16.707 12.5546C16.6445 13.2733 16.5664 14.1327 16.4727 15.1327C16.3841 16.1275 16.319 16.9113 16.2773 17.4843C16.2617 17.6665 16.2487 17.854 16.2383 18.0468C16.2331 18.2343 16.2279 18.3801 16.2227 18.4843C16.2227 18.5884 16.2201 18.6952 16.2148 18.8046C16.2096 18.9087 16.1992 18.9869 16.1836 19.0389C16.1732 19.0858 16.1576 19.1353 16.1367 19.1874C16.1159 19.2343 16.082 19.2655 16.0352 19.2811C15.9935 19.2968 15.944 19.3098 15.8867 19.3202C15.8294 19.3254 15.7539 19.328 15.6602 19.328ZM14.3398 21.5077C14.3398 21.1483 14.4596 20.8462 14.6992 20.6014C14.9388 20.3566 15.2904 20.2343 15.7539 20.2343C16.207 20.2343 16.5482 20.3593 16.7773 20.6093C17.0065 20.854 17.1211 21.1535 17.1211 21.5077C17.1211 21.8566 17.0065 22.1561 16.7773 22.4061C16.5482 22.6561 16.207 22.7811 15.7539 22.7811C15.2904 22.7811 14.9388 22.6587 14.6992 22.4139C14.4596 22.1639 14.3398 21.8619 14.3398 21.5077Z" fill="#E8E8FF"/>
<path d="M21.088 28.2317V29.501C21.088 30.8474 20.5521 32.1388 19.5982 33.0909C18.6443 34.043 17.3505 34.5779 16.0014 34.5779C14.6524 34.5779 13.3586 34.043 12.4047 33.0909C11.4507 32.1388 10.9148 30.8474 10.9148 29.501V28.2317M29.6462 25.648C27.6052 23.1548 26.1643 21.8856 26.1643 15.0119C26.1643 8.7173 22.9438 6.47473 20.2933 5.38557C19.9412 5.2412 19.6097 4.90961 19.5024 4.54867C19.0375 2.96927 17.7341 1.57788 16.0014 1.57788C14.2688 1.57788 12.9646 2.97007 12.5044 4.55026C12.3971 4.91516 12.0657 5.2412 11.7136 5.38557C9.05982 6.47632 5.84255 8.71096 5.84255 15.0119C5.83858 21.8856 4.39764 23.1548 2.35664 25.648C1.511 26.6809 2.25173 28.2317 3.73082 28.2317H28.28C29.7511 28.2317 30.4871 26.6761 29.6462 25.648Z" stroke="#E4E4FF" stroke-width="2" stroke-linecap="round" stroke-linejoin="round"/>
</svg>
