<svg width="22" height="26" viewBox="0 0 22 26" fill="none" xmlns="http://www.w3.org/2000/svg">
<path d="M11.3584 14.3594C11.278 14.3594 11.2145 14.3573 11.168 14.353C11.1214 14.3446 11.0791 14.334 11.041 14.3213C11.0029 14.3086 10.9733 14.2832 10.9521 14.2451C10.9352 14.2028 10.9204 14.1626 10.9077 14.1245C10.895 14.0864 10.8866 14.0229 10.8823 13.9341C10.8781 13.8452 10.8739 13.7585 10.8696 13.6738C10.8654 13.5892 10.859 13.4707 10.8506 13.3184C10.8464 13.1618 10.8379 13.0094 10.8252 12.8613C10.7913 12.4001 10.7384 11.7632 10.6665 10.9507C10.5988 10.134 10.5396 9.43571 10.4888 8.85596C10.438 8.27197 10.4126 7.94401 10.4126 7.87207C10.4126 7.69434 10.457 7.56738 10.5459 7.49121C10.639 7.41504 10.785 7.37695 10.9839 7.37695H11.7202C11.9191 7.37695 12.063 7.41504 12.1519 7.49121C12.245 7.56738 12.2915 7.69434 12.2915 7.87207C12.2915 7.94401 12.264 8.27197 12.209 8.85596C12.1582 9.43994 12.0947 10.1382 12.0186 10.9507C11.9466 11.759 11.8937 12.3958 11.8599 12.8613C11.8472 13.0094 11.8366 13.1618 11.8281 13.3184C11.8239 13.4707 11.8197 13.5892 11.8154 13.6738C11.8154 13.7585 11.8133 13.8452 11.8091 13.9341C11.8049 14.0187 11.7964 14.0822 11.7837 14.1245C11.7752 14.1626 11.7625 14.2028 11.7456 14.2451C11.7287 14.2832 11.7012 14.3086 11.6631 14.3213C11.6292 14.334 11.589 14.3446 11.5425 14.353C11.4959 14.3573 11.4346 14.3594 11.3584 14.3594ZM10.2856 16.1304C10.2856 15.8384 10.383 15.5929 10.5776 15.394C10.7723 15.1951 11.0579 15.0957 11.4346 15.0957C11.8027 15.0957 12.0799 15.1973 12.2661 15.4004C12.4523 15.5993 12.5454 15.8426 12.5454 16.1304C12.5454 16.4139 12.4523 16.6572 12.2661 16.8604C12.0799 17.0635 11.8027 17.165 11.4346 17.165C11.0579 17.165 10.7723 17.0656 10.5776 16.8667C10.383 16.6636 10.2856 16.4181 10.2856 16.1304Z" fill="#E8E8FF"/>
<path d="M14.634 20.3846V21.3077C14.634 22.287 14.2512 23.2261 13.5698 23.9185C12.8884 24.611 11.9643 25 11.0007 25C10.0371 25 9.11293 24.611 8.43156 23.9185C7.75019 23.2261 7.3674 22.287 7.3674 21.3077V20.3846M20.747 18.5056C19.2891 16.6923 18.2599 15.7692 18.2599 10.7702C18.2599 6.19231 15.9595 4.56135 14.0663 3.76923C13.8148 3.66423 13.578 3.42308 13.5014 3.16058C13.1693 2.01192 12.2383 1 11.0007 1C9.76309 1 8.8315 2.0125 8.5028 3.16173C8.42616 3.42712 8.18943 3.66423 7.93793 3.76923C6.04238 4.5625 3.74433 6.18769 3.74433 10.7702C3.74149 15.7692 2.71225 16.6923 1.2544 18.5056C0.650364 19.2567 1.17946 20.3846 2.23595 20.3846H19.7711C20.8219 20.3846 21.3476 19.2533 20.747 18.5056Z" stroke="#E4E4FF" stroke-width="2" stroke-linecap="round" stroke-linejoin="round"/>
</svg>
