<svg width="30" height="26" viewBox="0 0 30 26" fill="none" xmlns="http://www.w3.org/2000/svg">
<g filter="url(#filter0_ii_507_105)">
<path d="M0.00108612 10.9C0.00108612 8.96601 1.26971 7.32401 3.06852 6.62401C3.1626 6.58885 3.2416 6.52529 3.29314 6.4433C3.34468 6.36131 3.36583 6.26554 3.35327 6.17101C3.33362 6.02436 3.32263 5.8768 3.32033 5.72901C3.32033 3.15901 5.55159 1.07601 8.30559 1.07601C9.28946 1.07601 10.1905 1.34901 10.9586 1.81201C11.0715 1.87764 11.207 1.89931 11.3366 1.87242C11.4661 1.84554 11.5794 1.77222 11.6525 1.66801C12.0086 1.15467 12.4954 0.733218 13.0685 0.441922C13.6417 0.150626 14.2831 -0.00127798 14.9345 8.09875e-06C16.302 8.09875e-06 17.5058 0.660008 18.1975 1.65601C18.2698 1.76088 18.3828 1.83502 18.5124 1.86266C18.642 1.89031 18.7779 1.86926 18.8913 1.80401C19.6818 1.32458 20.6018 1.06847 21.5422 1.06601C24.2962 1.06601 26.5275 3.14801 26.5275 5.71901C26.5268 5.86901 26.5161 6.01601 26.4956 6.16001C26.4836 6.2546 26.5048 6.3503 26.556 6.43247C26.6072 6.51464 26.6857 6.57875 26.7793 6.61501C28.5876 7.32301 29.8584 8.96501 29.8584 10.9C29.8584 12.833 28.5887 14.475 26.7899 15.175C26.5986 15.25 26.4786 15.435 26.5051 15.628C26.5248 15.7747 26.5358 15.9222 26.5381 16.07C26.5381 18.64 24.3068 20.723 21.5528 20.723C20.57 20.723 19.669 20.451 18.9008 19.988C18.7876 19.9229 18.6519 19.9017 18.5224 19.9287C18.3928 19.9557 18.2794 20.029 18.206 20.133C17.851 20.6419 17.3671 21.0597 16.7979 21.3488C16.2287 21.6379 15.592 21.7892 14.9451 21.789C13.5777 21.789 12.3739 21.129 11.6822 20.133C11.6098 20.0281 11.4968 19.954 11.3672 19.9264C11.2377 19.8987 11.1017 19.9198 10.9884 19.985C10.1979 20.4644 9.27789 20.7205 8.33746 20.723C5.58346 20.723 3.35221 18.641 3.35221 16.07C3.35363 15.9207 3.36425 15.774 3.38409 15.63C3.39588 15.5351 3.37419 15.4391 3.32236 15.3569C3.27052 15.2747 3.19141 15.2108 3.09721 15.175C1.28034 14.475 2.21729e-05 12.833 2.21729e-05 10.9" fill="url(#paint0_radial_507_105)"/>
<path d="M0.00108612 10.9C0.00108612 8.96601 1.26971 7.32401 3.06852 6.62401C3.1626 6.58885 3.2416 6.52529 3.29314 6.4433C3.34468 6.36131 3.36583 6.26554 3.35327 6.17101C3.33362 6.02436 3.32263 5.8768 3.32033 5.72901C3.32033 3.15901 5.55159 1.07601 8.30559 1.07601C9.28946 1.07601 10.1905 1.34901 10.9586 1.81201C11.0715 1.87764 11.207 1.89931 11.3366 1.87242C11.4661 1.84554 11.5794 1.77222 11.6525 1.66801C12.0086 1.15467 12.4954 0.733218 13.0685 0.441922C13.6417 0.150626 14.2831 -0.00127798 14.9345 8.09875e-06C16.302 8.09875e-06 17.5058 0.660008 18.1975 1.65601C18.2698 1.76088 18.3828 1.83502 18.5124 1.86266C18.642 1.89031 18.7779 1.86926 18.8913 1.80401C19.6818 1.32458 20.6018 1.06847 21.5422 1.06601C24.2962 1.06601 26.5275 3.14801 26.5275 5.71901C26.5268 5.86901 26.5161 6.01601 26.4956 6.16001C26.4836 6.2546 26.5048 6.3503 26.556 6.43247C26.6072 6.51464 26.6857 6.57875 26.7793 6.61501C28.5876 7.32301 29.8584 8.96501 29.8584 10.9C29.8584 12.833 28.5887 14.475 26.7899 15.175C26.5986 15.25 26.4786 15.435 26.5051 15.628C26.5248 15.7747 26.5358 15.9222 26.5381 16.07C26.5381 18.64 24.3068 20.723 21.5528 20.723C20.57 20.723 19.669 20.451 18.9008 19.988C18.7876 19.9229 18.6519 19.9017 18.5224 19.9287C18.3928 19.9557 18.2794 20.029 18.206 20.133C17.851 20.6419 17.3671 21.0597 16.7979 21.3488C16.2287 21.6379 15.592 21.7892 14.9451 21.789C13.5777 21.789 12.3739 21.129 11.6822 20.133C11.6098 20.0281 11.4968 19.954 11.3672 19.9264C11.2377 19.8987 11.1017 19.9198 10.9884 19.985C10.1979 20.4644 9.27789 20.7205 8.33746 20.723C5.58346 20.723 3.35221 18.641 3.35221 16.07C3.35363 15.9207 3.36425 15.774 3.38409 15.63C3.39588 15.5351 3.37419 15.4391 3.32236 15.3569C3.27052 15.2747 3.19141 15.2108 3.09721 15.175C1.28034 14.475 2.21729e-05 12.833 2.21729e-05 10.9" fill="url(#paint1_radial_507_105)"/>
<path d="M0.00108612 10.9C0.00108612 8.96601 1.26971 7.32401 3.06852 6.62401C3.1626 6.58885 3.2416 6.52529 3.29314 6.4433C3.34468 6.36131 3.36583 6.26554 3.35327 6.17101C3.33362 6.02436 3.32263 5.8768 3.32033 5.72901C3.32033 3.15901 5.55159 1.07601 8.30559 1.07601C9.28946 1.07601 10.1905 1.34901 10.9586 1.81201C11.0715 1.87764 11.207 1.89931 11.3366 1.87242C11.4661 1.84554 11.5794 1.77222 11.6525 1.66801C12.0086 1.15467 12.4954 0.733218 13.0685 0.441922C13.6417 0.150626 14.2831 -0.00127798 14.9345 8.09875e-06C16.302 8.09875e-06 17.5058 0.660008 18.1975 1.65601C18.2698 1.76088 18.3828 1.83502 18.5124 1.86266C18.642 1.89031 18.7779 1.86926 18.8913 1.80401C19.6818 1.32458 20.6018 1.06847 21.5422 1.06601C24.2962 1.06601 26.5275 3.14801 26.5275 5.71901C26.5268 5.86901 26.5161 6.01601 26.4956 6.16001C26.4836 6.2546 26.5048 6.3503 26.556 6.43247C26.6072 6.51464 26.6857 6.57875 26.7793 6.61501C28.5876 7.32301 29.8584 8.96501 29.8584 10.9C29.8584 12.833 28.5887 14.475 26.7899 15.175C26.5986 15.25 26.4786 15.435 26.5051 15.628C26.5248 15.7747 26.5358 15.9222 26.5381 16.07C26.5381 18.64 24.3068 20.723 21.5528 20.723C20.57 20.723 19.669 20.451 18.9008 19.988C18.7876 19.9229 18.6519 19.9017 18.5224 19.9287C18.3928 19.9557 18.2794 20.029 18.206 20.133C17.851 20.6419 17.3671 21.0597 16.7979 21.3488C16.2287 21.6379 15.592 21.7892 14.9451 21.789C13.5777 21.789 12.3739 21.129 11.6822 20.133C11.6098 20.0281 11.4968 19.954 11.3672 19.9264C11.2377 19.8987 11.1017 19.9198 10.9884 19.985C10.1979 20.4644 9.27789 20.7205 8.33746 20.723C5.58346 20.723 3.35221 18.641 3.35221 16.07C3.35363 15.9207 3.36425 15.774 3.38409 15.63C3.39588 15.5351 3.37419 15.4391 3.32236 15.3569C3.27052 15.2747 3.19141 15.2108 3.09721 15.175C1.28034 14.475 2.21729e-05 12.833 2.21729e-05 10.9" fill="url(#paint2_radial_507_105)"/>
<path d="M0.00108612 10.9C0.00108612 8.96601 1.26971 7.32401 3.06852 6.62401C3.1626 6.58885 3.2416 6.52529 3.29314 6.4433C3.34468 6.36131 3.36583 6.26554 3.35327 6.17101C3.33362 6.02436 3.32263 5.8768 3.32033 5.72901C3.32033 3.15901 5.55159 1.07601 8.30559 1.07601C9.28946 1.07601 10.1905 1.34901 10.9586 1.81201C11.0715 1.87764 11.207 1.89931 11.3366 1.87242C11.4661 1.84554 11.5794 1.77222 11.6525 1.66801C12.0086 1.15467 12.4954 0.733218 13.0685 0.441922C13.6417 0.150626 14.2831 -0.00127798 14.9345 8.09875e-06C16.302 8.09875e-06 17.5058 0.660008 18.1975 1.65601C18.2698 1.76088 18.3828 1.83502 18.5124 1.86266C18.642 1.89031 18.7779 1.86926 18.8913 1.80401C19.6818 1.32458 20.6018 1.06847 21.5422 1.06601C24.2962 1.06601 26.5275 3.14801 26.5275 5.71901C26.5268 5.86901 26.5161 6.01601 26.4956 6.16001C26.4836 6.2546 26.5048 6.3503 26.556 6.43247C26.6072 6.51464 26.6857 6.57875 26.7793 6.61501C28.5876 7.32301 29.8584 8.96501 29.8584 10.9C29.8584 12.833 28.5887 14.475 26.7899 15.175C26.5986 15.25 26.4786 15.435 26.5051 15.628C26.5248 15.7747 26.5358 15.9222 26.5381 16.07C26.5381 18.64 24.3068 20.723 21.5528 20.723C20.57 20.723 19.669 20.451 18.9008 19.988C18.7876 19.9229 18.6519 19.9017 18.5224 19.9287C18.3928 19.9557 18.2794 20.029 18.206 20.133C17.851 20.6419 17.3671 21.0597 16.7979 21.3488C16.2287 21.6379 15.592 21.7892 14.9451 21.789C13.5777 21.789 12.3739 21.129 11.6822 20.133C11.6098 20.0281 11.4968 19.954 11.3672 19.9264C11.2377 19.8987 11.1017 19.9198 10.9884 19.985C10.1979 20.4644 9.27789 20.7205 8.33746 20.723C5.58346 20.723 3.35221 18.641 3.35221 16.07C3.35363 15.9207 3.36425 15.774 3.38409 15.63C3.39588 15.5351 3.37419 15.4391 3.32236 15.3569C3.27052 15.2747 3.19141 15.2108 3.09721 15.175C1.28034 14.475 2.21729e-05 12.833 2.21729e-05 10.9" fill="url(#paint3_linear_507_105)"/>
<path d="M0.00108528 10.9C0.00108528 8.96601 1.26971 7.32401 3.06852 6.62401C3.1626 6.58885 3.2416 6.52529 3.29314 6.4433C3.34468 6.36131 3.36583 6.26554 3.35327 6.17101C3.33362 6.02436 3.32263 5.8768 3.32034 5.72901C3.32034 3.15901 5.55159 1.07601 8.30559 1.07601C9.28946 1.07601 10.1905 1.34901 10.9586 1.81201C11.0715 1.87764 11.207 1.89931 11.3366 1.87242C11.4661 1.84554 11.5794 1.77222 11.6525 1.66801C12.0086 1.15467 12.4954 0.733218 13.0685 0.441922C13.6417 0.150626 14.2831 -0.00127798 14.9345 8.09875e-06C16.302 8.09875e-06 17.5058 0.660008 18.1975 1.65601C18.2698 1.76088 18.3828 1.83502 18.5124 1.86266C18.642 1.89031 18.7779 1.86926 18.8913 1.80401C19.6818 1.32458 20.6018 1.06847 21.5422 1.06601C24.2962 1.06601 26.5275 3.14801 26.5275 5.71901C26.5268 5.86901 26.5161 6.01601 26.4956 6.16001C26.4836 6.2546 26.5048 6.3503 26.556 6.43247C26.6072 6.51464 26.6857 6.57875 26.7793 6.61501C28.5876 7.32301 29.8584 8.96501 29.8584 10.9C29.8584 12.833 28.5887 14.475 26.7899 15.175C26.5986 15.25 26.4786 15.435 26.5051 15.628C26.5248 15.7747 26.5358 15.9222 26.5381 16.07C26.5381 18.64 24.3068 20.723 21.5528 20.723C20.57 20.723 19.669 20.451 18.9008 19.988C18.7876 19.9229 18.6519 19.9017 18.5224 19.9287C18.3928 19.9557 18.2794 20.029 18.206 20.133C17.851 20.6419 17.3671 21.0597 16.7979 21.3488C16.2287 21.6379 15.592 21.7892 14.9451 21.789C13.5777 21.789 12.3739 21.129 11.6822 20.133C11.6098 20.0281 11.4968 19.954 11.3672 19.9264C11.2377 19.8987 11.1017 19.9198 10.9884 19.985C10.1979 20.4644 9.27789 20.7205 8.33746 20.723C5.58346 20.723 3.35221 18.641 3.35221 16.07C3.35363 15.9207 3.36425 15.774 3.38409 15.63C3.39588 15.5351 3.37419 15.4391 3.32236 15.3569C3.27052 15.2747 3.19141 15.2108 3.09721 15.175C1.28033 14.475 2.28882e-05 12.833 2.28882e-05 10.9" fill="url(#paint4_radial_507_105)"/>
</g>
<g filter="url(#filter1_i_507_105)">
<path d="M26.9354 25.914C26.176 25.914 25.4476 25.6301 24.9106 25.1246C24.3736 24.6192 24.072 23.9337 24.072 23.219C24.072 22.5042 24.3736 21.8187 24.9106 21.3133C25.4476 20.8079 26.176 20.524 26.9354 20.524C27.6948 20.524 28.4231 20.8079 28.9601 21.3133C29.4971 21.8187 29.7988 22.5042 29.7988 23.219C29.7988 23.9337 29.4971 24.6192 28.9601 25.1246C28.4231 25.6301 27.6948 25.914 26.9354 25.914Z" fill="url(#paint5_radial_507_105)"/>
<path d="M26.9354 25.914C26.176 25.914 25.4476 25.6301 24.9106 25.1246C24.3736 24.6192 24.072 23.9337 24.072 23.219C24.072 22.5042 24.3736 21.8187 24.9106 21.3133C25.4476 20.8079 26.176 20.524 26.9354 20.524C27.6948 20.524 28.4231 20.8079 28.9601 21.3133C29.4971 21.8187 29.7988 22.5042 29.7988 23.219C29.7988 23.9337 29.4971 24.6192 28.9601 25.1246C28.4231 25.6301 27.6948 25.914 26.9354 25.914Z" fill="url(#paint6_radial_507_105)"/>
<path d="M26.9354 25.914C26.176 25.914 25.4476 25.6301 24.9106 25.1246C24.3736 24.6192 24.072 23.9337 24.072 23.219C24.072 22.5042 24.3736 21.8187 24.9106 21.3133C25.4476 20.8079 26.176 20.524 26.9354 20.524C27.6948 20.524 28.4231 20.8079 28.9601 21.3133C29.4971 21.8187 29.7988 22.5042 29.7988 23.219C29.7988 23.9337 29.4971 24.6192 28.9601 25.1246C28.4231 25.6301 27.6948 25.914 26.9354 25.914Z" fill="url(#paint7_radial_507_105)"/>
<path d="M26.9354 25.914C26.176 25.914 25.4476 25.6301 24.9106 25.1246C24.3736 24.6192 24.072 23.9337 24.072 23.219C24.072 22.5042 24.3736 21.8187 24.9106 21.3133C25.4476 20.8079 26.176 20.524 26.9354 20.524C27.6948 20.524 28.4231 20.8079 28.9601 21.3133C29.4971 21.8187 29.7988 22.5042 29.7988 23.219C29.7988 23.9337 29.4971 24.6192 28.9601 25.1246C28.4231 25.6301 27.6948 25.914 26.9354 25.914Z" fill="url(#paint8_linear_507_105)"/>
<path d="M26.9354 25.914C26.176 25.914 25.4476 25.6301 24.9106 25.1246C24.3736 24.6192 24.072 23.9337 24.072 23.219C24.072 22.5042 24.3736 21.8187 24.9106 21.3133C25.4476 20.8079 26.176 20.524 26.9354 20.524C27.6948 20.524 28.4231 20.8079 28.9601 21.3133C29.4971 21.8187 29.7988 22.5042 29.7988 23.219C29.7988 23.9337 29.4971 24.6192 28.9601 25.1246C28.4231 25.6301 27.6948 25.914 26.9354 25.914Z" fill="url(#paint9_radial_507_105)"/>
</g>
<g filter="url(#filter2_f_507_105)">
<path d="M22.8298 9.02299L25.8229 5.22699L26.0853 6.66399L27.3423 7.17099L22.8298 9.02299Z" fill="url(#paint10_linear_507_105)" fill-opacity="0.6"/>
</g>
<g filter="url(#filter3_f_507_105)">
<path d="M6.19948 2.95203C4.07873 3.72103 4.02773 5.81803 4.26573 6.77203L7.52441 8.12203L6.19948 2.95203Z" fill="url(#paint11_linear_507_105)"/>
</g>
<g filter="url(#filter4_f_507_105)">
<path d="M4.7896 14.463C3.35522 16.203 4.64829 18.425 5.50891 18.905L9.7876 12.695L4.7896 14.463Z" fill="url(#paint12_linear_507_105)"/>
</g>
<g filter="url(#filter5_f_507_105)">
<path d="M18.733 2.796C17.5855 3.918 17.6812 5.792 17.865 6.486L22.6133 2.171C21.7973 1.859 19.8816 1.673 18.733 2.796Z" fill="#FAFAFC" fill-opacity="0.25"/>
</g>
<g filter="url(#filter6_f_507_105)">
<path d="M12.3281 6.25103L11.4452 2.49703C9.47106 1.52203 8.4075 1.63903 7.98037 1.63903L12.3281 6.25103Z" fill="#E6E4EC" fill-opacity="0.5"/>
</g>
<defs>
<filter id="filter0_ii_507_105" x="0" y="-0.3" width="29.9584" height="22.189" filterUnits="userSpaceOnUse" color-interpolation-filters="sRGB">
<feFlood flood-opacity="0" result="BackgroundImageFix"/>
<feBlend mode="normal" in="SourceGraphic" in2="BackgroundImageFix" result="shape"/>
<feColorMatrix in="SourceAlpha" type="matrix" values="0 0 0 0 0 0 0 0 0 0 0 0 0 0 0 0 0 0 127 0" result="hardAlpha"/>
<feOffset dx="0.1" dy="0.1"/>
<feGaussianBlur stdDeviation="0.5"/>
<feComposite in2="hardAlpha" operator="arithmetic" k2="-1" k3="1"/>
<feColorMatrix type="matrix" values="0 0 0 0 0.716667 0 0 0 0 0.716667 0 0 0 0 0.716667 0 0 0 1 0"/>
<feBlend mode="normal" in2="shape" result="effect1_innerShadow_507_105"/>
<feColorMatrix in="SourceAlpha" type="matrix" values="0 0 0 0 0 0 0 0 0 0 0 0 0 0 0 0 0 0 127 0" result="hardAlpha"/>
<feOffset dy="-0.3"/>
<feGaussianBlur stdDeviation="0.25"/>
<feComposite in2="hardAlpha" operator="arithmetic" k2="-1" k3="1"/>
<feColorMatrix type="matrix" values="0 0 0 0 0.764633 0 0 0 0 0.670625 0 0 0 0 0.925 0 0 0 1 0"/>
<feBlend mode="normal" in2="effect1_innerShadow_507_105" result="effect2_innerShadow_507_105"/>
</filter>
<filter id="filter1_i_507_105" x="24.0718" y="20.524" width="5.82705" height="5.49001" filterUnits="userSpaceOnUse" color-interpolation-filters="sRGB">
<feFlood flood-opacity="0" result="BackgroundImageFix"/>
<feBlend mode="normal" in="SourceGraphic" in2="BackgroundImageFix" result="shape"/>
<feColorMatrix in="SourceAlpha" type="matrix" values="0 0 0 0 0 0 0 0 0 0 0 0 0 0 0 0 0 0 127 0" result="hardAlpha"/>
<feOffset dx="0.1" dy="0.1"/>
<feGaussianBlur stdDeviation="0.5"/>
<feComposite in2="hardAlpha" operator="arithmetic" k2="-1" k3="1"/>
<feColorMatrix type="matrix" values="0 0 0 0 0.758333 0 0 0 0 0.758333 0 0 0 0 0.758333 0 0 0 1 0"/>
<feBlend mode="normal" in2="shape" result="effect1_innerShadow_507_105"/>
</filter>
<filter id="filter2_f_507_105" x="22.2301" y="4.62699" width="5.71221" height="4.99602" filterUnits="userSpaceOnUse" color-interpolation-filters="sRGB">
<feFlood flood-opacity="0" result="BackgroundImageFix"/>
<feBlend mode="normal" in="SourceGraphic" in2="BackgroundImageFix" result="shape"/>
<feGaussianBlur stdDeviation="0.3" result="effect1_foregroundBlur_507_105"/>
</filter>
<filter id="filter3_f_507_105" x="3.16895" y="1.95203" width="5.35547" height="7.16998" filterUnits="userSpaceOnUse" color-interpolation-filters="sRGB">
<feFlood flood-opacity="0" result="BackgroundImageFix"/>
<feBlend mode="normal" in="SourceGraphic" in2="BackgroundImageFix" result="shape"/>
<feGaussianBlur stdDeviation="0.5" result="effect1_foregroundBlur_507_105"/>
</filter>
<filter id="filter4_f_507_105" x="2.14697" y="10.695" width="9.64062" height="10.21" filterUnits="userSpaceOnUse" color-interpolation-filters="sRGB">
<feFlood flood-opacity="0" result="BackgroundImageFix"/>
<feBlend mode="normal" in="SourceGraphic" in2="BackgroundImageFix" result="shape"/>
<feGaussianBlur stdDeviation="1" result="effect1_foregroundBlur_507_105"/>
</filter>
<filter id="filter5_f_507_105" x="16.7534" y="0.93219" width="6.85986" height="6.55383" filterUnits="userSpaceOnUse" color-interpolation-filters="sRGB">
<feFlood flood-opacity="0" result="BackgroundImageFix"/>
<feBlend mode="normal" in="SourceGraphic" in2="BackgroundImageFix" result="shape"/>
<feGaussianBlur stdDeviation="0.5" result="effect1_foregroundBlur_507_105"/>
</filter>
<filter id="filter6_f_507_105" x="6.98047" y="0.634644" width="6.34766" height="6.61639" filterUnits="userSpaceOnUse" color-interpolation-filters="sRGB">
<feFlood flood-opacity="0" result="BackgroundImageFix"/>
<feBlend mode="normal" in="SourceGraphic" in2="BackgroundImageFix" result="shape"/>
<feGaussianBlur stdDeviation="0.5" result="effect1_foregroundBlur_507_105"/>
</filter>
<radialGradient id="paint0_radial_507_105" cx="0" cy="0" r="1" gradientUnits="userSpaceOnUse" gradientTransform="translate(10.0551 3.80929) rotate(76.4647) scale(15.786 31.3425)">
<stop stop-color="white"/>
<stop offset="1" stop-color="#E4DBF7"/>
</radialGradient>
<radialGradient id="paint1_radial_507_105" cx="0" cy="0" r="1" gradientUnits="userSpaceOnUse" gradientTransform="translate(9.73138 20.4568) rotate(-13.8896) scale(25.574 44.7629)">
<stop offset="0.523" stop-color="#CECECE" stop-opacity="0"/>
<stop offset="1" stop-color="#CECECE"/>
</radialGradient>
<radialGradient id="paint2_radial_507_105" cx="0" cy="0" r="1" gradientUnits="userSpaceOnUse" gradientTransform="translate(9.3523 20.5067) rotate(-47.0444) scale(24.8502 20.4711)">
<stop offset="0.753" stop-color="#CECECE" stop-opacity="0"/>
<stop offset="1" stop-color="#CECECE"/>
</radialGradient>
<linearGradient id="paint3_linear_507_105" x1="22.695" y1="10.304" x2="29.7602" y2="21.4729" gradientUnits="userSpaceOnUse">
<stop offset="0.439" stop-color="#B6A8F2" stop-opacity="0"/>
<stop offset="0.966" stop-color="#B6A8F2"/>
</linearGradient>
<radialGradient id="paint4_radial_507_105" cx="0" cy="0" r="1" gradientUnits="userSpaceOnUse" gradientTransform="translate(11.9999 7.29401) rotate(61.0147) scale(30.0967 71.8926)">
<stop offset="0.115" stop-color="#B6A8F2" stop-opacity="0"/>
<stop offset="0.44" stop-color="#8E7AE4"/>
</radialGradient>
<radialGradient id="paint5_radial_507_105" cx="0" cy="0" r="1" gradientUnits="userSpaceOnUse" gradientTransform="translate(24.0731 21.6949) rotate(53.5262) scale(4.43705 6.72732)">
<stop stop-color="white"/>
<stop offset="1" stop-color="#E0D8F0"/>
</radialGradient>
<radialGradient id="paint6_radial_507_105" cx="0" cy="0" r="1" gradientUnits="userSpaceOnUse" gradientTransform="translate(25.9396 25.5831) rotate(-17.6884) scale(4.99865 10.8686)">
<stop offset="0.523" stop-color="#CECECE" stop-opacity="0"/>
<stop offset="1" stop-color="#CECECE"/>
</radialGradient>
<radialGradient id="paint7_radial_507_105" cx="0" cy="0" r="1" gradientUnits="userSpaceOnUse" gradientTransform="translate(26.1628 25.8337) rotate(-50.1089) scale(6.91986 7.70606)">
<stop offset="0.619" stop-color="#CECECE" stop-opacity="0"/>
<stop offset="1" stop-color="#CECECE"/>
</radialGradient>
<linearGradient id="paint8_linear_507_105" x1="28.4261" y1="23.073" x2="30.3213" y2="25.3958" gradientUnits="userSpaceOnUse">
<stop offset="0.439" stop-color="#B6A8F2" stop-opacity="0"/>
<stop offset="0.966" stop-color="#B6A8F2"/>
</linearGradient>
<radialGradient id="paint9_radial_507_105" cx="0" cy="0" r="1" gradientUnits="userSpaceOnUse" gradientTransform="translate(26.3744 22.328) rotate(66.7547) scale(7.08874 14.4859)">
<stop stop-color="#8973E8" stop-opacity="0"/>
<stop offset="0.465" stop-color="#8E7AE4"/>
</radialGradient>
<linearGradient id="paint10_linear_507_105" x1="22.6131" y1="9.16399" x2="22.9638" y2="6.1528" gradientUnits="userSpaceOnUse">
<stop offset="0.516" stop-color="#CEC7D4" stop-opacity="0"/>
<stop offset="1" stop-color="#CEC7D5"/>
</linearGradient>
<linearGradient id="paint11_linear_507_105" x1="4.40491" y1="7.39503" x2="8.74516" y2="5.18904" gradientUnits="userSpaceOnUse">
<stop stop-color="white"/>
<stop offset="1" stop-color="white" stop-opacity="0"/>
</linearGradient>
<linearGradient id="paint12_linear_507_105" x1="4.46022" y1="18.947" x2="7.37504" y2="13.3541" gradientUnits="userSpaceOnUse">
<stop stop-color="white" stop-opacity="0.6"/>
<stop offset="1" stop-color="white" stop-opacity="0"/>
</linearGradient>
</defs>
</svg>
