<svg class="trash-icon" width="33" height="35" viewBox="0 0 28 37" fill="none" xmlns="http://www.w3.org/2000/svg">
<g filter="url(#filter0_d_747_111)">
<path d="M2 8.66667H31M3.8125 8.66667L5.625 28.6667C5.625 29.5507 6.00692 30.3986 6.68674 31.0237C7.36656 31.6488 8.28859 32 9.25 32H23.75C24.7114 32 25.6334 31.6488 26.3133 31.0237C26.9931 30.3986 27.375 29.5507 27.375 28.6667L29.1875 8.66667M11.0625 8.66667V3.66667C11.0625 3.22464 11.2535 2.80072 11.5934 2.48816C11.9333 2.17559 12.3943 2 12.875 2H20.125C20.6057 2 21.0667 2.17559 21.4066 2.48816C21.7465 2.80072 21.9375 3.22464 21.9375 3.66667V8.66667M12.875 17L20.125 23.6667M20.125 17L12.875 23.6667" stroke="white" stroke-width="1.7" stroke-linecap="round" stroke-linejoin="round" shape-rendering="crispEdges"/>
</g>
<defs>
<filter id="filter0_d_747_111" x="0.650391" y="0.650024" width="33.6992" height="34.7" filterUnits="userSpaceOnUse" color-interpolation-filters="sRGB">
<feFlood flood-opacity="0" result="BackgroundImageFix"/>
<feColorMatrix in="SourceAlpha" type="matrix" values="0 0 0 0 0 0 0 0 0 0 0 0 0 0 0 0 0 0 127 0" result="hardAlpha"/>
<feOffset dx="1" dy="1"/>
<feGaussianBlur stdDeviation="0.75"/>
<feComposite in2="hardAlpha" operator="out"/>
<feColorMatrix type="matrix" values="0 0 0 0 0 0 0 0 0 0 0 0 0 0 0 0 0 0 0.2 0"/>
<feBlend mode="normal" in2="BackgroundImageFix" result="effect1_dropShadow_747_111"/>
<feBlend mode="normal" in="SourceGraphic" in2="effect1_dropShadow_747_111" result="shape"/>
</filter>
</defs>
</svg>
