<svg width="30" height="35" viewBox="0 0 28 33" fill="none" xmlns="http://www.w3.org/2000/svg">
<path d="M23.6 11.6667L22.928 18.4317L22.256 25.1968C22.0528 27.2477 21.952 28.2724 21.488 29.0473C21.081 29.7295 20.4825 30.275 19.768 30.6149C18.9568 31 17.936 31 15.888 31H12.112C10.0656 31 9.0432 31 8.232 30.6133C7.51688 30.2736 6.91778 29.7281 6.5104 29.0457C6.0496 28.2724 5.9472 27.2477 5.7424 25.1968L4.4 11.6667M16.4 22.1389V14.0833M11.6 22.1389V14.0833M2 7.63889H9.384M9.384 7.63889L10.0016 3.334C10.1808 2.551 10.8272 2 11.5696 2H16.4304C17.1728 2 17.8176 2.551 17.9984 3.334L18.616 7.63889M9.384 7.63889H18.616M18.616 7.63889H26" stroke="white" stroke-opacity="0.45" stroke-width="2.5" stroke-linecap="round" stroke-linejoin="round"/>
</svg>
