<svg width="40" height="34" viewBox="0 0 21 22" fill="none" xmlns="http://www.w3.org/2000/svg">
<g filter="url(#filter0_d_413_111)">
<path d="M2 5.55556H17M2.9375 5.55556L3.875 16.2222C3.875 16.6937 4.07254 17.1459 4.42417 17.4793C4.77581 17.8127 5.25272 18 5.75 18H13.25C13.7473 18 14.2242 17.8127 14.5758 17.4793C14.9275 17.1459 15.125 16.6937 15.125 16.2222L16.0625 5.55556M6.6875 5.55556V2.88889C6.6875 2.65314 6.78627 2.42705 6.96209 2.26035C7.1379 2.09365 7.37636 2 7.625 2H11.375C11.6236 2 11.8621 2.09365 12.0379 2.26035C12.2137 2.42705 12.3125 2.65314 12.3125 2.88889V5.55556M7.625 10L11.375 13.5556M11.375 10L7.625 13.5556" stroke="#4E4EA7" stroke-width="1.7" stroke-linecap="round" stroke-linejoin="round" shape-rendering="crispEdges"/>
</g>
<defs>
<filter id="filter0_d_413_111" x="0.650391" y="0.650002" width="19.6992" height="20.7" filterUnits="userSpaceOnUse" color-interpolation-filters="sRGB">
<feFlood flood-opacity="0" result="BackgroundImageFix"/>
<feColorMatrix in="SourceAlpha" type="matrix" values="0 0 0 0 0 0 0 0 0 0 0 0 0 0 0 0 0 0 127 0" result="hardAlpha"/>
<feOffset dx="1" dy="1"/>
<feGaussianBlur stdDeviation="0.75"/>
<feComposite in2="hardAlpha" operator="out"/>
<feColorMatrix type="matrix" values="0 0 0 0 0 0 0 0 0 0 0 0 0 0 0 0 0 0 0.2 0"/>
<feBlend mode="normal" in2="BackgroundImageFix" result="effect1_dropShadow_413_111"/>
<feBlend mode="normal" in="SourceGraphic" in2="effect1_dropShadow_413_111" result="shape"/>
</filter>
</defs>
</svg>
