<svg width="25" height="20" viewBox="0 0 25 20" fill="none" xmlns="http://www.w3.org/2000/svg">
<path d="M9.05 1.51754C10.1657 1.17154 11.3296 0.99696 12.5 1.00004C17.3093 1.00004 20.5822 3.81253 22.5337 6.29203C23.5112 7.53628 24 8.15615 24 10C24 11.845 23.5112 12.4649 22.5337 13.708C20.5822 16.1875 17.3093 19 12.5 19C7.6907 19 4.4178 16.1875 2.46625 13.708C1.48875 12.466 1 11.8439 1 10C1 8.15502 1.48875 7.53515 2.46625 6.29203C3.06237 5.53007 3.7262 4.82119 4.45 4.17366" stroke="#E4E4FF" stroke-width="1.5" stroke-linecap="round"/>
<path d="M15.9498 9.99999C15.9498 10.8951 15.5863 11.7535 14.9393 12.3865C14.2923 13.0194 13.4148 13.375 12.4998 13.375C11.5848 13.375 10.7073 13.0194 10.0603 12.3865C9.41329 11.7535 9.0498 10.8951 9.0498 9.99999C9.0498 9.10489 9.41329 8.24645 10.0603 7.61351C10.7073 6.98058 11.5848 6.625 12.4998 6.625C13.4148 6.625 14.2923 6.98058 14.9393 7.61351C15.5863 8.24645 15.9498 9.10489 15.9498 9.99999Z" stroke="#E4E4FF" stroke-width="1.5"/>
</svg>
