<svg width="23" height="23" viewBox="0 0 25 25" fill="none" xmlns="http://www.w3.org/2000/svg">
<path d="M4.44959 6.74994L3.04889 7.68488C2.04379 8.35417 1.54124 8.68882 1.26869 9.19941C0.996139 9.71115 0.998439 10.3114 1.00304 11.5109C1.00764 12.9576 1.02144 14.4295 1.05824 15.9199C1.14679 19.4561 1.19049 21.2237 2.49114 22.5231C3.79064 23.8226 5.58234 23.8686 9.16574 23.9583C11.3883 24.0139 13.612 24.0139 15.8346 23.9583C19.418 23.8686 21.2097 23.8238 22.5092 22.5231C23.8087 21.2237 23.8535 19.4561 23.9421 15.9199C23.9789 14.4295 23.9927 12.9576 23.9973 11.512C24.0007 10.3114 24.003 9.71115 23.7305 9.20056C23.4591 8.68881 22.9565 8.35417 21.9514 7.68488L20.5496 6.74994" stroke="white" stroke-width="1.3" stroke-linecap="round" stroke-linejoin="round"/>
<path d="M1 10.1999L8.94995 14.97C10.6795 16.0073 11.5443 16.5248 12.5 16.5248C13.4556 16.5248 14.3204 16.0073 16.05 14.9689L24 10.1999" stroke="white" stroke-width="1.3" stroke-linecap="round" stroke-linejoin="round"/>
<path d="M4.44995 12V5.59994C4.44995 3.43107 4.44995 2.34778 5.12385 1.67389C5.79775 1 6.88105 1 9.04995 1H15.95C18.1189 1 19.2021 1 19.876 1.67389C20.55 2.34778 20.55 3.43107 20.55 5.59994V12" stroke="white" stroke-width="1.3" stroke-linecap="round" stroke-linejoin="round"/>
<path d="M9.92529 5.9173C10.851 5.39176 11.5147 5.66302 12 5.99997C12.199 6.13797 12.4426 6.49997 12.5001 6.49997C12.5576 6.49997 12.8011 6.13796 13 5.99997C13.4853 5.66187 14.1492 5.39176 15.075 5.91845C16.2894 6.6073 16.5631 8.88197 13.764 10.8013C13.2292 11.167 12.9624 11.3498 12.5001 11.3498C12.0378 11.3498 11.771 11.167 11.2374 10.8013C8.43719 8.88197 8.71089 6.6073 9.92644 5.9173" stroke="white" stroke-linecap="round" stroke-linejoin="round"/>
</svg>
